<svg width="82" height="21" viewBox="0 0 82 21" fill="none" xmlns="http://www.w3.org/2000/svg">
<path d="M3.75977 5.88184C4.47754 5.88184 4.86719 6.2168 4.86719 6.81152C4.86719 7.44727 4.4502 7.76855 3.61621 7.76855H2.24902V5.88184H3.75977ZM3.71191 8.80078C4.68262 8.80078 5.16113 9.15625 5.16113 9.86719C5.16113 10.5576 4.70996 10.9268 3.87598 10.9268H2.24902V8.80078H3.71191ZM0.792969 12H4.10156C5.66016 12 6.63086 11.1934 6.63086 9.92871C6.63086 9.02637 6.01562 8.37012 5.08594 8.24707V8.19238C5.77637 8.0625 6.30957 7.38574 6.30957 6.64062C6.30957 5.50586 5.46191 4.80859 4.06055 4.80859H0.792969V12ZM13.7061 8.18555L16.8916 4.80859H15.1279L12.3115 7.88477H12.2568V4.80859H10.7871V12H12.2568V8.68457H12.3115L15.1621 12H17.0146L13.7061 8.18555ZM20.8564 12.1367C22.9141 12.1367 24.2676 10.7217 24.2676 8.4043C24.2676 6.09375 22.9072 4.67871 20.8564 4.67871C18.8057 4.67871 17.4453 6.09375 17.4453 8.4043C17.4453 10.7217 18.7988 12.1367 20.8564 12.1367ZM20.8564 10.9199C19.7012 10.9199 18.9492 10.0039 18.9492 8.4043C18.9492 6.81152 19.7012 5.89551 20.8564 5.89551C22.0117 5.89551 22.7637 6.81152 22.7637 8.4043C22.7637 10.0039 22.0186 10.9199 20.8564 10.9199ZM29.292 4.69238C28.2529 4.69238 27.4258 5.21875 27.002 6.0459H26.9746V4.80859H25.5459V14.3789H27.0225V10.8174H27.0566C27.4668 11.6172 28.2871 12.123 29.3193 12.123C31.124 12.123 32.3203 10.6807 32.3203 8.4043C32.3203 6.12793 31.1172 4.69238 29.292 4.69238ZM28.9023 10.8721C27.7676 10.8721 27.0156 9.90137 27.0156 8.4043C27.0156 6.9209 27.7744 5.93652 28.9023 5.93652C30.0713 5.93652 30.8027 6.90039 30.8027 8.4043C30.8027 9.91504 30.0713 10.8721 28.9023 10.8721ZM36.1758 12.1367C37.96 12.1367 39.1152 11.2344 39.1152 9.86719C39.1152 9.04688 38.6299 8.45215 37.7139 8.24023V8.18555C38.4111 8.00781 38.8623 7.38574 38.8623 6.6543C38.8623 5.45801 37.9189 4.67871 36.1758 4.67871C34.5693 4.67871 33.4961 5.47852 33.3457 6.75684H34.7607C34.8564 6.19629 35.3896 5.85449 36.1826 5.85449C37.0234 5.85449 37.4199 6.24414 37.4199 6.79785C37.4199 7.42676 36.9893 7.74121 36.1621 7.74121H35.1299V8.82812H36.1826C37.1602 8.82812 37.6455 9.15625 37.6455 9.87402C37.6455 10.5098 37.1191 10.9473 36.1758 10.9473C35.3486 10.9473 34.8018 10.6055 34.6514 9.9834H33.1953C33.3252 11.3096 34.4941 12.1367 36.1758 12.1367ZM41.8701 12L45.1924 6.94824H45.2471V12H46.7031V4.80859H45.2471L41.9248 9.84668H41.8701V4.80859H40.4141V12H41.8701ZM53.0127 12H54.4824V4.80859H53.0127V7.70703H49.7588V4.80859H48.2891V12H49.7588V8.86914H53.0127V12ZM56.7998 14.6797C58.2969 14.6797 59.001 14.1191 59.6162 12.376L62.3164 4.80859H60.7578L58.9326 10.6602H58.9121L57.0869 4.80859H55.4873L58.085 12.0068C58.085 12.0137 57.9551 12.4375 57.9551 12.4512C57.7295 13.1895 57.3672 13.4766 56.6768 13.4766C56.5537 13.4766 56.3076 13.4766 56.1982 13.4492V14.6455C56.3076 14.666 56.6836 14.6797 56.7998 14.6797Z" fill="#E11E26"/>
<line x1="1" y1="20.5" x2="82" y2="20.5" stroke="#E11E26"/>
<path d="M78.6 4.375H69L70.7143 11.25H77.2286L78.6 4.375ZM78.6 4.375L78.9429 3H81" stroke="#E11E26"/>
<path d="M72.272 12.9688C72.272 13.2634 72.0341 13.5 71.7434 13.5C71.4527 13.5 71.2148 13.2634 71.2148 12.9688C71.2148 12.6741 71.4527 12.4375 71.7434 12.4375C72.0341 12.4375 72.272 12.6741 72.272 12.9688Z" stroke="#E11E26"/>
<path d="M76.728 12.9688C76.728 13.2634 76.4902 13.5 76.1995 13.5C75.9088 13.5 75.6709 13.2634 75.6709 12.9688C75.6709 12.6741 75.9088 12.4375 76.1995 12.4375C76.4902 12.4375 76.728 12.6741 76.728 12.9688Z" stroke="#E11E26"/>
</svg>
