<svg width="189" height="212" viewBox="0 0 189 212" fill="none" xmlns="http://www.w3.org/2000/svg">
<rect width="189" height="212" rx="4.00424" fill="white"/>
<path d="M63.4121 180V171.455H66.4268V170.136H58.8594V171.455H61.8809V180H63.4121ZM69.79 173.882C70.5078 173.882 70.8975 174.217 70.8975 174.812C70.8975 175.447 70.4805 175.769 69.6465 175.769H68.2793V173.882H69.79ZM69.7422 176.801C70.7129 176.801 71.1914 177.156 71.1914 177.867C71.1914 178.558 70.7402 178.927 69.9062 178.927H68.2793V176.801H69.7422ZM66.8232 180H70.1318C71.6904 180 72.6611 179.193 72.6611 177.929C72.6611 177.026 72.0459 176.37 71.1162 176.247V176.192C71.8066 176.062 72.3398 175.386 72.3398 174.641C72.3398 173.506 71.4922 172.809 70.0908 172.809H66.8232V180ZM77.0703 180.137C79.1279 180.137 80.4814 178.722 80.4814 176.404C80.4814 174.094 79.1211 172.679 77.0703 172.679C75.0195 172.679 73.6592 174.094 73.6592 176.404C73.6592 178.722 75.0127 180.137 77.0703 180.137ZM77.0703 178.92C75.915 178.92 75.1631 178.004 75.1631 176.404C75.1631 174.812 75.915 173.896 77.0703 173.896C78.2256 173.896 78.9775 174.812 78.9775 176.404C78.9775 178.004 78.2324 178.92 77.0703 178.92ZM85.5059 172.692C84.4668 172.692 83.6396 173.219 83.2158 174.046H83.1885V172.809H81.7598V182.379H83.2363V178.817H83.2705C83.6807 179.617 84.501 180.123 85.5332 180.123C87.3379 180.123 88.5342 178.681 88.5342 176.404C88.5342 174.128 87.3311 172.692 85.5059 172.692ZM85.1162 178.872C83.9814 178.872 83.2295 177.901 83.2295 176.404C83.2295 174.921 83.9883 173.937 85.1162 173.937C86.2852 173.937 87.0166 174.9 87.0166 176.404C87.0166 177.915 86.2852 178.872 85.1162 178.872ZM95.5547 180V172.809H94.0918V175.639C93.791 175.994 93.251 176.295 92.4512 176.295C91.542 176.295 91.0566 175.734 91.0566 174.839V172.809H89.5869V174.948C89.5869 176.521 90.5234 177.553 92.2188 177.553C93.0117 177.553 93.6064 177.307 93.9961 176.938H94.0918V180H95.5547ZM100.162 173.868C101.194 173.868 101.892 174.641 101.926 175.741H98.3301C98.4053 174.654 99.1299 173.868 100.162 173.868ZM101.919 177.888C101.721 178.517 101.099 178.94 100.258 178.94C99.0752 178.94 98.3232 178.113 98.3232 176.862V176.773H103.402V176.268C103.402 174.087 102.158 172.679 100.162 172.679C98.1318 172.679 96.833 174.183 96.833 176.438C96.833 178.708 98.1113 180.137 100.224 180.137C101.871 180.137 103.115 179.2 103.32 177.888H101.919ZM110.806 175.112C110.601 173.786 109.493 172.679 107.716 172.679C105.672 172.679 104.346 174.148 104.346 176.404C104.346 178.708 105.672 180.137 107.729 180.137C109.425 180.137 110.607 179.152 110.819 177.71H109.397C109.192 178.462 108.618 178.899 107.743 178.899C106.595 178.899 105.843 177.963 105.843 176.404C105.843 174.887 106.588 173.909 107.729 173.909C108.646 173.909 109.192 174.449 109.384 175.112H110.806ZM117.327 172.809H111.346V173.978H113.602V180H115.071V173.978H117.327V172.809ZM121.374 173.882C122.092 173.882 122.481 174.217 122.481 174.812C122.481 175.447 122.064 175.769 121.23 175.769H119.863V173.882H121.374ZM121.326 176.801C122.297 176.801 122.775 177.156 122.775 177.867C122.775 178.558 122.324 178.927 121.49 178.927H119.863V176.801H121.326ZM118.407 180H121.716C123.274 180 124.245 179.193 124.245 177.929C124.245 177.026 123.63 176.37 122.7 176.247V176.192C123.391 176.062 123.924 175.386 123.924 174.641C123.924 173.506 123.076 172.809 121.675 172.809H118.407V180ZM128.654 180.137C130.712 180.137 132.065 178.722 132.065 176.404C132.065 174.094 130.705 172.679 128.654 172.679C126.604 172.679 125.243 174.094 125.243 176.404C125.243 178.722 126.597 180.137 128.654 180.137ZM128.654 178.92C127.499 178.92 126.747 178.004 126.747 176.404C126.747 174.812 127.499 173.896 128.654 173.896C129.81 173.896 130.562 174.812 130.562 176.404C130.562 178.004 129.816 178.92 128.654 178.92Z" fill="#333333"/>
<rect x="12" y="52" width="8" height="8" fill="#EFEFEF"/>
<rect x="12" y="32" width="8" height="8" fill="#EFEFEF"/>
<rect x="12" y="12" width="8" height="8" fill="#EFEFEF"/>
<rect x="12" y="72" width="8" height="8" fill="#EFEFEF"/>
<rect x="12" y="92" width="8" height="8" fill="#EFEFEF"/>
<rect x="12" y="112" width="8" height="8" fill="#EFEFEF"/>
<rect x="12" y="132" width="8" height="8" fill="#EFEFEF"/>
<rect x="12" y="152" width="8" height="8" fill="#EFEFEF"/>
<rect x="12" y="172" width="8" height="8" fill="#EFEFEF"/>
<rect x="12" y="192" width="8" height="8" fill="#EFEFEF"/>
<line x1="40.5" y1="100" x2="40.5" y2="128" stroke="black" stroke-dasharray="1 6"/>
<rect x="126" y="81.7573" width="6" height="6" transform="rotate(45 126 81.7573)" fill="#F7F0F0"/>
<line x1="149.5" y1="40" x2="149.5" y2="56" stroke="black" stroke-dasharray="1 6"/>
<path d="M117.085 102.64C128.809 101.3 148.022 104.214 150 108.5C154.385 118 130.5 115 129 122.5C127.5 130 144.5 124.5 139 132.5" stroke="#333333"/>
<path d="M112.283 61.2741C115.537 60.8549 117.17 60.457 117.17 60.457V65.3437V70.6746V76.0055V81.3364V82.6691V87.1116V93.331V99.9946V105.77V111.545C117.17 111.545 116.576 111.798 115.393 112.159C113.735 112.666 110.919 113.385 106.952 113.922C105.481 114.12 103.852 114.294 102.065 114.422C100.679 114.522 99.1985 114.594 97.6229 114.63C96.9023 114.646 96.1619 114.655 95.4017 114.655C94.2481 114.655 93.1402 114.635 92.078 114.598C89.8806 114.523 87.8786 114.377 86.0726 114.188C83.8507 113.955 81.9253 113.656 80.2974 113.344C78.1505 112.933 76.5209 112.499 75.4108 112.159C74.227 111.798 73.6338 111.545 73.6338 111.545V106.658V101.772V97.7734V93.331V85.3346V76.0055V67.1207V60.457C73.6338 60.457 76.6049 61.181 82.5186 61.7047C85.8698 62.0015 90.1658 62.234 95.4017 62.234C98.7475 62.234 101.71 62.1391 104.287 61.9931C107.583 61.8063 110.25 61.5361 112.283 61.2741Z" fill="#EADDDD"/>
<path d="M95.4017 62.234C98.7475 62.234 101.71 62.1391 104.287 61.9931M95.4017 62.234L117.17 76.0055M95.4017 62.234C90.1658 62.234 85.8698 62.0015 82.5186 61.7047M112.283 61.2741C115.537 60.8549 117.17 60.457 117.17 60.457V65.3437M112.283 61.2741L117.17 65.3437M112.283 61.2741C110.25 61.5361 107.583 61.8063 104.287 61.9931M117.17 65.3437V70.6746M104.287 61.9931L117.17 70.6746M117.17 70.6746V76.0055M117.17 76.0055V81.3364M82.5186 61.7047C76.6049 61.181 73.6338 60.457 73.6338 60.457V67.1207M82.5186 61.7047L73.6338 67.1207M82.5186 61.7047L87.4053 64.4733M117.17 81.3364L112.283 78.5678M117.17 81.3364V82.6691M73.6338 67.1207V76.0055M87.4053 64.4733L73.6338 76.0055M87.4053 64.4733L92.078 67.1207M73.6338 76.0055V85.3346M92.078 67.1207L73.6338 85.3346M92.078 67.1207L98.3509 70.6746M73.6338 85.3346V93.331M98.3509 70.6746L73.6338 93.331M98.3509 70.6746L105.508 74.7294M73.6338 93.331V97.7734M105.508 74.7294L73.6338 97.7734M105.508 74.7294L112.283 78.5678M73.6338 97.7734V101.772M112.283 78.5678L73.6338 101.772M73.6338 101.772V106.658M117.17 82.6691L113.616 84.6274M117.17 82.6691V87.1116M73.6338 106.658V111.545C73.6338 111.545 74.227 111.798 75.4108 112.159M73.6338 106.658L78.9647 103.721M113.616 84.6274L117.17 87.1116M113.616 84.6274L110.062 86.5857M117.17 87.1116V93.331M110.062 86.5857L117.17 93.331M110.062 86.5857L104.287 89.768M117.17 93.331V99.9946M104.287 89.768L117.17 99.9946M104.287 89.768L98.3509 93.0386M117.17 99.9946V105.77M98.3509 93.0386L117.17 105.77M98.3509 93.0386L92.078 96.4951M117.17 105.77V111.545C117.17 111.545 116.576 111.798 115.393 112.159M92.078 96.4951L115.393 112.159M92.078 96.4951L87.4053 99.0698M115.393 112.159C113.735 112.666 110.919 113.385 106.952 113.922M87.4053 99.0698L83.185 101.395M87.4053 99.0698L89.1823 100.42M106.952 113.922L102.651 110.654M106.952 113.922C105.481 114.12 103.852 114.294 102.065 114.422M78.9647 103.721L75.4108 112.159M78.9647 103.721L83.185 101.395M75.4108 112.159C76.5209 112.499 78.1505 112.933 80.2974 113.344M83.185 101.395L80.2974 113.344M80.2974 113.344C81.9253 113.656 83.8507 113.955 86.0726 114.188M89.1823 100.42L86.0726 114.188M89.1823 100.42L93.5265 103.721M86.0726 114.188C87.8786 114.377 89.8806 114.523 92.078 114.598M93.5265 103.721L92.078 114.598M93.5265 103.721L98.3509 107.386M92.078 114.598C93.1402 114.635 94.2481 114.655 95.4017 114.655C96.1619 114.655 96.9023 114.646 97.6229 114.63M98.3509 107.386L97.6229 114.63M98.3509 107.386L102.651 110.654M97.6229 114.63C99.1985 114.594 100.679 114.522 102.065 114.422M102.651 110.654L102.065 114.422" stroke="#EA5A5A"/>
<path d="M121.611 50.2381C121.611 53.1823 109.876 55.569 95.4007 55.569C80.9252 55.569 69.1904 53.1823 69.1904 50.2381C69.1904 47.294 80.9252 44.9072 95.4007 44.9072C109.876 44.9072 121.611 47.294 121.611 50.2381Z" fill="#EA5A5A"/>
<ellipse cx="95.4011" cy="50.2432" rx="11.1061" ry="2.66545" fill="white"/>
<path d="M68.3018 54.5258C68.3018 59.2 79.1816 60.8997 95.8376 60.8997C100.643 60.8997 104.895 60.7133 108.513 60.3693C117.434 59.5208 122.499 57.7132 122.499 55.3756V51.9762C122.499 55.2617 112.494 57.5003 95.8376 57.5003C79.1816 57.5003 68.3018 55.8005 68.3018 51.1263V54.5258Z" fill="#EA5A5A"/>
<path d="M68.3018 116.139C68.3018 121.238 79.1816 123.093 95.8376 123.093C100.643 123.093 104.895 122.889 108.513 122.514C117.434 121.588 122.499 119.616 122.499 117.066V113.358C122.499 116.942 112.494 119.384 95.8376 119.384C79.1816 119.384 68.3018 117.53 68.3018 112.431V116.139Z" fill="#EA5A5A"/>
<path d="M69.1904 112.429C69.1904 117.528 85.2254 118.276 95.8378 118.207C106.116 118.14 122.055 117.318 122.055 112.429C122.055 111.985 120.723 110.21 118.946 110.21C121.167 113.765 105.098 115.397 95.8378 115.542C85.9058 115.696 69.6042 113.765 71.8559 110.21C70.0789 110.655 69.1904 111.985 69.1904 112.429Z" fill="#EA5A5A"/>
</svg>
