<svg width="159" height="47" viewBox="0 0 159 47" fill="none" xmlns="http://www.w3.org/2000/svg">
<rect width="159" height="47" rx="5" fill="#EA5A5A"/>
<path d="M120.5 25.1798C119.984 25.8774 119.322 26.4519 118.562 26.8632L117.358 26.14C117.323 26.1221 117.283 26.1153 117.244 26.1207C117.205 26.126 117.169 26.1432 117.139 26.17L115.306 27.7562C115.235 27.8131 115.179 27.8857 115.142 27.9683C115.105 28.0509 115.087 28.1412 115.09 28.2321C115.093 28.323 115.117 28.4119 115.16 28.492C115.203 28.572 115.263 28.6409 115.337 28.6933C115.411 28.7456 116.346 29.4727 116.41 29.5054C116.473 29.5382 116.473 29.5382 116.63 29.6143C116.819 29.6436 116.975 29.607 117.156 29.5423C118.958 28.9013 120.543 27.7609 121.731 26.2514C122.886 24.733 123.58 22.9073 123.727 20.9959C123.742 20.8056 123.76 20.6954 123.74 20.5502C123.72 20.4048 123.7 20.2596 123.61 20.1388C123.52 20.018 122.501 19.3197 122.501 19.3197C122.432 19.2652 122.352 19.2271 122.266 19.2083C122.18 19.1896 122.092 19.1906 122.007 19.2114C121.922 19.2322 121.842 19.2721 121.775 19.3283C121.707 19.3844 121.653 19.4553 121.617 19.5356L120.551 21.7271C120.532 21.7617 120.525 21.8017 120.531 21.8409C120.536 21.8801 120.554 21.9166 120.581 21.945L121.611 22.8962C121.413 23.7317 121.034 24.5118 120.5 25.1798Z" fill="white"/>
<path d="M47.9756 28V18.1357H39.9775V28H41.5156V19.4688H46.4512V28H47.9756ZM52.8428 28.1367C54.9004 28.1367 56.2539 26.7217 56.2539 24.4043C56.2539 22.0938 54.8936 20.6787 52.8428 20.6787C50.792 20.6787 49.4316 22.0938 49.4316 24.4043C49.4316 26.7217 50.7852 28.1367 52.8428 28.1367ZM52.8428 26.9199C51.6875 26.9199 50.9355 26.0039 50.9355 24.4043C50.9355 22.8115 51.6875 21.8955 52.8428 21.8955C53.998 21.8955 54.75 22.8115 54.75 24.4043C54.75 26.0039 54.0049 26.9199 52.8428 26.9199ZM60.1094 28.1367C61.8936 28.1367 63.0488 27.2344 63.0488 25.8672C63.0488 25.0469 62.5635 24.4521 61.6475 24.2402V24.1855C62.3447 24.0078 62.7959 23.3857 62.7959 22.6543C62.7959 21.458 61.8525 20.6787 60.1094 20.6787C58.5029 20.6787 57.4297 21.4785 57.2793 22.7568H58.6943C58.79 22.1963 59.3232 21.8545 60.1162 21.8545C60.957 21.8545 61.3535 22.2441 61.3535 22.7979C61.3535 23.4268 60.9229 23.7412 60.0957 23.7412H59.0635V24.8281H60.1162C61.0938 24.8281 61.5791 25.1562 61.5791 25.874C61.5791 26.5098 61.0527 26.9473 60.1094 26.9473C59.2822 26.9473 58.7354 26.6055 58.585 25.9834H57.1289C57.2588 27.3096 58.4277 28.1367 60.1094 28.1367ZM67.3145 21.8818C68.0322 21.8818 68.4219 22.2168 68.4219 22.8115C68.4219 23.4473 68.0049 23.7686 67.1709 23.7686H65.8037V21.8818H67.3145ZM67.2666 24.8008C68.2373 24.8008 68.7158 25.1562 68.7158 25.8672C68.7158 26.5576 68.2646 26.9268 67.4307 26.9268H65.8037V24.8008H67.2666ZM64.3477 28H67.6562C69.2148 28 70.1855 27.1934 70.1855 25.9287C70.1855 25.0264 69.5703 24.3701 68.6406 24.2471V24.1924C69.3311 24.0625 69.8643 23.3857 69.8643 22.6406C69.8643 21.5059 69.0166 20.8086 67.6152 20.8086H64.3477V28ZM74.5947 28.1367C76.6523 28.1367 78.0059 26.7217 78.0059 24.4043C78.0059 22.0938 76.6455 20.6787 74.5947 20.6787C72.5439 20.6787 71.1836 22.0938 71.1836 24.4043C71.1836 26.7217 72.5371 28.1367 74.5947 28.1367ZM74.5947 26.9199C73.4395 26.9199 72.6875 26.0039 72.6875 24.4043C72.6875 22.8115 73.4395 21.8955 74.5947 21.8955C75.75 21.8955 76.502 22.8115 76.502 24.4043C76.502 26.0039 75.7568 26.9199 74.5947 26.9199ZM84.001 28H85.4707V20.8086H84.001V23.707H80.7471V20.8086H79.2773V28H80.7471V24.8691H84.001V28ZM88.5264 28L91.8486 22.9482H91.9033V28H93.3594V20.8086H91.9033L88.5811 25.8467H88.5264V20.8086H87.0703V28H88.5264ZM100.414 20.8086H94.4326V21.9775H96.6885V28H98.1582V21.9775H100.414V20.8086ZM104.208 24.1855C105.049 24.1855 105.603 24.7119 105.603 25.5117C105.603 26.3047 105.056 26.8379 104.208 26.8379H102.964V24.1855H104.208ZM101.494 28H104.338C105.999 28 107.072 27.0361 107.072 25.5117C107.072 23.9941 105.999 23.0303 104.338 23.0303H102.964V20.8086H101.494V28Z" fill="white"/>
</svg>
