<svg width="186" height="160" viewBox="0 0 186 160" fill="none" xmlns="http://www.w3.org/2000/svg">
<g filter="url(#filter0_d_175_14044)">
<rect x="60" y="60" width="50" height="50" fill="white"/>
</g>
<path d="M78.3088 89.2543L80.7816 88.6056C81.0723 88.5284 81.3766 88.518 81.6718 88.5753C81.967 88.6326 82.2454 88.756 82.4861 88.9363L84.5693 90.4957C87.1736 88.6624 89.1291 86.0501 90.154 83.0346L88.0595 81.4668C87.5726 81.1024 87.2794 80.5384 87.2618 79.9247L87.1901 77.3891C87.1768 76.8981 87.3445 76.4195 87.6612 76.0441C87.978 75.6688 88.4217 75.4231 88.9079 75.3538L90.6202 75.1075C91.7387 74.9466 92.803 75.7433 92.8946 76.8717C93.5857 85.4002 87.7962 93.123 79.4285 94.862C78.32 95.0921 77.2557 94.2955 77.0949 93.177L76.8486 91.4646C76.6949 90.4664 77.3262 89.5168 78.3088 89.2543V89.2543Z" fill="#E11E26"/>
<defs>
<filter id="filter0_d_175_14044" x="0" y="0" width="210" height="210" filterUnits="userSpaceOnUse" color-interpolation-filters="sRGB">
<feFlood flood-opacity="0" result="BackgroundImageFix"/>
<feColorMatrix in="SourceAlpha" type="matrix" values="0 0 0 0 0 0 0 0 0 0 0 0 0 0 0 0 0 0 127 0" result="hardAlpha"/>
<feOffset dx="20" dy="20"/>
<feGaussianBlur stdDeviation="40"/>
<feColorMatrix type="matrix" values="0 0 0 0 0 0 0 0 0 0 0 0 0 0 0 0 0 0 0.3 0"/>
<feBlend mode="normal" in2="BackgroundImageFix" result="effect1_dropShadow_175_14044"/>
<feBlend mode="normal" in="SourceGraphic" in2="effect1_dropShadow_175_14044" result="shape"/>
</filter>
</defs>
</svg>
