<svg width="189" height="212" viewBox="0 0 189 212" fill="none" xmlns="http://www.w3.org/2000/svg">
<rect width="189" height="212" rx="4.00424" fill="white"/>
<path d="M54.9883 170.136V180H56.5195V176.63H58.6387C60.5732 176.63 61.9336 175.304 61.9336 173.376C61.9336 171.455 60.6006 170.136 58.6865 170.136H54.9883ZM56.5195 171.428H58.2832C59.6094 171.428 60.3682 172.139 60.3682 173.383C60.3682 174.627 59.6094 175.345 58.2764 175.345H56.5195V171.428ZM65.7754 178.954C64.9824 178.954 64.4629 178.544 64.4629 177.915C64.4629 177.3 64.9619 176.91 65.8438 176.849L67.6143 176.739V177.307C67.6143 178.243 66.8076 178.954 65.7754 178.954ZM65.3652 180.123C66.3086 180.123 67.2178 179.617 67.6348 178.817H67.6689V180H69.084V175.044C69.084 173.602 67.9697 172.679 66.2266 172.679C64.4492 172.679 63.3418 173.636 63.2598 174.935H64.6543C64.7842 174.292 65.3174 173.882 66.1719 173.882C67.0742 173.882 67.6143 174.36 67.6143 175.16V175.714L65.6455 175.83C63.9365 175.926 62.9727 176.698 62.9727 177.956C62.9727 179.248 63.957 180.123 65.3652 180.123ZM76.7744 175.112C76.5693 173.786 75.4619 172.679 73.6846 172.679C71.6406 172.679 70.3145 174.148 70.3145 176.404C70.3145 178.708 71.6406 180.137 73.6982 180.137C75.3936 180.137 76.5762 179.152 76.7881 177.71H75.3662C75.1611 178.462 74.5869 178.899 73.7119 178.899C72.5635 178.899 71.8115 177.963 71.8115 176.404C71.8115 174.887 72.5566 173.909 73.6982 173.909C74.6143 173.909 75.1611 174.449 75.3525 175.112H76.7744ZM82.6328 180H84.1094V172.809H77.9775V180H79.4473V173.978H82.6328V180ZM89.4551 172.692C88.416 172.692 87.5889 173.219 87.165 174.046H87.1377V172.809H85.709V182.379H87.1855V178.817H87.2197C87.6299 179.617 88.4502 180.123 89.4824 180.123C91.2871 180.123 92.4834 178.681 92.4834 176.404C92.4834 174.128 91.2803 172.692 89.4551 172.692ZM89.0654 178.872C87.9307 178.872 87.1787 177.901 87.1787 176.404C87.1787 174.921 87.9375 173.937 89.0654 173.937C90.2344 173.937 90.9658 174.9 90.9658 176.404C90.9658 177.915 90.2344 178.872 89.0654 178.872ZM96.8516 180.137C98.9092 180.137 100.263 178.722 100.263 176.404C100.263 174.094 98.9023 172.679 96.8516 172.679C94.8008 172.679 93.4404 174.094 93.4404 176.404C93.4404 178.722 94.7939 180.137 96.8516 180.137ZM96.8516 178.92C95.6963 178.92 94.9443 178.004 94.9443 176.404C94.9443 174.812 95.6963 173.896 96.8516 173.896C98.0068 173.896 98.7588 174.812 98.7588 176.404C98.7588 178.004 98.0137 178.92 96.8516 178.92ZM106.196 178.831H102.936V178.776C103.264 178.312 103.441 177.573 103.496 176.726L103.694 173.978H106.196V178.831ZM102.108 181.887V180H107.413V181.887H108.78V178.831H107.666V172.809H102.423L102.163 176.664C102.095 177.635 101.855 178.503 101.329 178.831H100.748V181.887H102.108ZM112.301 178.954C111.508 178.954 110.988 178.544 110.988 177.915C110.988 177.3 111.487 176.91 112.369 176.849L114.14 176.739V177.307C114.14 178.243 113.333 178.954 112.301 178.954ZM111.891 180.123C112.834 180.123 113.743 179.617 114.16 178.817H114.194V180H115.609V175.044C115.609 173.602 114.495 172.679 112.752 172.679C110.975 172.679 109.867 173.636 109.785 174.935H111.18C111.31 174.292 111.843 173.882 112.697 173.882C113.6 173.882 114.14 174.36 114.14 175.16V175.714L112.171 175.83C110.462 175.926 109.498 176.698 109.498 177.956C109.498 179.248 110.482 180.123 111.891 180.123ZM123.915 176.186L126.861 172.809H125.118L122.507 175.885H122.452V172.809H120.996V175.885H120.948L118.337 172.809H116.58L119.547 176.213L116.498 180H118.303L120.948 176.685H120.996V180H122.452V176.685H122.507L125.152 180H126.984L123.915 176.186ZM129.363 180L132.686 174.948H132.74V180H134.196V172.809H132.74L129.418 177.847H129.363V172.809H127.907V180H129.363Z" fill="#333333"/>
<line x1="40.5" y1="40" x2="40.5" y2="70" stroke="#333333" stroke-dasharray="1 6"/>
<line x1="149.5" y1="99" x2="149.5" y2="129" stroke="#333333" stroke-dasharray="1 6"/>
</svg>
