<svg width="142" height="15" viewBox="0 0 142 15" fill="none" xmlns="http://www.w3.org/2000/svg">
<path d="M5.14062 12.1846C3.75521 12.1846 2.65462 11.7243 1.83887 10.8037C1.02767 9.88314 0.62207 8.63672 0.62207 7.06445C0.62207 5.5013 1.02995 4.25944 1.8457 3.33887C2.66602 2.41374 3.76432 1.95117 5.14062 1.95117C6.22526 1.95117 7.14811 2.25423 7.90918 2.86035C8.6748 3.46191 9.13965 4.25488 9.30371 5.23926H7.76562C7.60612 4.65592 7.28711 4.1888 6.80859 3.83789C6.33464 3.48698 5.77865 3.31152 5.14062 3.31152C4.24284 3.31152 3.52507 3.65332 2.9873 4.33691C2.4541 5.01595 2.1875 5.92513 2.1875 7.06445C2.1875 8.21745 2.4541 9.13346 2.9873 9.8125C3.52051 10.487 4.24056 10.8242 5.14746 10.8242C5.80371 10.8242 6.3597 10.6715 6.81543 10.3662C7.27572 10.0609 7.59245 9.63249 7.76562 9.08105H9.30371C9.08952 10.0609 8.61784 10.8242 7.88867 11.3711C7.16406 11.9134 6.24805 12.1846 5.14062 12.1846ZM13.5693 8.18555L16.8779 12H15.0254L12.1748 8.68457H12.1201V12H10.6504V4.80859H12.1201V7.88477H12.1748L14.9912 4.80859H16.7549L13.5693 8.18555ZM20.1455 10.9541C20.665 10.9541 21.1003 10.7969 21.4512 10.4824C21.8066 10.1634 21.9844 9.77148 21.9844 9.30664V8.73926L20.2139 8.84863C19.7718 8.88053 19.43 8.98991 19.1885 9.17676C18.9515 9.35905 18.833 9.60514 18.833 9.91504C18.833 10.2295 18.9515 10.4824 19.1885 10.6738C19.43 10.8607 19.749 10.9541 20.1455 10.9541ZM19.7354 12.123C19.029 12.123 18.4525 11.9225 18.0059 11.5215C17.5638 11.1204 17.3428 10.5986 17.3428 9.95605C17.3428 9.32715 17.5752 8.82812 18.04 8.45898C18.5049 8.08529 19.1634 7.87565 20.0156 7.83008L21.9844 7.71387V7.16016C21.9844 6.75911 21.8568 6.44694 21.6016 6.22363C21.3464 5.99577 20.9932 5.88184 20.542 5.88184C20.1227 5.88184 19.7809 5.97526 19.5166 6.16211C19.2568 6.34896 19.0928 6.60645 19.0244 6.93457H17.6299C17.6709 6.26921 17.958 5.72689 18.4912 5.30762C19.0244 4.88835 19.7262 4.67871 20.5967 4.67871C21.4671 4.67871 22.1598 4.8929 22.6748 5.32129C23.1943 5.74967 23.4541 6.32389 23.4541 7.04395V12H22.0391V10.8174H22.0049C21.7998 11.2139 21.4876 11.5306 21.0684 11.7676C20.6536 12.0046 20.2093 12.123 19.7354 12.123ZM30.8096 12H29.3467V8.9375H29.251C28.818 9.34766 28.2256 9.55273 27.4736 9.55273C26.6396 9.55273 25.9925 9.31803 25.5322 8.84863C25.0719 8.37923 24.8418 7.74577 24.8418 6.94824V4.80859H26.3115V6.83887C26.3115 7.2946 26.4323 7.65234 26.6738 7.91211C26.9154 8.16732 27.2594 8.29492 27.7061 8.29492C28.4307 8.29492 28.9775 8.07617 29.3467 7.63867V4.80859H30.8096V12ZM34.9248 10.9541C35.4443 10.9541 35.8796 10.7969 36.2305 10.4824C36.5859 10.1634 36.7637 9.77148 36.7637 9.30664V8.73926L34.9932 8.84863C34.5511 8.88053 34.2093 8.98991 33.9678 9.17676C33.7308 9.35905 33.6123 9.60514 33.6123 9.91504C33.6123 10.2295 33.7308 10.4824 33.9678 10.6738C34.2093 10.8607 34.5283 10.9541 34.9248 10.9541ZM34.5146 12.123C33.8083 12.123 33.2318 11.9225 32.7852 11.5215C32.3431 11.1204 32.1221 10.5986 32.1221 9.95605C32.1221 9.32715 32.3545 8.82812 32.8193 8.45898C33.2842 8.08529 33.9427 7.87565 34.7949 7.83008L36.7637 7.71387V7.16016C36.7637 6.75911 36.6361 6.44694 36.3809 6.22363C36.1257 5.99577 35.7725 5.88184 35.3213 5.88184C34.902 5.88184 34.5602 5.97526 34.2959 6.16211C34.0361 6.34896 33.8721 6.60645 33.8037 6.93457H32.4092C32.4502 6.26921 32.7373 5.72689 33.2705 5.30762C33.8037 4.88835 34.5055 4.67871 35.376 4.67871C36.2464 4.67871 36.9391 4.8929 37.4541 5.32129C37.9736 5.74967 38.2334 6.32389 38.2334 7.04395V12H36.8184V10.8174H36.7842C36.5791 11.2139 36.2669 11.5306 35.8477 11.7676C35.4329 12.0046 34.9886 12.123 34.5146 12.123ZM45.1445 4.80859V5.97754H42.8887V12H41.4189V5.97754H39.1631V4.80859H45.1445ZM48.9385 8.18555H47.6943V10.8379H48.9385C49.3623 10.8379 49.6995 10.7171 49.9502 10.4756C50.2054 10.2295 50.333 9.9082 50.333 9.51172C50.333 9.11068 50.2054 8.78939 49.9502 8.54785C49.695 8.30632 49.3577 8.18555 48.9385 8.18555ZM46.2246 12V4.80859H47.6943V7.03027H49.0684C49.9023 7.03027 50.5654 7.25586 51.0576 7.70703C51.5544 8.15365 51.8027 8.75521 51.8027 9.51172C51.8027 10.2728 51.5544 10.8789 51.0576 11.3301C50.5654 11.7767 49.9023 12 49.0684 12H46.2246ZM59.6299 4.69238C60.5459 4.69238 61.2796 5.02734 61.8311 5.69727C62.3825 6.36719 62.6582 7.26953 62.6582 8.4043C62.6582 9.53906 62.3848 10.4437 61.8379 11.1182C61.291 11.7881 60.5641 12.123 59.6572 12.123C59.1468 12.123 58.6934 12.0068 58.2969 11.7744C57.9049 11.542 57.6042 11.223 57.3945 10.8174H57.3604V14.3789H55.8838V4.80859H57.3125V6.0459H57.3398C57.554 5.62663 57.8617 5.29622 58.2627 5.05469C58.6637 4.81315 59.1195 4.69238 59.6299 4.69238ZM59.2402 10.8721C59.8236 10.8721 60.2861 10.651 60.6279 10.209C60.9697 9.76237 61.1406 9.16081 61.1406 8.4043C61.1406 7.65234 60.9697 7.05306 60.6279 6.60645C60.2861 6.15983 59.8236 5.93652 59.2402 5.93652C58.6751 5.93652 58.2194 6.16211 57.873 6.61328C57.5267 7.06445 57.3535 7.66146 57.3535 8.4043C57.3535 9.15169 57.5244 9.75098 57.8662 10.2021C58.2126 10.6488 58.6706 10.8721 59.2402 10.8721ZM68.1953 6.3877C67.8717 6.04134 67.4548 5.86816 66.9443 5.86816C66.4339 5.86816 66.0101 6.04362 65.6729 6.39453C65.3356 6.74089 65.1488 7.18978 65.1123 7.74121H68.708C68.6898 7.18522 68.5189 6.73405 68.1953 6.3877ZM68.7012 9.8877H70.1025C69.9977 10.5485 69.6605 11.0885 69.0908 11.5078C68.5212 11.9271 67.8262 12.1367 67.0059 12.1367C65.9531 12.1367 65.1237 11.8063 64.5176 11.1455C63.916 10.4801 63.6152 9.5778 63.6152 8.43848C63.6152 7.30827 63.916 6.39909 64.5176 5.71094C65.1237 5.02279 65.9326 4.67871 66.9443 4.67871C67.9378 4.67871 68.7262 5.00456 69.3096 5.65625C69.8929 6.30339 70.1846 7.17383 70.1846 8.26758V8.77344H65.1055V8.8623C65.1055 9.49121 65.2809 9.99479 65.6318 10.373C65.9827 10.7513 66.4521 10.9404 67.04 10.9404C67.4548 10.9404 67.8102 10.8447 68.1064 10.6533C68.4027 10.4619 68.6009 10.2067 68.7012 9.8877ZM74.3682 8.18555L77.6768 12H75.8242L72.9736 8.68457H72.9189V12H71.4492V4.80859H72.9189V7.88477H72.9736L75.79 4.80859H77.5537L74.3682 8.18555ZM81.5664 5.88184H80.0557V7.76855H81.4229C82.2568 7.76855 82.6738 7.44954 82.6738 6.81152C82.6738 6.5153 82.5781 6.28743 82.3867 6.12793C82.1953 5.96387 81.9219 5.88184 81.5664 5.88184ZM81.5186 8.80078H80.0557V10.9268H81.6826C82.1019 10.9268 82.4209 10.8379 82.6396 10.6602C82.8584 10.4779 82.9678 10.2135 82.9678 9.86719C82.9678 9.15625 82.4847 8.80078 81.5186 8.80078ZM78.5996 12V4.80859H81.8672C82.569 4.80859 83.1182 4.97266 83.5146 5.30078C83.9157 5.62435 84.1162 6.07096 84.1162 6.64062C84.1162 7.01432 83.9977 7.35156 83.7607 7.65234C83.5283 7.94857 83.2389 8.12858 82.8926 8.19238V8.24707C83.3574 8.31087 83.7311 8.49544 84.0137 8.80078C84.2962 9.10156 84.4375 9.47754 84.4375 9.92871C84.4375 10.5622 84.2096 11.0658 83.7539 11.4395C83.3027 11.8132 82.6875 12 81.9082 12H78.5996ZM87.2061 12H85.75V4.80859H87.2061V9.84668H87.2607L90.583 4.80859H92.0391V12H90.583V6.94824H90.5283L87.2061 12ZM96.209 12.1367C95.3659 12.1367 94.6732 11.943 94.1309 11.5557C93.5931 11.1683 93.2923 10.6442 93.2285 9.9834H94.6846C94.7575 10.2933 94.9261 10.5326 95.1904 10.7012C95.4548 10.8652 95.7943 10.9473 96.209 10.9473C96.6738 10.9473 97.0339 10.8493 97.2891 10.6533C97.5488 10.4574 97.6787 10.1976 97.6787 9.87402C97.6787 9.17676 97.1911 8.82812 96.2158 8.82812H95.1631V7.74121H96.1953C97.0339 7.74121 97.4531 7.42676 97.4531 6.79785C97.4531 6.51074 97.3483 6.28288 97.1387 6.11426C96.929 5.94108 96.6214 5.85449 96.2158 5.85449C95.8193 5.85449 95.4958 5.93424 95.2451 6.09375C94.9945 6.25326 94.8441 6.47428 94.7939 6.75684H93.3789C93.4564 6.11426 93.7458 5.6084 94.2471 5.23926C94.7529 4.86556 95.4069 4.67871 96.209 4.67871C97.0658 4.67871 97.7266 4.85645 98.1914 5.21191C98.6608 5.56283 98.8955 6.04362 98.8955 6.6543C98.8955 7.02344 98.7907 7.34928 98.5811 7.63184C98.3714 7.91439 98.0934 8.09896 97.7471 8.18555V8.24023C98.2028 8.34505 98.5492 8.53874 98.7861 8.82129C99.0277 9.10384 99.1484 9.45247 99.1484 9.86719C99.1484 10.5508 98.8796 11.0999 98.3418 11.5146C97.8086 11.9294 97.0977 12.1367 96.209 12.1367ZM101.903 12H100.447V4.80859H101.903V9.84668H101.958L105.28 4.80859H106.736V12H105.28V6.94824H105.226L101.903 12ZM113.791 4.80859V5.97754H111.535V12H110.065V5.97754H107.81V4.80859H113.791ZM121.276 12V4.80859H122.739V12H121.276ZM117.585 8.18555H116.341V10.8379H117.585C118.009 10.8379 118.346 10.7171 118.597 10.4756C118.852 10.2295 118.979 9.9082 118.979 9.51172C118.979 9.11068 118.852 8.78939 118.597 8.54785C118.341 8.30632 118.004 8.18555 117.585 8.18555ZM114.871 12V4.80859H116.341V7.03027H117.715C118.549 7.03027 119.212 7.25586 119.704 7.70703C120.201 8.15365 120.449 8.75521 120.449 9.51172C120.449 10.2728 120.201 10.8789 119.704 11.3301C119.212 11.7767 118.549 12 117.715 12H114.871Z" fill="#E11E26"/>
<path d="M137.646 12.3536C137.842 12.5488 138.158 12.5488 138.354 12.3536L141.536 9.17157C141.731 8.97631 141.731 8.65973 141.536 8.46447C141.34 8.2692 141.024 8.2692 140.828 8.46447L138 11.2929L135.172 8.46447C134.976 8.2692 134.66 8.2692 134.464 8.46447C134.269 8.65973 134.269 8.97631 134.464 9.17157L137.646 12.3536ZM137.5 2L137.5 12L138.5 12L138.5 2L137.5 2Z" fill="#E11E26"/>
</svg>
