<svg width="190" height="229" viewBox="0 0 190 229" fill="none" xmlns="http://www.w3.org/2000/svg">
<rect x="1" y="1" width="188" height="227" rx="5" fill="white" stroke="black" stroke-opacity="0.1"/>
<path d="M60.7441 128.185C63.5127 128.185 65.2285 126.209 65.2285 123.064C65.2285 119.94 63.4922 117.951 60.7441 117.951C58.5703 117.951 56.875 119.271 56.5469 121.239H58.085C58.4062 120.07 59.4658 119.312 60.7441 119.312C62.3369 119.312 63.4717 120.474 63.6221 122.326H59.4316V123.611H63.6426C63.5469 125.594 62.3984 126.824 60.7373 126.824C59.418 126.824 58.4336 126.182 58.085 125.081H56.5469C56.9707 127.036 58.5293 128.185 60.7441 128.185ZM70.4033 120.692C69.3643 120.692 68.5371 121.219 68.1133 122.046H68.0859V120.809H66.6572V130.379H68.1338V126.817H68.168C68.5781 127.617 69.3984 128.123 70.4307 128.123C72.2354 128.123 73.4316 126.681 73.4316 124.404C73.4316 122.128 72.2285 120.692 70.4033 120.692ZM70.0137 126.872C68.8789 126.872 68.127 125.901 68.127 124.404C68.127 122.921 68.8857 121.937 70.0137 121.937C71.1826 121.937 71.9141 122.9 71.9141 124.404C71.9141 125.915 71.1826 126.872 70.0137 126.872ZM77.6221 124.186L80.8076 120.809H79.0439L76.2275 123.885H76.1729V120.809H74.7031V128H76.1729V124.685H76.2275L79.0781 128H80.9307L77.6221 124.186ZM83.3096 128L86.6318 122.948H86.6865V128H88.1426V120.809H86.6865L83.3643 125.847H83.3096V120.809H81.8535V128H83.3096ZM94.4521 128H95.9219V120.809H94.4521V123.707H91.1982V120.809H89.7285V128H91.1982V124.869H94.4521V128ZM102.307 126.831H99.0459V126.776C99.374 126.312 99.5518 125.573 99.6064 124.726L99.8047 121.978H102.307V126.831ZM98.2188 129.887V128H103.523V129.887H104.891V126.831H103.776V120.809H98.5332L98.2734 124.664C98.2051 125.635 97.9658 126.503 97.4395 126.831H96.8584V129.887H98.2188ZM107.345 128L110.667 122.948H110.722V128H112.178V120.809H110.722L107.399 125.847H107.345V120.809H105.889V128H107.345ZM116.683 124.186L119.868 120.809H118.104L115.288 123.885H115.233V120.809H113.764V128H115.233V124.685H115.288L118.139 128H119.991L116.683 124.186ZM121.898 130.03L122.828 126.421H121.338L120.723 130.03H121.898ZM127.217 128H128.823L133.109 119.462V118.136H126.396V119.428H131.599V119.462L127.217 128Z" fill="#333333"/>
<path d="M64.1768 159.157C63.0602 159.157 62.1852 158.701 61.5518 157.79C60.9183 156.874 60.6016 155.632 60.6016 154.064C60.6016 152.506 60.9206 151.269 61.5586 150.353C62.1966 149.437 63.0693 148.979 64.1768 148.979C65.2887 148.979 66.1615 149.437 66.7949 150.353C67.4284 151.264 67.7451 152.499 67.7451 154.058C67.7451 155.625 67.4284 156.867 66.7949 157.783C66.1615 158.699 65.2887 159.157 64.1768 159.157ZM62.2422 157.188C62.707 157.954 63.3519 158.337 64.1768 158.337C65.0016 158.337 65.6465 157.954 66.1113 157.188C66.5762 156.423 66.8086 155.382 66.8086 154.064C66.8086 152.757 66.5739 151.72 66.1045 150.954C65.6396 150.188 64.9971 149.806 64.1768 149.806C63.361 149.806 62.7184 150.191 62.249 150.961C61.7796 151.731 61.5449 152.763 61.5449 154.058C61.5449 155.379 61.7773 156.423 62.2422 157.188ZM69.4541 159L74.0273 149.997V149.97H68.5381V149.136H74.9639V150.011L70.4453 159H69.4541ZM76.9873 159L81.5605 149.997V149.97H76.0713V149.136H82.4971V150.011L77.9785 159H76.9873ZM84.5205 159L89.0938 149.997V149.97H83.6045V149.136H90.0303V150.011L85.5117 159H84.5205ZM97.3789 159.157C96.5495 159.157 95.8454 158.929 95.2666 158.474C94.6878 158.013 94.3301 157.407 94.1934 156.655H95.1436C95.2666 157.157 95.5309 157.562 95.9365 157.872C96.3421 158.182 96.8252 158.337 97.3857 158.337C98.2653 158.337 98.9512 157.952 99.4434 157.182C99.9355 156.407 100.193 155.325 100.216 153.935C100.216 153.916 100.214 153.882 100.209 153.832C100.209 153.777 100.209 153.736 100.209 153.709H100.202H100.195C100.008 154.265 99.6462 154.718 99.1084 155.069C98.5706 155.42 97.9645 155.596 97.29 155.596C96.3512 155.596 95.5697 155.288 94.9453 154.673C94.3255 154.053 94.0156 153.281 94.0156 152.355C94.0156 151.38 94.3392 150.574 94.9863 149.936C95.6335 149.298 96.4515 148.979 97.4404 148.979C98.1058 148.979 98.6982 149.14 99.2178 149.464C99.7419 149.787 100.154 150.248 100.455 150.845C100.897 151.615 101.118 152.62 101.118 153.859C101.118 155.514 100.788 156.81 100.127 157.749C99.4661 158.688 98.5501 159.157 97.3789 159.157ZM97.4404 154.769C98.1468 154.769 98.7415 154.536 99.2246 154.071C99.7122 153.606 99.9561 153.041 99.9561 152.376C99.9561 151.66 99.7145 151.057 99.2314 150.564C98.7484 150.068 98.1536 149.819 97.4473 149.819C96.7454 149.819 96.1553 150.061 95.6768 150.544C95.1982 151.027 94.959 151.622 94.959 152.328C94.959 153.021 95.1937 153.602 95.6631 154.071C96.1325 154.536 96.7249 154.769 97.4404 154.769ZM105.917 159.157C104.8 159.157 103.925 158.701 103.292 157.79C102.659 156.874 102.342 155.632 102.342 154.064C102.342 152.506 102.661 151.269 103.299 150.353C103.937 149.437 104.81 148.979 105.917 148.979C107.029 148.979 107.902 149.437 108.535 150.353C109.169 151.264 109.485 152.499 109.485 154.058C109.485 155.625 109.169 156.867 108.535 157.783C107.902 158.699 107.029 159.157 105.917 159.157ZM103.982 157.188C104.447 157.954 105.092 158.337 105.917 158.337C106.742 158.337 107.387 157.954 107.852 157.188C108.316 156.423 108.549 155.382 108.549 154.064C108.549 152.757 108.314 151.72 107.845 150.954C107.38 150.188 106.737 149.806 105.917 149.806C105.101 149.806 104.459 150.191 103.989 150.961C103.52 151.731 103.285 152.763 103.285 154.058C103.285 155.379 103.518 156.423 103.982 157.188ZM113.751 151.897C113.756 151.059 114.056 150.364 114.653 149.812C115.255 149.257 116.007 148.979 116.909 148.979C117.771 148.979 118.497 149.238 119.09 149.758C119.682 150.277 119.979 150.915 119.979 151.672C119.979 152.21 119.828 152.731 119.527 153.237C119.231 153.739 118.673 154.415 117.853 155.268L115.104 158.139V158.166H120.231V159H113.799V158.344L117.285 154.659C117.992 153.916 118.461 153.349 118.693 152.957C118.93 152.565 119.049 152.155 119.049 151.727C119.049 151.189 118.839 150.733 118.42 150.359C118.001 149.986 117.488 149.799 116.882 149.799C116.248 149.799 115.72 149.999 115.296 150.4C114.877 150.797 114.662 151.296 114.653 151.897V151.904H113.751V151.897ZM121.626 151.897C121.631 151.059 121.931 150.364 122.528 149.812C123.13 149.257 123.882 148.979 124.784 148.979C125.646 148.979 126.372 149.238 126.965 149.758C127.557 150.277 127.854 150.915 127.854 151.672C127.854 152.21 127.703 152.731 127.402 153.237C127.106 153.739 126.548 154.415 125.728 155.268L122.979 158.139V158.166H128.106V159H121.674V158.344L125.16 154.659C125.867 153.916 126.336 153.349 126.568 152.957C126.805 152.565 126.924 152.155 126.924 151.727C126.924 151.189 126.714 150.733 126.295 150.359C125.876 149.986 125.363 149.799 124.757 149.799C124.123 149.799 123.595 149.999 123.171 150.4C122.752 150.797 122.537 151.296 122.528 151.897V151.904H121.626V151.897ZM134.313 154.304V153.511H135.462C136.104 153.511 136.629 153.333 137.034 152.978C137.44 152.622 137.643 152.169 137.643 151.617C137.643 151.075 137.449 150.637 137.062 150.305C136.679 149.967 136.159 149.799 135.503 149.799C134.892 149.799 134.386 149.967 133.985 150.305C133.584 150.642 133.359 151.084 133.309 151.631H132.406C132.465 150.838 132.78 150.198 133.35 149.71C133.924 149.222 134.655 148.979 135.544 148.979C136.414 148.979 137.139 149.218 137.718 149.696C138.297 150.17 138.586 150.772 138.586 151.501C138.586 152.116 138.401 152.633 138.032 153.053C137.663 153.472 137.162 153.739 136.528 153.853V153.88C137.285 153.925 137.886 154.167 138.333 154.604C138.784 155.037 139.01 155.603 139.01 156.3C139.01 156.847 138.859 157.339 138.559 157.776C138.258 158.214 137.848 158.553 137.328 158.795C136.809 159.036 136.232 159.157 135.599 159.157C134.614 159.157 133.81 158.904 133.186 158.398C132.561 157.893 132.233 157.241 132.201 156.443H133.104C133.14 156.999 133.386 157.455 133.842 157.811C134.302 158.161 134.885 158.337 135.592 158.337C136.307 158.337 136.897 158.148 137.362 157.77C137.827 157.391 138.06 156.91 138.06 156.327C138.06 155.698 137.832 155.204 137.376 154.844C136.92 154.484 136.296 154.304 135.503 154.304H134.313ZM145.196 159V156.771H140.192V155.917C141.204 154.217 142.719 151.952 144.738 149.122H146.105V155.944H147.575V156.771H146.105V159H145.196ZM141.136 155.917V155.944H145.196V149.942H145.183C143.524 152.239 142.175 154.231 141.136 155.917Z" fill="#333333"/>
<rect x="44.5" y="147.5" width="8" height="12" stroke="#333333"/>
<path d="M49 158C49 158.276 48.7761 158.5 48.5 158.5C48.2239 158.5 48 158.276 48 158C48 157.724 48.2239 157.5 48.5 157.5C48.7761 157.5 49 157.724 49 158Z" fill="#333333"/>
<path d="M64.1768 186.157C63.0602 186.157 62.1852 185.701 61.5518 184.79C60.9183 183.874 60.6016 182.632 60.6016 181.064C60.6016 179.506 60.9206 178.269 61.5586 177.353C62.1966 176.437 63.0693 175.979 64.1768 175.979C65.2887 175.979 66.1615 176.437 66.7949 177.353C67.4284 178.264 67.7451 179.499 67.7451 181.058C67.7451 182.625 67.4284 183.867 66.7949 184.783C66.1615 185.699 65.2887 186.157 64.1768 186.157ZM62.2422 184.188C62.707 184.954 63.3519 185.337 64.1768 185.337C65.0016 185.337 65.6465 184.954 66.1113 184.188C66.5762 183.423 66.8086 182.382 66.8086 181.064C66.8086 179.757 66.5739 178.72 66.1045 177.954C65.6396 177.188 64.9971 176.806 64.1768 176.806C63.361 176.806 62.7184 177.191 62.249 177.961C61.7796 178.731 61.5449 179.763 61.5449 181.058C61.5449 182.379 61.7773 183.423 62.2422 184.188ZM71.0811 181.304V180.511H72.2295C72.8721 180.511 73.3962 180.333 73.8018 179.978C74.2074 179.622 74.4102 179.169 74.4102 178.617C74.4102 178.075 74.2165 177.637 73.8291 177.305C73.4463 176.967 72.9268 176.799 72.2705 176.799C71.6598 176.799 71.154 176.967 70.7529 177.305C70.3519 177.642 70.1263 178.084 70.0762 178.631H69.1738C69.2331 177.838 69.5475 177.198 70.1172 176.71C70.6914 176.222 71.4229 175.979 72.3115 175.979C73.182 175.979 73.9066 176.218 74.4854 176.696C75.0641 177.17 75.3535 177.772 75.3535 178.501C75.3535 179.116 75.1689 179.633 74.7998 180.053C74.4307 180.472 73.9294 180.739 73.2959 180.853V180.88C74.0524 180.925 74.654 181.167 75.1006 181.604C75.5518 182.037 75.7773 182.603 75.7773 183.3C75.7773 183.847 75.627 184.339 75.3262 184.776C75.0254 185.214 74.6152 185.553 74.0957 185.795C73.5762 186.036 72.9997 186.157 72.3662 186.157C71.3818 186.157 70.5775 185.904 69.9531 185.398C69.3288 184.893 69.0007 184.241 68.9688 183.443H69.8711C69.9076 183.999 70.1536 184.455 70.6094 184.811C71.0697 185.161 71.653 185.337 72.3594 185.337C73.0749 185.337 73.665 185.148 74.1299 184.77C74.5947 184.391 74.8271 183.91 74.8271 183.327C74.8271 182.698 74.5993 182.204 74.1436 181.844C73.6878 181.484 73.0635 181.304 72.2705 181.304H71.0811ZM79.7217 186V177.141H79.6943C79.6305 177.182 79.1999 177.48 78.4023 178.036C77.6048 178.588 77.1536 178.895 77.0488 178.959V177.961C77.1309 177.911 77.5684 177.61 78.3613 177.059C79.1543 176.507 79.6032 176.2 79.708 176.136H80.624V186H79.7217ZM83.0166 178.897C83.0212 178.059 83.3219 177.364 83.9189 176.812C84.5205 176.257 85.2725 175.979 86.1748 175.979C87.0361 175.979 87.763 176.238 88.3555 176.758C88.9479 177.277 89.2441 177.915 89.2441 178.672C89.2441 179.21 89.0938 179.731 88.793 180.237C88.4967 180.739 87.9385 181.415 87.1182 182.268L84.3701 185.139V185.166H89.4971V186H83.0645V185.344L86.5508 181.659C87.2572 180.916 87.7266 180.349 87.959 179.957C88.196 179.565 88.3145 179.155 88.3145 178.727C88.3145 178.189 88.1048 177.733 87.6855 177.359C87.2663 176.986 86.7536 176.799 86.1475 176.799C85.514 176.799 84.9854 176.999 84.5615 177.4C84.1423 177.797 83.9281 178.296 83.9189 178.897V178.904H83.0166V178.897ZM96.8594 186.157C96.0299 186.157 95.3258 185.929 94.7471 185.474C94.1683 185.013 93.8105 184.407 93.6738 183.655H94.624C94.7471 184.157 95.0114 184.562 95.417 184.872C95.8226 185.182 96.3057 185.337 96.8662 185.337C97.7458 185.337 98.4316 184.952 98.9238 184.182C99.416 183.407 99.6735 182.325 99.6963 180.935C99.6963 180.916 99.694 180.882 99.6895 180.832C99.6895 180.777 99.6895 180.736 99.6895 180.709H99.6826H99.6758C99.4889 181.265 99.1266 181.718 98.5889 182.069C98.0511 182.42 97.445 182.596 96.7705 182.596C95.8317 182.596 95.0501 182.288 94.4258 181.673C93.806 181.053 93.4961 180.281 93.4961 179.355C93.4961 178.38 93.8197 177.574 94.4668 176.936C95.1139 176.298 95.932 175.979 96.9209 175.979C97.5863 175.979 98.1787 176.14 98.6982 176.464C99.2223 176.787 99.6348 177.248 99.9355 177.845C100.378 178.615 100.599 179.62 100.599 180.859C100.599 182.514 100.268 183.81 99.6074 184.749C98.9466 185.688 98.0306 186.157 96.8594 186.157ZM96.9209 181.769C97.6273 181.769 98.222 181.536 98.7051 181.071C99.1927 180.606 99.4365 180.041 99.4365 179.376C99.4365 178.66 99.195 178.057 98.7119 177.564C98.2288 177.068 97.6341 176.819 96.9277 176.819C96.2259 176.819 95.6357 177.061 95.1572 177.544C94.6787 178.027 94.4395 178.622 94.4395 179.328C94.4395 180.021 94.6742 180.602 95.1436 181.071C95.613 181.536 96.2054 181.769 96.9209 181.769ZM105.397 186.157C104.281 186.157 103.406 185.701 102.772 184.79C102.139 183.874 101.822 182.632 101.822 181.064C101.822 179.506 102.141 178.269 102.779 177.353C103.417 176.437 104.29 175.979 105.397 175.979C106.509 175.979 107.382 176.437 108.016 177.353C108.649 178.264 108.966 179.499 108.966 181.058C108.966 182.625 108.649 183.867 108.016 184.783C107.382 185.699 106.509 186.157 105.397 186.157ZM103.463 184.188C103.928 184.954 104.573 185.337 105.397 185.337C106.222 185.337 106.867 184.954 107.332 184.188C107.797 183.423 108.029 182.382 108.029 181.064C108.029 179.757 107.795 178.72 107.325 177.954C106.86 177.188 106.218 176.806 105.397 176.806C104.582 176.806 103.939 177.191 103.47 177.961C103 178.731 102.766 179.763 102.766 181.058C102.766 182.379 102.998 183.423 103.463 184.188ZM113.231 178.897C113.236 178.059 113.537 177.364 114.134 176.812C114.735 176.257 115.487 175.979 116.39 175.979C117.251 175.979 117.978 176.238 118.57 176.758C119.163 177.277 119.459 177.915 119.459 178.672C119.459 179.21 119.309 179.731 119.008 180.237C118.712 180.739 118.153 181.415 117.333 182.268L114.585 185.139V185.166H119.712V186H113.279V185.344L116.766 181.659C117.472 180.916 117.941 180.349 118.174 179.957C118.411 179.565 118.529 179.155 118.529 178.727C118.529 178.189 118.32 177.733 117.9 177.359C117.481 176.986 116.968 176.799 116.362 176.799C115.729 176.799 115.2 176.999 114.776 177.4C114.357 177.797 114.143 178.296 114.134 178.897V178.904H113.231V178.897ZM121.106 178.897C121.111 178.059 121.412 177.364 122.009 176.812C122.61 176.257 123.362 175.979 124.265 175.979C125.126 175.979 125.853 176.238 126.445 176.758C127.038 177.277 127.334 177.915 127.334 178.672C127.334 179.21 127.184 179.731 126.883 180.237C126.587 180.739 126.028 181.415 125.208 182.268L122.46 185.139V185.166H127.587V186H121.154V185.344L124.641 181.659C125.347 180.916 125.816 180.349 126.049 179.957C126.286 179.565 126.404 179.155 126.404 178.727C126.404 178.189 126.195 177.733 125.775 177.359C125.356 176.986 124.843 176.799 124.237 176.799C123.604 176.799 123.075 176.999 122.651 177.4C122.232 177.797 122.018 178.296 122.009 178.897V178.904H121.106V178.897ZM133.794 181.304V180.511H134.942C135.585 180.511 136.109 180.333 136.515 179.978C136.92 179.622 137.123 179.169 137.123 178.617C137.123 178.075 136.929 177.637 136.542 177.305C136.159 176.967 135.64 176.799 134.983 176.799C134.373 176.799 133.867 176.967 133.466 177.305C133.065 177.642 132.839 178.084 132.789 178.631H131.887C131.946 177.838 132.26 177.198 132.83 176.71C133.404 176.222 134.136 175.979 135.024 175.979C135.895 175.979 136.619 176.218 137.198 176.696C137.777 177.17 138.066 177.772 138.066 178.501C138.066 179.116 137.882 179.633 137.513 180.053C137.144 180.472 136.642 180.739 136.009 180.853V180.88C136.765 180.925 137.367 181.167 137.813 181.604C138.265 182.037 138.49 182.603 138.49 183.3C138.49 183.847 138.34 184.339 138.039 184.776C137.738 185.214 137.328 185.553 136.809 185.795C136.289 186.036 135.713 186.157 135.079 186.157C134.095 186.157 133.29 185.904 132.666 185.398C132.042 184.893 131.714 184.241 131.682 183.443H132.584C132.62 183.999 132.867 184.455 133.322 184.811C133.783 185.161 134.366 185.337 135.072 185.337C135.788 185.337 136.378 185.148 136.843 184.77C137.308 184.391 137.54 183.91 137.54 183.327C137.54 182.698 137.312 182.204 136.856 181.844C136.401 181.484 135.776 181.304 134.983 181.304H133.794ZM144.677 186V183.771H139.673V182.917C140.685 181.217 142.2 178.952 144.219 176.122H145.586V182.944H147.056V183.771H145.586V186H144.677ZM140.616 182.917V182.944H144.677V176.942H144.663C143.004 179.239 141.655 181.231 140.616 182.917Z" fill="#333333"/>
<path d="M47.2604 181.374C47.8509 182.172 48.6075 182.829 49.4772 183.3L50.8544 182.473C50.8946 182.452 50.9401 182.444 50.9848 182.451C51.0294 182.457 51.0712 182.476 51.1044 182.507L53.2024 184.322C53.2826 184.387 53.3466 184.47 53.3895 184.564C53.4323 184.659 53.4528 184.762 53.4493 184.866C53.4458 184.97 53.4184 185.072 53.3692 185.163C53.3201 185.255 53.2506 185.334 53.1662 185.393C53.0818 185.453 52.0117 186.285 51.9394 186.323C51.8671 186.36 51.8671 186.36 51.6875 186.447C51.4706 186.481 51.292 186.439 51.0855 186.365C49.0245 185.631 47.211 184.327 45.8521 182.6C44.5301 180.863 43.7367 178.775 43.5682 176.588C43.5518 176.37 43.5309 176.244 43.554 176.078C43.5762 175.912 43.5995 175.746 43.7025 175.607C43.8056 175.469 44.9706 174.67 44.9706 174.67C45.0497 174.608 45.1417 174.564 45.2397 174.543C45.3377 174.522 45.4392 174.523 45.5365 174.547C45.6339 174.57 45.7246 174.616 45.8018 174.68C45.8791 174.744 45.9409 174.826 45.9827 174.917L47.2014 177.424C47.2229 177.464 47.2312 177.51 47.2251 177.555C47.2189 177.599 47.1987 177.641 47.1673 177.674L45.9891 178.762C46.2153 179.718 46.6496 180.61 47.2604 181.374Z" fill="#333333"/>
<path fill-rule="evenodd" clip-rule="evenodd" d="M94.5795 76C101.527 76 107.159 60.0855 107.159 53.2951C107.159 46.5047 101.527 41 94.5795 41C87.632 41 82 46.5047 82 53.2951C82 60.0855 87.632 76 94.5795 76ZM94.5743 58.5416C97.5385 58.5416 99.9415 56.1929 99.9415 53.2957C99.9415 50.3985 97.5385 48.0498 94.5743 48.0498C91.61 48.0498 89.207 50.3985 89.207 53.2957C89.207 56.1929 91.61 58.5416 94.5743 58.5416Z" fill="#EA5A5A"/>
</svg>
