<svg width="189" height="212" viewBox="0 0 189 212" fill="none" xmlns="http://www.w3.org/2000/svg">
<rect width="189" height="212" rx="4.00424" fill="white"/>
<path d="M51.1055 180H52.623V170.136H51.1328L46.1084 177.58H46.0059V170.136H44.4883V180H45.9785L51.0029 172.576H51.1055V180ZM59.1582 173.978V172.809H54.3936V180H55.8633V173.978H59.1582ZM64.1484 172.692C63.1094 172.692 62.2822 173.219 61.8584 174.046H61.8311V172.809H60.4023V182.379H61.8789V178.817H61.9131C62.3232 179.617 63.1436 180.123 64.1758 180.123C65.9805 180.123 67.1768 178.681 67.1768 176.404C67.1768 174.128 65.9736 172.692 64.1484 172.692ZM63.7588 178.872C62.624 178.872 61.8721 177.901 61.8721 176.404C61.8721 174.921 62.6309 173.937 63.7588 173.937C64.9277 173.937 65.6592 174.9 65.6592 176.404C65.6592 177.915 64.9277 178.872 63.7588 178.872ZM74.8535 180H76.3164V172.809H74.8535V180ZM71.1621 176.186C72.0029 176.186 72.5566 176.712 72.5566 177.512C72.5566 178.305 72.0098 178.838 71.1621 178.838H69.918V176.186H71.1621ZM68.4482 180H71.292C72.9531 180 74.0264 179.036 74.0264 177.512C74.0264 175.994 72.9531 175.03 71.292 175.03H69.918V172.809H68.4482V180ZM82.209 180L85.5312 174.948H85.5859V180H87.042V172.809H85.5859L82.2637 177.847H82.209V172.809H80.7529V180H82.209ZM92.9277 180L96.25 174.948H96.3047V180H97.7607V172.809H96.3047L92.9824 177.847H92.9277V172.809H91.4717V180H92.9277ZM104.111 173.978V172.809H99.3467V180H100.816V173.978H104.111ZM109.102 172.692C108.062 172.692 107.235 173.219 106.812 174.046H106.784V172.809H105.355V182.379H106.832V178.817H106.866C107.276 179.617 108.097 180.123 109.129 180.123C110.934 180.123 112.13 178.681 112.13 176.404C112.13 174.128 110.927 172.692 109.102 172.692ZM108.712 178.872C107.577 178.872 106.825 177.901 106.825 176.404C106.825 174.921 107.584 173.937 108.712 173.937C109.881 173.937 110.612 174.9 110.612 176.404C110.612 177.915 109.881 178.872 108.712 178.872ZM113.928 182.68C115.425 182.68 116.129 182.119 116.744 180.376L119.444 172.809H117.886L116.061 178.66H116.04L114.215 172.809H112.615L115.213 180.007C115.213 180.014 115.083 180.438 115.083 180.451C114.857 181.189 114.495 181.477 113.805 181.477C113.682 181.477 113.436 181.477 113.326 181.449V182.646C113.436 182.666 113.812 182.68 113.928 182.68ZM120.429 180H129.664V172.809H128.194V178.831H125.781V172.809H124.312V178.831H121.898V172.809H120.429V180ZM134.176 176.186L137.361 172.809H135.598L132.781 175.885H132.727V172.809H131.257V180H132.727V176.685H132.781L135.632 180H137.484L134.176 176.186ZM139.863 180L143.186 174.948H143.24V180H144.696V172.809H143.24L139.918 177.847H139.863V172.809H138.407V180H139.863Z" fill="#333333"/>
<line x1="129" y1="39.5" x2="149" y2="39.5" stroke="#333333" stroke-dasharray="1 6"/>
<line x1="40" y1="129.5" x2="60" y2="129.5" stroke="#333333" stroke-dasharray="1 6"/>
</svg>
