<svg width="189" height="212" viewBox="0 0 189 212" fill="none" xmlns="http://www.w3.org/2000/svg">
<rect width="189" height="212" rx="4.00424" fill="white"/>
<path d="M60.7852 166.185C63 166.185 64.5244 165.036 64.9482 163.081H63.4102C63.0615 164.182 62.1113 164.824 60.792 164.824C58.9805 164.824 57.832 163.368 57.832 161.064C57.832 158.781 58.9941 157.312 60.7852 157.312C62.0635 157.312 63.0889 158.07 63.4102 159.239H64.9482C64.6201 157.271 62.959 155.951 60.7852 155.951C58.0303 155.951 56.2666 157.94 56.2666 161.064C56.2666 164.209 58.0166 166.185 60.7852 166.185ZM67.0127 168.68C68.5098 168.68 69.2139 168.119 69.8291 166.376L72.5293 158.809H70.9707L69.1455 164.66H69.125L67.2998 158.809H65.7002L68.2979 166.007C68.2979 166.014 68.168 166.438 68.168 166.451C67.9424 167.189 67.5801 167.477 66.8896 167.477C66.7666 167.477 66.5205 167.477 66.4111 167.449V168.646C66.5205 168.666 66.8965 168.68 67.0127 168.68ZM76.4805 159.882C77.1982 159.882 77.5879 160.217 77.5879 160.812C77.5879 161.447 77.1709 161.769 76.3369 161.769H74.9697V159.882H76.4805ZM76.4326 162.801C77.4033 162.801 77.8818 163.156 77.8818 163.867C77.8818 164.558 77.4307 164.927 76.5967 164.927H74.9697V162.801H76.4326ZM73.5137 166H76.8223C78.3809 166 79.3516 165.193 79.3516 163.929C79.3516 163.026 78.7363 162.37 77.8066 162.247V162.192C78.4971 162.062 79.0303 161.386 79.0303 160.641C79.0303 159.506 78.1826 158.809 76.7812 158.809H73.5137V166ZM83.6787 159.868C84.7109 159.868 85.4082 160.641 85.4424 161.741H81.8467C81.9219 160.654 82.6465 159.868 83.6787 159.868ZM85.4355 163.888C85.2373 164.517 84.6152 164.94 83.7744 164.94C82.5918 164.94 81.8398 164.113 81.8398 162.862V162.773H86.9189V162.268C86.9189 160.087 85.6748 158.679 83.6787 158.679C81.6484 158.679 80.3496 160.183 80.3496 162.438C80.3496 164.708 81.6279 166.137 83.7402 166.137C85.3877 166.137 86.6318 165.2 86.8369 163.888H85.4355ZM92.9072 166H94.377V158.809H92.9072V161.707H89.6533V158.809H88.1836V166H89.6533V162.869H92.9072V166ZM97.4326 166L100.755 160.948H100.81V166H102.266V158.809H100.81L97.4873 163.847H97.4326V158.809H95.9766V166H97.4326ZM107.604 158.692C106.565 158.692 105.738 159.219 105.314 160.046H105.287V158.809H103.858V168.379H105.335V164.817H105.369C105.779 165.617 106.6 166.123 107.632 166.123C109.437 166.123 110.633 164.681 110.633 162.404C110.633 160.128 109.43 158.692 107.604 158.692ZM107.215 164.872C106.08 164.872 105.328 163.901 105.328 162.404C105.328 160.921 106.087 159.937 107.215 159.937C108.384 159.937 109.115 160.9 109.115 162.404C109.115 163.915 108.384 164.872 107.215 164.872ZM116.628 166H118.098V158.809H116.628V161.707H113.374V158.809H111.904V166H113.374V162.869H116.628V166ZM122.22 164.954C121.427 164.954 120.907 164.544 120.907 163.915C120.907 163.3 121.406 162.91 122.288 162.849L124.059 162.739V163.307C124.059 164.243 123.252 164.954 122.22 164.954ZM121.81 166.123C122.753 166.123 123.662 165.617 124.079 164.817H124.113V166H125.528V161.044C125.528 159.602 124.414 158.679 122.671 158.679C120.894 158.679 119.786 159.636 119.704 160.935H121.099C121.229 160.292 121.762 159.882 122.616 159.882C123.519 159.882 124.059 160.36 124.059 161.16V161.714L122.09 161.83C120.381 161.926 119.417 162.698 119.417 163.956C119.417 165.248 120.401 166.123 121.81 166.123ZM129.808 162.397C128.974 162.397 128.427 161.912 128.427 161.229C128.427 160.449 128.967 159.971 129.808 159.971H131.113V162.397H129.808ZM131.113 166H132.562V158.809H129.732C128.051 158.809 126.957 159.738 126.957 161.235C126.957 162.24 127.572 162.985 128.57 163.279L126.608 166H128.276L130.02 163.532H131.113V166ZM65.3447 180H66.8213V172.809H60.6895V180H62.1592V173.978H65.3447V180ZM72.167 172.692C71.1279 172.692 70.3008 173.219 69.877 174.046H69.8496V172.809H68.4209V182.379H69.8975V178.817H69.9316C70.3418 179.617 71.1621 180.123 72.1943 180.123C73.999 180.123 75.1953 178.681 75.1953 176.404C75.1953 174.128 73.9922 172.692 72.167 172.692ZM71.7773 178.872C70.6426 178.872 69.8906 177.901 69.8906 176.404C69.8906 174.921 70.6494 173.937 71.7773 173.937C72.9463 173.937 73.6777 174.9 73.6777 176.404C73.6777 177.915 72.9463 178.872 71.7773 178.872ZM79.5635 180.137C81.6211 180.137 82.9746 178.722 82.9746 176.404C82.9746 174.094 81.6143 172.679 79.5635 172.679C77.5127 172.679 76.1523 174.094 76.1523 176.404C76.1523 178.722 77.5059 180.137 79.5635 180.137ZM79.5635 178.92C78.4082 178.92 77.6562 178.004 77.6562 176.404C77.6562 174.812 78.4082 173.896 79.5635 173.896C80.7188 173.896 81.4707 174.812 81.4707 176.404C81.4707 178.004 80.7256 178.92 79.5635 178.92ZM88.9082 178.831H85.6475V178.776C85.9756 178.312 86.1533 177.573 86.208 176.726L86.4062 173.978H88.9082V178.831ZM84.8203 181.887V180H90.125V181.887H91.4922V178.831H90.3779V172.809H85.1348L84.875 176.664C84.8066 177.635 84.5674 178.503 84.041 178.831H83.46V181.887H84.8203ZM93.0986 182.68C94.5957 182.68 95.2998 182.119 95.915 180.376L98.6152 172.809H97.0566L95.2314 178.66H95.2109L93.3857 172.809H91.7861L94.3838 180.007C94.3838 180.014 94.2539 180.438 94.2539 180.451C94.0283 181.189 93.666 181.477 92.9756 181.477C92.8525 181.477 92.6064 181.477 92.4971 181.449V182.646C92.6064 182.666 92.9824 182.68 93.0986 182.68ZM102.519 176.186L105.704 172.809H103.94L101.124 175.885H101.069V172.809H99.5996V180H101.069V176.685H101.124L103.975 180H105.827L102.519 176.186ZM113.948 181.887V178.831H112.827V172.809H111.357V178.831H108.22V172.809H106.75V180H112.588V181.887H113.948ZM116.409 180L119.731 174.948H119.786V180H121.242V172.809H119.786L116.464 177.847H116.409V172.809H114.953V180H116.409ZM125.556 176.397C124.722 176.397 124.175 175.912 124.175 175.229C124.175 174.449 124.715 173.971 125.556 173.971H126.861V176.397H125.556ZM126.861 180H128.311V172.809H125.48C123.799 172.809 122.705 173.738 122.705 175.235C122.705 176.24 123.32 176.985 124.318 177.279L122.356 180H124.024L125.768 177.532H126.861V180Z" fill="#333333"/>
<line x1="129" y1="39.5" x2="149" y2="39.5" stroke="#333333" stroke-dasharray="1 6"/>
<line x1="40" y1="129.5" x2="60" y2="129.5" stroke="#333333" stroke-dasharray="1 6"/>
</svg>
