<svg width="189" height="212" viewBox="0 0 189 212" fill="none" xmlns="http://www.w3.org/2000/svg">
<rect width="189" height="212" rx="4.00424" fill="white"/>
<path d="M39.9844 166H41.6797L44.168 162.24H44.2158L46.6699 166H48.4609L45.1797 161.105V161.064L48.5225 156.136H46.793L44.332 159.95H44.2773L41.8438 156.136H40.0186L43.2588 161.01V161.058L39.9844 166ZM50.1084 168.68C51.6055 168.68 52.3096 168.119 52.9248 166.376L55.625 158.809H54.0664L52.2412 164.66H52.2207L50.3955 158.809H48.7959L51.3936 166.007C51.3936 166.014 51.2637 166.438 51.2637 166.451C51.0381 167.189 50.6758 167.477 49.9854 167.477C49.8623 167.477 49.6162 167.477 49.5068 167.449V168.646C49.6162 168.666 49.9922 168.68 50.1084 168.68ZM61.1484 164.831H57.8877V164.776C58.2158 164.312 58.3936 163.573 58.4482 162.726L58.6465 159.978H61.1484V164.831ZM57.0605 167.887V166H62.3652V167.887H63.7324V164.831H62.6182V158.809H57.375L57.1152 162.664C57.0469 163.635 56.8076 164.503 56.2812 164.831H55.7002V167.887H57.0605ZM67.8271 166.137C69.8848 166.137 71.2383 164.722 71.2383 162.404C71.2383 160.094 69.8779 158.679 67.8271 158.679C65.7764 158.679 64.416 160.094 64.416 162.404C64.416 164.722 65.7695 166.137 67.8271 166.137ZM67.8271 164.92C66.6719 164.92 65.9199 164.004 65.9199 162.404C65.9199 160.812 66.6719 159.896 67.8271 159.896C68.9824 159.896 69.7344 160.812 69.7344 162.404C69.7344 164.004 68.9893 164.92 67.8271 164.92ZM78.9219 162.186L81.8682 158.809H80.125L77.5137 161.885H77.459V158.809H76.0029V161.885H75.9551L73.3438 158.809H71.5869L74.5537 162.213L71.5049 166H73.3096L75.9551 162.685H76.0029V166H77.459V162.685H77.5137L80.1592 166H81.9912L78.9219 162.186ZM85.6963 159.868C86.7285 159.868 87.4258 160.641 87.46 161.741H83.8643C83.9395 160.654 84.6641 159.868 85.6963 159.868ZM87.4531 163.888C87.2549 164.517 86.6328 164.94 85.792 164.94C84.6094 164.94 83.8574 164.113 83.8574 162.862V162.773H88.9365V162.268C88.9365 160.087 87.6924 158.679 85.6963 158.679C83.666 158.679 82.3672 160.183 82.3672 162.438C82.3672 164.708 83.6455 166.137 85.7578 166.137C87.4053 166.137 88.6494 165.2 88.8545 163.888H87.4531ZM96.3398 161.112C96.1348 159.786 95.0273 158.679 93.25 158.679C91.2061 158.679 89.8799 160.148 89.8799 162.404C89.8799 164.708 91.2061 166.137 93.2637 166.137C94.959 166.137 96.1416 165.152 96.3535 163.71H94.9316C94.7266 164.462 94.1523 164.899 93.2773 164.899C92.1289 164.899 91.377 163.963 91.377 162.404C91.377 160.887 92.1221 159.909 93.2637 159.909C94.1797 159.909 94.7266 160.449 94.918 161.112H96.3398ZM102.861 158.809H96.8799V159.978H99.1357V166H100.605V159.978H102.861V158.809ZM106.908 159.882C107.626 159.882 108.016 160.217 108.016 160.812C108.016 161.447 107.599 161.769 106.765 161.769H105.397V159.882H106.908ZM106.86 162.801C107.831 162.801 108.31 163.156 108.31 163.867C108.31 164.558 107.858 164.927 107.024 164.927H105.397V162.801H106.86ZM103.941 166H107.25C108.809 166 109.779 165.193 109.779 163.929C109.779 163.026 109.164 162.37 108.234 162.247V162.192C108.925 162.062 109.458 161.386 109.458 160.641C109.458 159.506 108.61 158.809 107.209 158.809H103.941V166ZM114.106 159.868C115.139 159.868 115.836 160.641 115.87 161.741H112.274C112.35 160.654 113.074 159.868 114.106 159.868ZM115.863 163.888C115.665 164.517 115.043 164.94 114.202 164.94C113.02 164.94 112.268 164.113 112.268 162.862V162.773H117.347V162.268C117.347 160.087 116.103 158.679 114.106 158.679C112.076 158.679 110.777 160.183 110.777 162.438C110.777 164.708 112.056 166.137 114.168 166.137C115.815 166.137 117.06 165.2 117.265 163.888H115.863ZM123.335 166H124.805V158.809H123.335V161.707H120.081V158.809H118.611V166H120.081V162.869H123.335V166ZM131.128 166H132.598V158.809H131.128V161.707H127.874V158.809H126.404V166H127.874V162.869H131.128V166ZM140.603 166H142.065V158.809H140.603V166ZM136.911 162.186C137.752 162.186 138.306 162.712 138.306 163.512C138.306 164.305 137.759 164.838 136.911 164.838H135.667V162.186H136.911ZM134.197 166H137.041C138.702 166 139.775 165.036 139.775 163.512C139.775 161.994 138.702 161.03 137.041 161.03H135.667V158.809H134.197V166ZM146.673 159.868C147.705 159.868 148.402 160.641 148.437 161.741H144.841C144.916 160.654 145.641 159.868 146.673 159.868ZM148.43 163.888C148.231 164.517 147.609 164.94 146.769 164.94C145.586 164.94 144.834 164.113 144.834 162.862V162.773H149.913V162.268C149.913 160.087 148.669 158.679 146.673 158.679C144.643 158.679 143.344 160.183 143.344 162.438C143.344 164.708 144.622 166.137 146.734 166.137C148.382 166.137 149.626 165.2 149.831 163.888H148.43ZM78.1426 172.809H72.1611V173.978H74.417V180H75.8867V173.978H78.1426V172.809ZM82.1826 180.137C84.2402 180.137 85.5938 178.722 85.5938 176.404C85.5938 174.094 84.2334 172.679 82.1826 172.679C80.1318 172.679 78.7715 174.094 78.7715 176.404C78.7715 178.722 80.125 180.137 82.1826 180.137ZM82.1826 178.92C81.0273 178.92 80.2754 178.004 80.2754 176.404C80.2754 174.812 81.0273 173.896 82.1826 173.896C83.3379 173.896 84.0898 174.812 84.0898 176.404C84.0898 178.004 83.3447 178.92 82.1826 178.92ZM89.832 173.882C90.5498 173.882 90.9395 174.217 90.9395 174.812C90.9395 175.447 90.5225 175.769 89.6885 175.769H88.3213V173.882H89.832ZM89.7842 176.801C90.7549 176.801 91.2334 177.156 91.2334 177.867C91.2334 178.558 90.7822 178.927 89.9482 178.927H88.3213V176.801H89.7842ZM86.8652 180H90.1738C91.7324 180 92.7031 179.193 92.7031 177.929C92.7031 177.026 92.0879 176.37 91.1582 176.247V176.192C91.8486 176.062 92.3818 175.386 92.3818 174.641C92.3818 173.506 91.5342 172.809 90.1328 172.809H86.8652V180ZM96.5381 178.954C95.7451 178.954 95.2256 178.544 95.2256 177.915C95.2256 177.3 95.7246 176.91 96.6064 176.849L98.377 176.739V177.307C98.377 178.243 97.5703 178.954 96.5381 178.954ZM96.1279 180.123C97.0713 180.123 97.9805 179.617 98.3975 178.817H98.4316V180H99.8467V175.044C99.8467 173.602 98.7324 172.679 96.9893 172.679C95.2119 172.679 94.1045 173.636 94.0225 174.935H95.417C95.5469 174.292 96.0801 173.882 96.9346 173.882C97.8369 173.882 98.377 174.36 98.377 175.16V175.714L96.4082 175.83C94.6992 175.926 93.7354 176.698 93.7354 177.956C93.7354 179.248 94.7197 180.123 96.1279 180.123ZM105.151 172.692C104.112 172.692 103.285 173.219 102.861 174.046H102.834V172.809H101.405V182.379H102.882V178.817H102.916C103.326 179.617 104.146 180.123 105.179 180.123C106.983 180.123 108.18 178.681 108.18 176.404C108.18 174.128 106.977 172.692 105.151 172.692ZM104.762 178.872C103.627 178.872 102.875 177.901 102.875 176.404C102.875 174.921 103.634 173.937 104.762 173.937C105.931 173.937 106.662 174.9 106.662 176.404C106.662 177.915 105.931 178.872 104.762 178.872ZM115.856 180H117.319V172.809H115.856V180ZM112.165 176.186C113.006 176.186 113.56 176.712 113.56 177.512C113.56 178.305 113.013 178.838 112.165 178.838H110.921V176.186H112.165ZM109.451 180H112.295C113.956 180 115.029 179.036 115.029 177.512C115.029 175.994 113.956 175.03 112.295 175.03H110.921V172.809H109.451V180Z" fill="#333333"/>
<line x1="40.5" y1="88" x2="40.5" y2="128" stroke="#333333" stroke-dasharray="1 6"/>
<rect x="126" y="81.7573" width="6" height="6" transform="rotate(45 126 81.7573)" fill="#F7F0F0"/>
<line x1="149.5" y1="40" x2="149.5" y2="80" stroke="#333333" stroke-dasharray="1 6"/>
<path d="M132.167 88.9751C132.167 109.494 115.601 124.93 95.1654 124.93C74.7297 124.93 58.1633 108.296 58.1633 87.7766C58.1633 67.2574 74.7297 50.6233 95.1654 50.6233C98.6835 50.6233 102.924 51.007 105.311 53.0203C115.457 63.2075 95.1654 65.6044 105.311 76.9901C115.457 88.3758 119.038 69.7992 127.393 74.5931C132.523 77.5364 132.167 84.7815 132.167 88.9751Z" fill="#EADDDD"/>
<circle cx="71.6639" cy="73.9337" r="6.56586" fill="white"/>
<circle cx="69.286" cy="91.768" r="6.56586" fill="white"/>
<ellipse cx="78.7967" cy="107.371" rx="6.56586" ry="6.71448" fill="white"/>
<circle cx="97.3203" cy="112.801" r="6.71448" fill="white"/>
<path d="M125.473 124.337L101.114 90.7955L88.1828 71.2343L87.6747 70.4657L78.704 57.5778C76.6858 56.8513 75.3165 54.2169 73.7151 51.6417C71.809 48.5766 70.2229 43.0697 70.2229 43.0697C70.2229 43.0697 74.8191 46.2082 77.2073 49.1205C79.0636 51.3843 81.3882 53.4536 81.4972 55.6015L90.6519 68.3242L91.1762 69.0528L105.038 88.3171L128.088 122.354C128.088 122.354 128.507 123.095 128.088 123.814C127.984 123.994 127.827 124.172 127.598 124.337C126.453 125.163 125.473 124.337 125.473 124.337Z" fill="#EA5A5A"/>
<path d="M79.0058 58.0167L81.799 56.0405" stroke="#333333" stroke-width="1.02326"/>
<path d="M87.6745 70.4655L90.6517 68.3241" stroke="#333333" stroke-width="1.02326"/>
</svg>
