<svg width="280" height="208" viewBox="0 0 280 208" fill="none" xmlns="http://www.w3.org/2000/svg">
<path d="M36.1947 0.866666C30.9807 1.1131 19.9948 6.84106 17.7627 27.7813L9.89964 101.548L0.641522 188.403L177.014 207.203L182.024 160.206L188.572 98.7743L253.676 105.714C265.117 106.933 276.465 86.8981 278.251 70.142C280.037 53.3859 272.963 33.3244 261.522 32.1049L225.816 28.2989C224.741 22.6427 218.374 19.3926 212.568 19.6668L36.1947 0.866666Z" fill="#EADDDD"/>
<path d="M212.568 19.6668L36.1947 0.866666C30.9807 1.1131 19.9948 6.84106 17.7627 27.7813C16.6186 38.5142 13.4045 68.6675 9.89963 101.548M212.568 19.6668C209.88 19.7939 205.659 21.3771 201.894 25.749M212.568 19.6668C218.374 19.3926 224.741 22.6427 225.816 28.2989M201.894 25.749C198.354 29.8592 195.217 36.4343 194.136 46.5815L188.572 98.7743M201.894 25.749L261.522 32.1049C272.963 33.3244 280.037 53.3859 278.251 70.142C276.465 86.8981 265.117 106.933 253.676 105.714L188.572 98.7743M188.572 98.7743L182.024 160.206M182.024 160.206L177.014 207.203L0.641516 188.403C2.9701 166.557 6.56634 132.819 9.89963 101.548M182.024 160.206L150.973 120.196L131.251 136.745L90.0325 85.4221M9.89963 101.548L38.0761 78.6806M90.0325 85.4221L66.2526 55.8129L38.0761 78.6806M90.0325 85.4221L70.3745 101.376L59.2772 87.5586L50.7587 94.4721L38.0761 78.6806M168.792 172.032L135.648 168.499M127.954 167.679L16.6849 155.819" stroke="white"/>
</svg>
