<svg width="82" height="79" viewBox="0 0 82 79" fill="none" xmlns="http://www.w3.org/2000/svg">
<path d="M77.4532 27.6723V77.5212H47.0333H35.0963H4.54802V27.6723H0.954102V15.913H35.0963H40.2305C40.2308 15.9124 40.2311 15.9118 40.2314 15.9111C40.2314 15.911 40.2315 15.9109 40.2316 15.9108C34.512 15.9069 27.5124 15.8648 24.828 15.4005C22.3893 14.9787 21.1057 13.6118 19.6938 10.7991C18.2819 7.98633 20.3674 4.15259 20.9774 3.51279C28.3374 -4.20688 36.9463 6.6322 41.0653 14.2831C45.1847 6.6323 53.7928 -4.20445 61.1522 3.51461C61.7622 4.15441 63.8477 7.98815 62.4358 10.8009C61.0239 13.6136 59.7403 14.9805 57.3016 15.4024C54.3495 15.913 46.1786 15.913 40.2306 15.913H47.0333H81.0471V27.6723H77.4532Z" fill="#EADDDD"/>
<path d="M4.54802 27.6723V77.5212H35.0963M4.54802 27.6723H0.954102V15.913H35.0963M4.54802 27.6723H35.0963M77.4532 27.6723V77.5212H47.0333M77.4532 27.6723H81.0471V15.913H47.0333M77.4532 27.6723H47.0333M35.0963 15.913V27.6723M35.0963 15.913H40.2305M35.0963 77.5212H47.0333M35.0963 77.5212V27.6723M47.0333 15.913V27.6723M47.0333 15.913H40.2305M47.0333 77.5212V27.6723M40.2305 15.913C43.91 8.32909 53.2508 -4.77292 61.1522 3.51461C61.7622 4.15441 63.8477 7.98815 62.4358 10.8009C61.0239 13.6136 59.7403 14.9805 57.3016 15.4024C54.3495 15.913 46.1785 15.913 40.2305 15.913ZM35.0963 15.9111H41.8991M41.8991 15.9111C38.2196 8.32727 28.8788 -4.77474 20.9774 3.51279C20.3674 4.15259 18.2819 7.98633 19.6938 10.7991C21.1057 13.6118 22.3893 14.9787 24.828 15.4005C27.7801 15.9111 35.9511 15.9111 41.8991 15.9111Z" stroke="white"/>
<path d="M81.0471 27.6725V15.9132L0.954102 15.9114V27.6725H81.0471Z" fill="#EADDDD" stroke="#333333"/>
<path d="M47.0334 77.5212H35.0964V27.6723V15.913H40.2306C40.2309 15.9124 40.2312 15.9118 40.2315 15.9111C40.2316 15.911 40.2316 15.9109 40.2317 15.9108C34.5121 15.9069 27.5125 15.8648 24.8281 15.4005C22.3894 14.9787 21.1058 13.6118 19.6939 10.7991C18.282 7.98633 20.3675 4.15259 20.9775 3.51279C28.3375 -4.20688 36.9464 6.6322 41.0654 14.2831C45.1848 6.6323 53.7929 -4.20445 61.1523 3.51461C61.7623 4.15441 63.8478 7.98815 62.4359 10.8009C61.024 13.6136 59.7404 14.9805 57.3017 15.4024C54.3496 15.913 46.1787 15.913 40.2307 15.913H47.0334V27.6723V77.5212Z" fill="#EA5A5A"/>
<path d="M40.2306 15.913H35.0964V27.6723V77.5212H47.0334V27.6723V15.913H40.2306ZM40.2306 15.913C43.9101 8.32909 53.2509 -4.77292 61.1523 3.51461C61.7623 4.15441 63.8478 7.98815 62.4359 10.8009C61.024 13.6136 59.7404 14.9805 57.3017 15.4024C54.3496 15.913 46.1786 15.913 40.2306 15.913ZM35.0964 15.9111H41.8992M41.8992 15.9111C38.2197 8.32727 28.8789 -4.77474 20.9775 3.51279C20.3675 4.15259 18.282 7.98633 19.6939 10.7991C21.1058 13.6118 22.3894 14.9787 24.8281 15.4005C27.7803 15.9111 35.9512 15.9111 41.8992 15.9111Z" stroke="white"/>
</svg>
