<svg width="82" height="82" viewBox="0 0 82 82" fill="none" xmlns="http://www.w3.org/2000/svg">
<rect width="82" height="82" fill="white"/>
<path d="M73.5788 15.0478C75.0051 15.2683 77.8576 17.1651 77.8576 22.9876V43.4988V67.649H28.8164V54.5814V37.5H10.714C7.53288 37.5 5 31.6591 5 27C5 22.3409 7.53288 17.0327 10.714 17.0327H20.6422C21.1036 15.5092 22.9493 14.8022 24.5377 15.0478H73.5788Z" fill="#EADDDD"/>
<path d="M24.5377 15.0478H73.5788C75.0051 15.2683 77.8576 17.1651 77.8576 22.9876C77.8576 25.9719 77.8576 34.3561 77.8576 43.4988M24.5377 15.0478C25.2728 15.1615 26.3868 15.7204 27.2938 17.0327M24.5377 15.0478C22.9493 14.8022 21.1036 15.5092 20.6422 17.0327M27.2938 17.0327C28.1466 18.2665 28.8164 20.1661 28.8164 22.9876V37.5M27.2938 17.0327H10.714C7.53288 17.0327 5 22.3409 5 27C5 31.6591 7.53288 37.5 10.714 37.5H28.8164M28.8164 37.5V54.5814M28.8164 54.5814V67.649H77.8576C77.8576 61.5748 77.8576 52.1938 77.8576 43.4988M28.8164 54.5814L38.5259 44.4912L43.4629 49.619L56.2992 36.7168M77.8576 43.4988L70.7812 36.386M56.2992 36.7168L63.7048 29.2733L70.7812 36.386M56.2992 36.7168L61.2362 41.6792L64.6922 38.2056L66.8315 40.3559L70.7812 36.386M32.1078 58.2205H41.3236M43.4629 58.2205H74.4017" stroke="white"/>
<path d="M13.8 27C13.8 30.357 12.3225 33.0784 10.5 33.0784C8.67746 33.0784 7.2 30.357 7.2 27C7.2 23.643 8.67746 20.9216 10.5 20.9216C12.3225 20.9216 13.8 23.643 13.8 27Z" fill="#EADDDD"/>
<path d="M16 27C16 32.5228 13.5376 37 10.5 37C7.46243 37 5 32.5228 5 27C5 21.4772 7.46243 17 10.5 17C13.5376 17 16 21.4772 16 27Z" fill="#EADDDD"/>
<path d="M13.8 27C13.8 30.357 12.3225 33.0784 10.5 33.0784C8.67746 33.0784 7.2 30.357 7.2 27C7.2 23.643 8.67746 20.9216 10.5 20.9216C12.3225 20.9216 13.8 23.643 13.8 27Z" stroke="white"/>
<path d="M16 27C16 32.5228 13.5376 37 10.5 37C7.46243 37 5 32.5228 5 27C5 21.4772 7.46243 17 10.5 17C13.5376 17 16 21.4772 16 27Z" stroke="white"/>
<path d="M46.7543 33.4086C46.7543 36.2406 44.4702 38.5363 41.6527 38.5363C38.8352 38.5363 36.5511 36.2406 36.5511 33.4086C36.5511 30.5766 38.8352 28.2808 41.6527 28.2808C44.4702 28.2808 46.7543 30.5766 46.7543 33.4086Z" fill="#EADDDD" stroke="#EA5A5A"/>
<path d="M28.8164 54.5804L38.5259 44.4902L43.4629 49.618L56.2992 36.7158M77.8576 43.4977L70.7812 36.385M56.2992 36.7158L63.7047 29.2722L70.7812 36.385M56.2992 36.7158L61.2362 41.6782L64.6922 38.2045L66.8315 40.3549L70.7812 36.385M32.1078 58.2194H42H74.4016" stroke="#333333"/>
<path d="M28.8164 67.6465V54.5789V33.9023" stroke="white"/>
<path d="M78 67.6465L77.8426 54.5789V33.9023" stroke="white"/>
<path d="M8 47.6695C8 45.2966 10.4119 43.7542 11.6179 43.6949H12.0472V42.7458H11.4953V41.7373V38.4746C11.4953 38.3164 11.6057 38 12.0472 38H16.9528C17.3943 38 17.5047 38.3164 17.5047 38.4746V41.7373V42.7458H16.9528V43.6949H17.3821C18.588 43.7542 21 45.2966 21 47.6695V65.1102C21 65.4068 20.767 66 19.8349 66H14.4387H9.16509C8.23302 66 8 65.4068 8 65.1102V47.6695Z" fill="#EADDDD"/>
<path d="M21 50H8V59H21V50Z" fill="white"/>
<path d="M14.5 52C12.9908 54 10.8778 58 14.5 58C18.1222 58 16.0092 54 14.5 52Z" fill="#EA5A5A"/>
</svg>
