<svg width="82" height="81" viewBox="0 0 82 81" fill="none" xmlns="http://www.w3.org/2000/svg">
<path d="M43.7074 0.906982H7.27003C3.38338 0.906982 0.954224 3.33614 0.954224 7.22279V42.2026C0.954224 46.0893 3.38338 48.5184 7.27003 48.5184H43.7074C47.594 48.5184 50.0232 46.0893 50.0232 42.2026V7.22279C50.0232 3.33614 47.594 0.906982 43.7074 0.906982Z" fill="#EA5A5A"/>
<circle cx="36.42" cy="11.1077" r="3.88665" fill="#333333"/>
<circle cx="15.043" cy="11.1077" r="3.88665" fill="#333333"/>
<circle cx="36.42" cy="24.7136" r="3.88665" fill="#333333"/>
<circle cx="15.043" cy="24.7136" r="3.88665" fill="#333333"/>
<circle cx="36.42" cy="38.3445" r="3.38665" fill="#333333" stroke="#E11E26"/>
<circle cx="15.043" cy="38.3445" r="3.88665" fill="#333333"/>
<path d="M74.3128 31.0145H37.8755C35.8267 31.0145 34.111 31.6569 32.9065 32.8614C31.7021 34.0659 31.0597 35.7816 31.0597 37.8303V72.8102C31.0597 74.8589 31.7021 76.5746 32.9065 77.7791C34.111 78.9836 35.8267 79.626 37.8755 79.626H74.3128C76.3616 79.626 78.0773 78.9836 79.2818 77.7791C80.4863 76.5746 81.1286 74.8589 81.1286 72.8102V37.8303C81.1286 35.7816 80.4863 34.0659 79.2818 32.8614C78.0773 31.6569 76.3616 31.0145 74.3128 31.0145Z" fill="#EADDDD" stroke="white"/>
<circle cx="66.5399" cy="45.1197" r="3.88665" fill="#333333"/>
<circle cx="55.8516" cy="55.808" r="3.88665" fill="#333333"/>
<circle cx="45.1631" cy="66.5236" r="3.88665" fill="#333333"/>
</svg>
