<svg width="82" height="82" viewBox="0 0 82 82" fill="none" xmlns="http://www.w3.org/2000/svg">
<rect width="82" height="82" fill="white"/>
<path d="M64 35C73.3888 35 81 27.3888 81 18C81 8.61116 73.3888 1 64 1C55.4605 1 48.3916 7.29642 47.1825 15.5C46.6666 19 47.5704 23.7083 48.8724 25.7639C51.6929 31.2484 57.4083 35 64 35Z" stroke="black"/>
<path d="M1.90737 53.8821L39.8681 15.9213L47.3563 15.9213L66.0791 15.9213L66.0791 42.1323L28.1184 80.0931L1.90737 53.8821Z" fill="#EADDDD"/>
<path d="M33.0894 34.4496L12.3013 55.2376M30.8298 48.4589L18.1762 61.1125M33.5413 62.9202L26.7626 69.6989" stroke="#EA5A5A"/>
<path d="M56.5888 33.5458C54.3426 35.7921 50.7006 35.7921 48.4544 33.5458C46.2081 31.2995 46.2081 27.6576 48.4544 25.4113C50.7006 23.1651 54.3426 23.1651 56.5888 25.4113C58.7451 27.5676 58.8315 31.0099 56.848 33.2692C56.7652 33.3635 56.6788 33.4558 56.5888 33.5458Z" fill="white"/>
<path d="M81 18C81 27.3888 73.3889 35 64 35C57.4084 35 51.6929 31.2484 48.8725 25.7639C48.7508 25.5718 48.6326 25.3566 48.5187 25.1213" stroke="black"/>
</svg>
