<svg width="75" height="15" viewBox="0 0 75 15" fill="none" xmlns="http://www.w3.org/2000/svg">
<g clip-path="url(#clip0_301_8547)">
<rect x="0.5" y="1.5" width="10.9999" height="10.9999" rx="2" fill="#333333"/>
<circle cx="5.99998" cy="6.99991" r="1.99998" fill="#333333" stroke="white"/>
<path d="M9.22656 3.39648C9.09395 3.39648 8.96677 3.44916 8.87301 3.54292C8.77924 3.63669 8.72656 3.76387 8.72656 3.89647C8.72656 4.02908 8.77924 4.15626 8.87301 4.25002C8.96677 4.34379 9.09395 4.39647 9.22656 4.39647C9.35916 4.39647 9.48634 4.34379 9.58011 4.25002C9.67388 4.15626 9.72655 4.02908 9.72655 3.89647C9.72655 3.76387 9.67388 3.63669 9.58011 3.54292C9.48634 3.44916 9.35916 3.39648 9.22656 3.39648Z" fill="white"/>
</g>
<path d="M19.8525 12H18.9229V2.13574H19.8525V12ZM21.5547 12V4.89062H22.4092V6.20312H22.4297C22.6165 5.76107 22.9128 5.41243 23.3184 5.15723C23.7285 4.90202 24.2139 4.77441 24.7744 4.77441C25.5537 4.77441 26.1667 5.00911 26.6133 5.47852C27.0645 5.94792 27.29 6.58594 27.29 7.39258V12H26.3877V7.53613C26.3877 6.91634 26.2236 6.43555 25.8955 6.09375C25.5719 5.75195 25.1117 5.58105 24.5146 5.58105C23.8994 5.58105 23.4027 5.78385 23.0244 6.18945C22.6462 6.59505 22.457 7.12826 22.457 7.78906V12H21.5547ZM28.6709 6.79102C28.6709 6.20312 28.9079 5.72005 29.3818 5.3418C29.8604 4.96354 30.4756 4.77441 31.2275 4.77441C31.9521 4.77441 32.5514 4.97038 33.0254 5.3623C33.5039 5.74967 33.766 6.25553 33.8115 6.87988H32.9434C32.8887 6.45605 32.7064 6.12337 32.3965 5.88184C32.0911 5.6403 31.6924 5.51953 31.2002 5.51953C30.7171 5.51953 30.3229 5.63574 30.0176 5.86816C29.7168 6.09603 29.5664 6.3877 29.5664 6.74316C29.5664 7.03483 29.6758 7.27409 29.8945 7.46094C30.1133 7.64323 30.4596 7.79362 30.9336 7.91211L31.9863 8.16504C32.6973 8.34277 33.2008 8.5752 33.4971 8.8623C33.7933 9.14941 33.9414 9.54818 33.9414 10.0586C33.9414 10.6602 33.6862 11.1546 33.1758 11.542C32.6654 11.9248 32.0091 12.1162 31.207 12.1162C30.446 12.1162 29.8125 11.9225 29.3066 11.5352C28.8053 11.1478 28.5251 10.6396 28.4658 10.0107H29.3682C29.432 10.4346 29.6302 10.7673 29.9629 11.0088C30.3001 11.2503 30.7331 11.3711 31.2617 11.3711C31.7949 11.3711 32.2233 11.2572 32.5469 11.0293C32.8704 10.8014 33.0322 10.5007 33.0322 10.127C33.0322 9.81706 32.932 9.57324 32.7314 9.39551C32.5355 9.21322 32.2005 9.0651 31.7266 8.95117L30.5713 8.66406C29.9287 8.50456 29.4502 8.27214 29.1357 7.9668C28.8258 7.6569 28.6709 7.26497 28.6709 6.79102ZM35.5479 3.11328H36.4502V4.89062H37.8516V5.64258H36.4502V10.209C36.4502 10.5736 36.5254 10.8402 36.6758 11.0088C36.8262 11.1729 37.0654 11.2549 37.3936 11.2549C37.6488 11.2549 37.8128 11.2458 37.8857 11.2275V12C37.7581 12.0273 37.5348 12.041 37.2158 12.041C36.6188 12.041 36.1904 11.9043 35.9307 11.6309C35.6755 11.3529 35.5479 10.8926 35.5479 10.25V5.64258H34.4883V4.89062H35.5479V3.11328ZM41.2217 11.3369C41.846 11.3369 42.3724 11.1432 42.8008 10.7559C43.2292 10.3685 43.4434 9.89225 43.4434 9.32715V8.54102L41.3379 8.68457C40.7773 8.72103 40.3467 8.85775 40.0459 9.09473C39.7451 9.32715 39.5947 9.63932 39.5947 10.0312C39.5947 10.4186 39.7451 10.7331 40.0459 10.9746C40.3467 11.2161 40.7386 11.3369 41.2217 11.3369ZM41.0371 12.1162C40.3353 12.1162 39.7656 11.9248 39.3281 11.542C38.8952 11.1546 38.6787 10.651 38.6787 10.0312C38.6787 9.42057 38.8975 8.9375 39.335 8.58203C39.777 8.22656 40.4082 8.02148 41.2285 7.9668L43.4434 7.83008V7.21484C43.4434 6.69987 43.2884 6.29883 42.9785 6.01172C42.6686 5.72005 42.238 5.57422 41.6865 5.57422C41.167 5.57422 40.7432 5.69499 40.415 5.93652C40.0915 6.17806 39.891 6.5153 39.8135 6.94824H38.9385C38.9886 6.30111 39.262 5.77702 39.7588 5.37598C40.2601 4.97493 40.9095 4.77441 41.707 4.77441C42.5182 4.77441 43.1608 4.98633 43.6348 5.41016C44.1087 5.83398 44.3457 6.4082 44.3457 7.13281V12H43.4844V10.6465H43.4639C43.2679 11.0885 42.9466 11.444 42.5 11.7129C42.0534 11.9818 41.5658 12.1162 41.0371 12.1162ZM48.6729 11.2686C49.3564 11.2686 49.9079 11.0088 50.3271 10.4893C50.751 9.96517 50.9629 9.27702 50.9629 8.4248C50.9629 7.57259 50.751 6.88444 50.3271 6.36035C49.9079 5.83626 49.3564 5.57422 48.6729 5.57422C48.0029 5.57422 47.4629 5.83626 47.0527 6.36035C46.6426 6.87988 46.4375 7.57031 46.4375 8.43164C46.4375 9.28841 46.6426 9.97656 47.0527 10.4961C47.4629 11.0111 48.0029 11.2686 48.6729 11.2686ZM48.7617 14.6318C47.9961 14.6318 47.3421 14.445 46.7998 14.0713C46.262 13.6976 45.943 13.2259 45.8428 12.6562H46.7793C46.8978 13.0117 47.137 13.2988 47.4971 13.5176C47.8617 13.7409 48.2969 13.8525 48.8027 13.8525C49.4635 13.8525 49.9876 13.6748 50.375 13.3193C50.7669 12.9684 50.9629 12.5013 50.9629 11.918V10.4893H50.9424C50.7464 10.9587 50.4297 11.3392 49.9922 11.6309C49.5592 11.9225 49.0648 12.0684 48.5088 12.0684C47.6064 12.0684 46.8796 11.7357 46.3281 11.0703C45.7812 10.4049 45.5078 9.52311 45.5078 8.4248C45.5078 7.32194 45.7835 6.43783 46.335 5.77246C46.8864 5.1071 47.6178 4.77441 48.5293 4.77441C49.0853 4.77441 49.5798 4.92253 50.0127 5.21875C50.4502 5.51042 50.776 5.90234 50.9902 6.39453H51.0107V4.89062H51.8721V11.8838C51.8721 12.7132 51.5895 13.3786 51.0244 13.8799C50.4639 14.3812 49.7096 14.6318 48.7617 14.6318ZM53.4375 12V4.89062H54.292V6.15527H54.3125C54.4447 5.72233 54.668 5.38509 54.9824 5.14355C55.2969 4.89746 55.6729 4.77441 56.1104 4.77441C56.2835 4.77441 56.4704 4.79948 56.6709 4.84961V5.73828C56.5251 5.66992 56.2995 5.63574 55.9941 5.63574C55.4928 5.63574 55.0918 5.81348 54.791 6.16895C54.4902 6.52441 54.3398 6.99154 54.3398 7.57031V12H53.4375ZM59.7197 11.3369C60.3441 11.3369 60.8704 11.1432 61.2988 10.7559C61.7272 10.3685 61.9414 9.89225 61.9414 9.32715V8.54102L59.8359 8.68457C59.2754 8.72103 58.8447 8.85775 58.5439 9.09473C58.2432 9.32715 58.0928 9.63932 58.0928 10.0312C58.0928 10.4186 58.2432 10.7331 58.5439 10.9746C58.8447 11.2161 59.2367 11.3369 59.7197 11.3369ZM59.5352 12.1162C58.8333 12.1162 58.2637 11.9248 57.8262 11.542C57.3932 11.1546 57.1768 10.651 57.1768 10.0312C57.1768 9.42057 57.3955 8.9375 57.833 8.58203C58.2751 8.22656 58.9062 8.02148 59.7266 7.9668L61.9414 7.83008V7.21484C61.9414 6.69987 61.7865 6.29883 61.4766 6.01172C61.1667 5.72005 60.736 5.57422 60.1846 5.57422C59.665 5.57422 59.2412 5.69499 58.9131 5.93652C58.5895 6.17806 58.389 6.5153 58.3115 6.94824H57.4365C57.4867 6.30111 57.7601 5.77702 58.2568 5.37598C58.7581 4.97493 59.4076 4.77441 60.2051 4.77441C61.0163 4.77441 61.6589 4.98633 62.1328 5.41016C62.6068 5.83398 62.8438 6.4082 62.8438 7.13281V12H61.9824V10.6465H61.9619C61.766 11.0885 61.4447 11.444 60.998 11.7129C60.5514 11.9818 60.0638 12.1162 59.5352 12.1162ZM64.3613 12V4.89062H65.2158V6.20312H65.2363C65.3958 5.77018 65.6556 5.42383 66.0156 5.16406C66.3757 4.9043 66.8063 4.77441 67.3076 4.77441C67.818 4.77441 68.2533 4.91113 68.6133 5.18457C68.9779 5.45345 69.2285 5.81576 69.3652 6.27148H69.3857C69.5589 5.82487 69.8438 5.46484 70.2402 5.19141C70.6413 4.91341 71.1038 4.77441 71.6279 4.77441C72.3206 4.77441 72.8766 4.99089 73.2959 5.42383C73.7152 5.85221 73.9248 6.42415 73.9248 7.13965V12H73.0225V7.34473C73.0225 6.79329 72.8766 6.36263 72.585 6.05273C72.2933 5.73828 71.89 5.58105 71.375 5.58105C70.8509 5.58105 70.4225 5.76335 70.0898 6.12793C69.7617 6.48796 69.5977 6.9528 69.5977 7.52246V12H68.6885V7.2627C68.6885 6.75684 68.5381 6.35124 68.2373 6.0459C67.9411 5.736 67.5492 5.58105 67.0615 5.58105C66.5374 5.58105 66.1068 5.77246 65.7695 6.15527C65.4323 6.53809 65.2637 7.03027 65.2637 7.63184V12H64.3613Z" fill="#333333"/>
<defs>
<clipPath id="clip0_301_8547">
<rect width="11.9999" height="11.9999" fill="white" transform="translate(0 1)"/>
</clipPath>
</defs>
</svg>
