<svg width="189" height="212" viewBox="0 0 189 212" fill="none" xmlns="http://www.w3.org/2000/svg">
<rect width="189" height="212" rx="4.00424" fill="white"/>
<path d="M58.4824 174.839L62.8232 170.136H60.9912L56.9717 174.552H56.917V170.136H55.3857V180H56.917V175.372H56.9717L61.2236 180H63.2266L58.4824 174.839ZM66.4463 178.954C65.6533 178.954 65.1338 178.544 65.1338 177.915C65.1338 177.3 65.6328 176.91 66.5146 176.849L68.2852 176.739V177.307C68.2852 178.243 67.4785 178.954 66.4463 178.954ZM66.0361 180.123C66.9795 180.123 67.8887 179.617 68.3057 178.817H68.3398V180H69.7549V175.044C69.7549 173.602 68.6406 172.679 66.8975 172.679C65.1201 172.679 64.0127 173.636 63.9307 174.935H65.3252C65.4551 174.292 65.9883 173.882 66.8428 173.882C67.7451 173.882 68.2852 174.36 68.2852 175.16V175.714L66.3164 175.83C64.6074 175.926 63.6436 176.698 63.6436 177.956C63.6436 179.248 64.6279 180.123 66.0361 180.123ZM76.0303 180H77.5V172.809H76.0303V175.707H72.7764V172.809H71.3066V180H72.7764V176.869H76.0303V180ZM86.2979 181.887V178.831H85.1768V172.809H83.707V178.831H80.5693V172.809H79.0996V180H84.9375V181.887H86.2979ZM95.6152 172.809H89.6338V173.978H91.8896V180H93.3594V173.978H95.6152V172.809ZM99.6553 180.137C101.713 180.137 103.066 178.722 103.066 176.404C103.066 174.094 101.706 172.679 99.6553 172.679C97.6045 172.679 96.2441 174.094 96.2441 176.404C96.2441 178.722 97.5977 180.137 99.6553 180.137ZM99.6553 178.92C98.5 178.92 97.748 178.004 97.748 176.404C97.748 174.812 98.5 173.896 99.6553 173.896C100.811 173.896 101.562 174.812 101.562 176.404C101.562 178.004 100.817 178.92 99.6553 178.92ZM107.305 173.882C108.022 173.882 108.412 174.217 108.412 174.812C108.412 175.447 107.995 175.769 107.161 175.769H105.794V173.882H107.305ZM107.257 176.801C108.228 176.801 108.706 177.156 108.706 177.867C108.706 178.558 108.255 178.927 107.421 178.927H105.794V176.801H107.257ZM104.338 180H107.646C109.205 180 110.176 179.193 110.176 177.929C110.176 177.026 109.561 176.37 108.631 176.247V176.192C109.321 176.062 109.854 175.386 109.854 174.641C109.854 173.506 109.007 172.809 107.605 172.809H104.338V180ZM114.011 178.954C113.218 178.954 112.698 178.544 112.698 177.915C112.698 177.3 113.197 176.91 114.079 176.849L115.85 176.739V177.307C115.85 178.243 115.043 178.954 114.011 178.954ZM113.601 180.123C114.544 180.123 115.453 179.617 115.87 178.817H115.904V180H117.319V175.044C117.319 173.602 116.205 172.679 114.462 172.679C112.685 172.679 111.577 173.636 111.495 174.935H112.89C113.02 174.292 113.553 173.882 114.407 173.882C115.31 173.882 115.85 174.36 115.85 175.16V175.714L113.881 175.83C112.172 175.926 111.208 176.698 111.208 177.956C111.208 179.248 112.192 180.123 113.601 180.123ZM122.624 172.692C121.585 172.692 120.758 173.219 120.334 174.046H120.307V172.809H118.878V182.379H120.354V178.817H120.389C120.799 179.617 121.619 180.123 122.651 180.123C124.456 180.123 125.652 178.681 125.652 176.404C125.652 174.128 124.449 172.692 122.624 172.692ZM122.234 178.872C121.1 178.872 120.348 177.901 120.348 176.404C120.348 174.921 121.106 173.937 122.234 173.937C123.403 173.937 124.135 174.9 124.135 176.404C124.135 177.915 123.403 178.872 122.234 178.872ZM133.329 180H134.792V172.809H133.329V180ZM129.638 176.186C130.479 176.186 131.032 176.712 131.032 177.512C131.032 178.305 130.485 178.838 129.638 178.838H128.394V176.186H129.638ZM126.924 180H129.768C131.429 180 132.502 179.036 132.502 177.512C132.502 175.994 131.429 175.03 129.768 175.03H128.394V172.809H126.924V180Z" fill="#333333"/>
<path d="M95.5475 75.1916L97.3265 73.576L98.127 72.849L101.062 70.1833L102.516 71.7844L141.699 114.931L138.764 117.596L137.361 118.871L136.184 119.939L97.0015 76.7926L95.5475 75.1916Z" fill="#EADDDD"/>
<path d="M94.5782 74.1242C94.5782 74.1242 93.8285 70.7275 93.1424 68.6112C93.0192 68.2312 92.8471 67.7356 92.7193 67.3723C92.6185 67.0856 92.5452 66.8813 92.5452 66.8813L90.768 64.9244L91.0349 64.682L91.3017 64.4397L93.0789 66.3966C93.0789 66.3966 93.2752 66.4892 93.5509 66.6171C93.9003 66.7792 94.3771 66.9981 94.7435 67.1572C96.7841 68.0435 100.093 69.1159 100.093 69.1159L97.3356 71.6201L94.5782 74.1242Z" fill="#EADDDD"/>
<path d="M91.0349 64.682L90.768 64.9243L92.5452 66.8812L93.0789 66.3965L91.3017 64.4396L91.0349 64.682Z" fill="#333333"/>
<path d="M145.069 111.647L104.432 66.8991L106.211 65.2836L107.812 63.8296L108.523 63.1833L149.16 107.931L148.449 108.577L146.848 110.031L145.069 111.647Z" fill="#EADDDD"/>
<path d="M99.0458 56.8579L101.635 58.4582L102.024 58.6982L107.554 62.1159L103.462 65.8317L101.144 61.1205L100.923 60.6718L99.0458 56.8579Z" fill="#EADDDD"/>
<path d="M100.826 59.3419L100.262 58.1975L101.039 58.6777L100.826 59.3419Z" fill="#333333" stroke="#333333"/>
<path d="M68.8493 78.4509L72.9345 82.5361L76 111L72.9345 108L68.8493 78.4509Z" fill="#EA5A5A"/>
<path d="M54.1904 63.5518L98.5 101V96.5002L66.9268 66.9161L60.9282 67.3967L54.4307 61.6293L54.1904 63.5518Z" fill="#EA5A5A"/>
<path d="M73.1748 69.5595L68.1283 65.2339C69.8585 64.6572 69.4901 57.6241 69.0896 54.1797H70.2911C71.4926 60.668 72.5085 66.0279 73.1748 69.5595Z" fill="#EA5A5A"/>
<circle cx="69.4332" cy="46.4883" r="5.98833" stroke="#EA5A5A"/>
<path d="M72.1994 73.4054C72.1994 74.4671 71.3387 75.3278 70.277 75.3278C69.2152 75.3278 68.3545 74.4671 68.3545 73.4054C68.3545 72.3436 69.2152 71.4829 70.277 71.4829C71.3387 71.4829 72.1994 72.3436 72.1994 73.4054Z" fill="white"/>
<path d="M52.4767 61.4693C52.4767 64.7766 49.7956 67.4576 46.4883 67.4576C43.1811 67.4576 40.5 64.7766 40.5 61.4693C40.5 58.162 43.1811 55.481 46.4883 55.481C49.7956 55.481 52.4767 58.162 52.4767 61.4693Z" stroke="#EA5A5A"/>
<line x1="101" y1="39.5" x2="149" y2="39.5" stroke="#333333" stroke-dasharray="1 6"/>
<line x1="40" y1="127.5" x2="88" y2="127.5" stroke="#333333" stroke-dasharray="1 6"/>
</svg>
