<svg width="82" height="44" viewBox="0 0 82 44" fill="none" xmlns="http://www.w3.org/2000/svg">
<rect y="-0.00012207" width="82" height="43.7592" fill="#E11E26"/>
<path d="M39.8551 34.4949L40.1679 33.0096H40.7202L40.7773 34.046H40.7855L41.3187 33.0096H41.8872L41.5689 34.4949H41.199L41.3622 33.7604C41.3767 33.6915 41.3921 33.6253 41.4084 33.5618C41.4248 33.4965 41.4393 33.4439 41.452 33.404H41.4438L40.8807 34.4949H40.4971L40.4373 33.404H40.4318C40.4228 33.4766 40.4128 33.5428 40.4019 33.6026C40.391 33.6607 40.3792 33.7187 40.3665 33.7767L40.2224 34.4949H39.8551Z" fill="white"/>
<path d="M42.4353 34.5221C42.3645 34.5221 42.2965 34.5049 42.2312 34.4704C42.1678 34.4342 42.1161 34.377 42.0762 34.299C42.0363 34.2192 42.0163 34.1141 42.0163 33.9835C42.0163 33.8874 42.0263 33.7912 42.0463 33.6951C42.068 33.599 42.0979 33.5083 42.136 33.4231C42.1759 33.3378 42.224 33.2626 42.2802 33.1973C42.3364 33.1302 42.3999 33.0776 42.4706 33.0395C42.5432 33.0014 42.6212 32.9824 42.7046 32.9824C42.7681 32.9824 42.8225 32.9914 42.8678 33.0096C42.915 33.0277 42.9549 33.0531 42.9875 33.0858C43.022 33.1184 43.0501 33.1565 43.0718 33.2H43.0827L43.1589 33.0096H43.4663L43.1507 34.4949H42.8515L42.8705 34.3018H42.8597C42.8252 34.3453 42.7871 34.3834 42.7454 34.416C42.7037 34.4487 42.6574 34.475 42.6067 34.4949C42.5559 34.513 42.4988 34.5221 42.4353 34.5221ZM42.5931 34.1984C42.6475 34.1984 42.6982 34.1766 42.7454 34.1331C42.7926 34.0896 42.8325 34.0334 42.8651 33.9644C42.8996 33.8955 42.924 33.823 42.9385 33.7468C42.9458 33.7105 42.9503 33.6752 42.9521 33.6407C42.9558 33.6044 42.9576 33.5654 42.9576 33.5237C42.9576 33.4603 42.9413 33.4086 42.9086 33.3687C42.876 33.327 42.8306 33.3061 42.7726 33.3061C42.7327 33.3061 42.6955 33.3188 42.6611 33.3442C42.6266 33.3696 42.594 33.404 42.5631 33.4476C42.5341 33.4911 42.5087 33.541 42.487 33.5972C42.467 33.6534 42.4507 33.7133 42.438 33.7767C42.4271 33.8384 42.4217 33.901 42.4217 33.9644C42.4217 34.0424 42.4362 34.1014 42.4652 34.1413C42.496 34.1793 42.5387 34.1984 42.5931 34.1984Z" fill="white"/>
<path d="M43.5608 34.4949L43.8764 33.0096H44.1811L44.1539 33.2843H44.1648C44.2028 33.2245 44.2446 33.1719 44.2899 33.1266C44.337 33.0812 44.3887 33.0459 44.445 33.0205C44.5012 32.9951 44.5637 32.9824 44.6327 32.9824C44.7342 32.9824 44.8131 33.0096 44.8693 33.064C44.9256 33.1166 44.9627 33.19 44.9809 33.2843H44.9918C45.0298 33.2245 45.0715 33.1719 45.1169 33.1266C45.164 33.0812 45.2166 33.0459 45.2747 33.0205C45.3327 32.9951 45.3962 32.9824 45.4651 32.9824C45.5884 32.9824 45.6809 33.0214 45.7426 33.0994C45.8042 33.1755 45.8351 33.2789 45.8351 33.4095C45.8351 33.4421 45.8323 33.4793 45.8269 33.521C45.8215 33.5609 45.8142 33.6035 45.8051 33.6489L45.6283 34.4949H45.2284L45.4107 33.6271C45.4179 33.5963 45.4234 33.5682 45.427 33.5428C45.4306 33.5156 45.4325 33.4911 45.4325 33.4693C45.4325 33.4131 45.4216 33.3723 45.3998 33.3469C45.378 33.3197 45.3454 33.3061 45.3019 33.3061C45.2565 33.3061 45.2139 33.3206 45.174 33.3496C45.1359 33.3786 45.1006 33.4195 45.0679 33.472C45.0371 33.5246 45.009 33.5854 44.9836 33.6543C44.96 33.7232 44.9401 33.7976 44.9237 33.8774L44.7959 34.4949H44.396L44.5783 33.6271C44.5855 33.5963 44.591 33.5682 44.5946 33.5428C44.5982 33.5156 44.6 33.4911 44.6 33.4693C44.6 33.4131 44.5891 33.3723 44.5674 33.3469C44.5456 33.3197 44.513 33.3061 44.4694 33.3061C44.4241 33.3061 44.3815 33.3215 44.3416 33.3523C44.3035 33.3814 44.2681 33.4222 44.2355 33.4748C44.2047 33.5274 44.1765 33.5881 44.1512 33.657C44.1276 33.7259 44.1076 33.8003 44.0913 33.8801L43.9607 34.4949H43.5608Z" fill="white"/>
<path d="M46.6819 34.5221C46.5658 34.5221 46.4633 34.5013 46.3744 34.4595C46.2874 34.4178 46.2185 34.3544 46.1677 34.2691C46.1187 34.1839 46.0942 34.0769 46.0942 33.9481C46.0942 33.823 46.1115 33.7033 46.1459 33.589C46.1822 33.473 46.2348 33.3696 46.3037 33.2789C46.3744 33.1882 46.4615 33.1166 46.5649 33.064C46.6682 33.0096 46.7879 32.9824 46.924 32.9824C47.0908 32.9824 47.215 33.0205 47.2967 33.0966C47.3801 33.1728 47.4218 33.2698 47.4218 33.3877C47.4218 33.4657 47.4037 33.5364 47.3674 33.5999C47.3329 33.6634 47.2803 33.7178 47.2096 33.7631C47.1407 33.8085 47.0527 33.8438 46.9457 33.8692C46.8387 33.8928 46.7127 33.9046 46.5676 33.9046H46.4996C46.4978 33.9155 46.4969 33.9254 46.4969 33.9345C46.4969 33.9418 46.4969 33.9499 46.4969 33.959C46.4969 34.0388 46.5195 34.1023 46.5649 34.1494C46.612 34.1966 46.6773 34.2201 46.7607 34.2201C46.8387 34.2201 46.9095 34.2111 46.9729 34.1929C47.0364 34.1748 47.1117 34.1458 47.1987 34.1059V34.4079C47.1207 34.4459 47.0418 34.475 46.962 34.4949C46.8823 34.513 46.7889 34.5221 46.6819 34.5221ZM46.603 33.6353C46.7063 33.6353 46.7898 33.6244 46.8532 33.6026C46.9167 33.5809 46.963 33.5518 46.992 33.5156C47.0228 33.4775 47.0382 33.4376 47.0382 33.3959C47.0382 33.3542 47.0255 33.3233 47.0001 33.3034C46.9766 33.2816 46.943 33.2707 46.8995 33.2707C46.8505 33.2707 46.8015 33.2862 46.7526 33.317C46.7036 33.3478 46.6601 33.3904 46.622 33.4448C46.5857 33.4992 46.5594 33.5627 46.5431 33.6353H46.603Z" fill="white"/>
<path d="M47.3991 35.1478L47.8534 33.0096H48.158L48.1363 33.2354H48.1472C48.178 33.1918 48.2134 33.151 48.2533 33.113C48.295 33.0749 48.3421 33.044 48.3947 33.0205C48.4473 32.9951 48.5053 32.9824 48.5688 32.9824C48.6414 32.9824 48.7094 33.0005 48.7728 33.0368C48.8363 33.0712 48.888 33.1284 48.9279 33.2082C48.9678 33.2862 48.9878 33.3913 48.9878 33.5237C48.9878 33.6199 48.9769 33.716 48.9551 33.8121C48.9352 33.9082 48.9052 33.9989 48.8653 34.0841C48.8273 34.1694 48.7801 34.2446 48.7239 34.3099C48.6677 34.3752 48.6033 34.4269 48.5307 34.465C48.46 34.5031 48.3829 34.5221 48.2995 34.5221C48.2397 34.5221 48.1889 34.513 48.1472 34.4949C48.1054 34.475 48.0701 34.4487 48.0411 34.416C48.012 34.3816 47.9857 34.3444 47.9622 34.3045H47.9513C47.9459 34.377 47.9386 34.4432 47.9295 34.5031C47.9205 34.5629 47.9087 34.6273 47.8942 34.6962L47.7989 35.1478H47.3991ZM48.2315 34.1984C48.2714 34.1984 48.3086 34.1857 48.343 34.1603C48.3775 34.1349 48.4092 34.1005 48.4382 34.0569C48.4691 34.0134 48.4945 33.9635 48.5144 33.9073C48.5362 33.8511 48.5525 33.7912 48.5634 33.7278C48.5761 33.6643 48.5824 33.6017 48.5824 33.5401C48.5824 33.4621 48.5679 33.404 48.5389 33.366C48.5099 33.3261 48.4663 33.3061 48.4083 33.3061C48.3648 33.3061 48.3258 33.317 48.2913 33.3387C48.2569 33.3605 48.226 33.3904 48.1988 33.4285C48.1735 33.4648 48.1508 33.5065 48.1308 33.5537C48.1109 33.6008 48.0946 33.6489 48.0819 33.6978C48.071 33.7468 48.0619 33.7949 48.0547 33.842C48.0492 33.8874 48.0465 33.9282 48.0465 33.9644C48.0465 34.0352 48.0628 34.0923 48.0955 34.1358C48.1299 34.1775 48.1753 34.1984 48.2315 34.1984Z" fill="white"/>
<path d="M49.6317 34.5221C49.5465 34.5221 49.4758 34.5049 49.4196 34.4704C49.3633 34.4342 49.3216 34.3843 49.2944 34.3208C49.2672 34.2573 49.2536 34.1821 49.2536 34.095C49.2536 34.0624 49.2563 34.0207 49.2618 33.9699C49.2672 33.9173 49.2754 33.8647 49.2863 33.8121L49.4549 33.0096H49.8548L49.6725 33.8774C49.6653 33.9064 49.6599 33.9345 49.6562 33.9617C49.6526 33.9889 49.6508 34.0134 49.6508 34.0352C49.6508 34.0914 49.6626 34.1331 49.6861 34.1603C49.7115 34.1857 49.7478 34.1984 49.795 34.1984C49.8566 34.1984 49.911 34.173 49.9582 34.1222C50.0072 34.0696 50.0498 33.9998 50.086 33.9127C50.1223 33.8257 50.1513 33.7296 50.1731 33.6244L50.3037 33.0096H50.7036L50.388 34.4949H50.0833L50.1105 34.2201H50.0969C50.0588 34.2782 50.0171 34.3308 49.9718 34.3779C49.9264 34.4233 49.8757 34.4586 49.8194 34.484C49.7632 34.5094 49.7007 34.5221 49.6317 34.5221Z" fill="white"/>
<path d="M51.2871 34.5221C51.2164 34.5221 51.1484 34.5049 51.0831 34.4704C51.0196 34.4342 50.9679 34.377 50.928 34.299C50.8881 34.2192 50.8682 34.1141 50.8682 33.9835C50.8682 33.8874 50.8782 33.7912 50.8981 33.6951C50.9199 33.599 50.9498 33.5083 50.9879 33.4231C51.0278 33.3378 51.0759 33.2626 51.1321 33.1973C51.1883 33.1302 51.2518 33.0776 51.3225 33.0395C51.395 33.0014 51.473 32.9824 51.5565 32.9824C51.6199 32.9824 51.6743 32.9914 51.7197 33.0096C51.7668 33.0277 51.8067 33.0531 51.8394 33.0858C51.8738 33.1184 51.9019 33.1565 51.9237 33.2H51.9346L52.0108 33.0096H52.3182L52.0026 34.4949H51.7034L51.7224 34.3018H51.7115C51.6771 34.3453 51.639 34.3834 51.5973 34.416C51.5555 34.4487 51.5093 34.475 51.4585 34.4949C51.4077 34.513 51.3506 34.5221 51.2871 34.5221ZM51.4449 34.1984C51.4993 34.1984 51.5501 34.1766 51.5973 34.1331C51.6444 34.0896 51.6843 34.0334 51.717 33.9644C51.7514 33.8955 51.7759 33.823 51.7904 33.7468C51.7977 33.7105 51.8022 33.6752 51.804 33.6407C51.8076 33.6044 51.8094 33.5654 51.8094 33.5237C51.8094 33.4603 51.7931 33.4086 51.7605 33.3687C51.7278 33.327 51.6825 33.3061 51.6245 33.3061C51.5846 33.3061 51.5474 33.3188 51.5129 33.3442C51.4785 33.3696 51.4458 33.404 51.415 33.4476C51.386 33.4911 51.3606 33.541 51.3388 33.5972C51.3189 33.6534 51.3025 33.7133 51.2899 33.7767C51.279 33.8384 51.2735 33.901 51.2735 33.9644C51.2735 34.0424 51.288 34.1014 51.3171 34.1413C51.3479 34.1793 51.3905 34.1984 51.4449 34.1984Z" fill="white"/>
<path d="M52.4834 34.5221C52.4435 34.5221 52.4082 34.5194 52.3773 34.514C52.3465 34.5103 52.3157 34.5022 52.2848 34.4895V34.1603C52.3048 34.1676 52.3238 34.173 52.342 34.1766C52.3583 34.1803 52.3764 34.1821 52.3964 34.1821C52.4308 34.1821 52.4608 34.1703 52.4861 34.1467C52.5133 34.1213 52.5369 34.0869 52.5569 34.0433C52.5786 33.9998 52.5986 33.9499 52.6167 33.8937C52.6367 33.8375 52.6575 33.7785 52.6793 33.7169C52.7228 33.5917 52.7663 33.4829 52.8099 33.3904C52.8534 33.2979 52.9042 33.2218 52.9622 33.1619C53.0202 33.1021 53.0937 33.0576 53.1826 33.0286C53.2714 32.9978 53.383 32.9824 53.5172 32.9824C53.6078 32.9824 53.694 32.9905 53.7756 33.0069C53.859 33.0214 53.9261 33.0386 53.9769 33.0585L53.6749 34.4949H53.2751L53.5253 33.3197C53.5126 33.3161 53.499 33.3134 53.4845 33.3115C53.47 33.3097 53.4555 33.3088 53.441 33.3088C53.3685 33.3088 53.3095 33.3297 53.2642 33.3714C53.2206 33.4131 53.1826 33.4748 53.1499 33.5564C53.1173 33.638 53.0801 33.7395 53.0384 33.8611C53.0075 33.9517 52.9767 34.037 52.9459 34.1168C52.9169 34.1966 52.8824 34.2673 52.8425 34.329C52.8026 34.3888 52.7536 34.436 52.6956 34.4704C52.6394 34.5049 52.5687 34.5221 52.4834 34.5221Z" fill="white"/>
<path d="M54.6957 34.5221C54.5651 34.5221 54.4618 34.5031 54.3856 34.465C54.3112 34.4269 54.2577 34.3752 54.2251 34.3099C54.1943 34.2428 54.1789 34.1694 54.1789 34.0896C54.1789 34.066 54.1807 34.0324 54.1843 33.9889C54.1879 33.9436 54.1961 33.8937 54.2088 33.8393L54.3883 33.0096H54.7882L54.6576 33.6135C54.6939 33.6044 54.7347 33.5972 54.7801 33.5917C54.8254 33.5863 54.8744 33.5836 54.927 33.5836C55.0086 33.5836 55.0802 33.5999 55.1419 33.6325C55.2053 33.6634 55.2543 33.7087 55.2888 33.7686C55.325 33.8266 55.3432 33.8964 55.3432 33.978C55.3432 34.0705 55.3205 34.1585 55.2752 34.2419C55.2316 34.3235 55.1618 34.3906 55.0657 34.4432C54.9714 34.4958 54.8481 34.5221 54.6957 34.5221ZM54.7284 34.2419C54.761 34.2419 54.79 34.2374 54.8154 34.2283C54.8426 34.2174 54.8653 34.202 54.8834 34.1821C54.9034 34.1621 54.9179 34.1385 54.927 34.1113C54.9378 34.0841 54.9433 34.0542 54.9433 34.0216C54.9433 33.9853 54.9369 33.9563 54.9242 33.9345C54.9115 33.9109 54.8925 33.8937 54.8671 33.8828C54.8435 33.8701 54.8136 33.8638 54.7773 33.8638C54.7501 33.8638 54.722 33.8656 54.693 33.8692C54.6658 33.8728 54.6359 33.8792 54.6032 33.8883C54.5924 33.9354 54.5851 33.9708 54.5815 33.9944C54.5778 34.0161 54.576 34.0442 54.576 34.0787C54.576 34.1367 54.5914 34.1784 54.6223 34.2038C54.6531 34.2292 54.6885 34.2419 54.7284 34.2419ZM55.4602 34.4949L55.7757 33.0096H56.1756L55.8601 34.4949H55.4602Z" fill="white"/>
<path d="M57.6215 34.5221C57.4891 34.5221 57.3803 34.4967 57.295 34.4459C57.2098 34.3933 57.1472 34.3226 57.1073 34.2338C57.0674 34.1449 57.0475 34.0451 57.0475 33.9345C57.0475 33.8329 57.0575 33.7395 57.0774 33.6543C57.0974 33.5673 57.1264 33.4902 57.1645 33.4231C57.2026 33.3542 57.2479 33.2961 57.3005 33.249C57.3531 33.2 57.412 33.1628 57.4773 33.1374C57.5426 33.112 57.6133 33.0994 57.6895 33.0994C57.7512 33.0994 57.8047 33.1102 57.85 33.132C57.8972 33.1538 57.938 33.1828 57.9724 33.2191C58.0069 33.2553 58.0359 33.2961 58.0595 33.3415H58.0704C58.0722 33.327 58.0731 33.3115 58.0731 33.2952C58.0731 33.2771 58.0731 33.2635 58.0731 33.2544C58.0731 33.0767 58.045 32.947 57.9887 32.8654C57.9343 32.782 57.8455 32.7403 57.7221 32.7403C57.6804 32.7403 57.6351 32.7457 57.5861 32.7566C57.5372 32.7657 57.4927 32.7783 57.4528 32.7947L57.3685 32.4791C57.4265 32.4573 57.4909 32.441 57.5616 32.4301C57.6324 32.4193 57.7067 32.4138 57.7847 32.4138C57.9479 32.4138 58.0803 32.4483 58.1819 32.5172C58.2835 32.5861 58.3578 32.684 58.405 32.811C58.4521 32.9379 58.4757 33.0885 58.4757 33.2626C58.4757 33.3641 58.4684 33.4666 58.4539 33.57C58.4412 33.6715 58.4204 33.7695 58.3914 33.8638C58.3623 33.9563 58.3252 34.0424 58.2798 34.1222C58.2363 34.202 58.1828 34.2718 58.1193 34.3317C58.0558 34.3915 57.9824 34.4387 57.899 34.4731C57.8174 34.5058 57.7249 34.5221 57.6215 34.5221ZM57.6433 34.1957C57.6886 34.1957 57.7294 34.1857 57.7657 34.1657C57.8019 34.144 57.8337 34.1141 57.8609 34.076C57.8899 34.0379 57.9144 33.9944 57.9343 33.9454C57.9561 33.8964 57.9742 33.8438 57.9887 33.7876C58.0033 33.7296 58.015 33.6706 58.0241 33.6108C58.0132 33.5709 57.9969 33.5364 57.9751 33.5074C57.9534 33.4766 57.9262 33.4521 57.8935 33.434C57.8627 33.4158 57.8264 33.4068 57.7847 33.4068C57.743 33.4068 57.7049 33.4149 57.6705 33.4312C57.636 33.4476 57.6052 33.472 57.578 33.5047C57.5508 33.5355 57.5272 33.5736 57.5072 33.6189C57.4891 33.6625 57.4746 33.7123 57.4637 33.7686C57.4546 33.823 57.4501 33.8828 57.4501 33.9481C57.4501 34.0261 57.4664 34.0869 57.4991 34.1304C57.5335 34.1739 57.5816 34.1957 57.6433 34.1957Z" fill="white"/>
<path d="M58.6813 34.5221C58.6414 34.5221 58.6061 34.5194 58.5752 34.514C58.5444 34.5103 58.5136 34.5022 58.4827 34.4895V34.1603C58.5027 34.1676 58.5217 34.173 58.5399 34.1766C58.5562 34.1803 58.5743 34.1821 58.5943 34.1821C58.6287 34.1821 58.6586 34.1703 58.684 34.1467C58.7112 34.1213 58.7348 34.0869 58.7548 34.0433C58.7765 33.9998 58.7965 33.9499 58.8146 33.8937C58.8346 33.8375 58.8554 33.7785 58.8772 33.7169C58.9207 33.5917 58.9642 33.4829 59.0078 33.3904C59.0513 33.2979 59.1021 33.2218 59.1601 33.1619C59.2181 33.1021 59.2916 33.0576 59.3805 33.0286C59.4693 32.9978 59.5809 32.9824 59.7151 32.9824C59.8057 32.9824 59.8919 32.9905 59.9735 33.0069C60.0569 33.0214 60.124 33.0386 60.1748 33.0585L59.8728 34.4949H59.4729L59.7232 33.3197C59.7105 33.3161 59.6969 33.3134 59.6824 33.3115C59.6679 33.3097 59.6534 33.3088 59.6389 33.3088C59.5663 33.3088 59.5074 33.3297 59.4621 33.3714C59.4185 33.4131 59.3805 33.4748 59.3478 33.5564C59.3152 33.638 59.278 33.7395 59.2363 33.8611C59.2054 33.9517 59.1746 34.037 59.1438 34.1168C59.1148 34.1966 59.0803 34.2673 59.0404 34.329C59.0005 34.3888 58.9515 34.436 58.8935 34.4704C58.8373 34.5049 58.7666 34.5221 58.6813 34.5221Z" fill="white"/>
<path d="M60.4094 34.5221C60.3713 34.5221 60.335 34.5194 60.3006 34.514C60.2661 34.5085 60.2353 34.5003 60.2081 34.4895V34.1603C60.2226 34.1657 60.238 34.1712 60.2543 34.1766C60.2725 34.1803 60.2915 34.1821 60.3115 34.1821C60.3368 34.1821 60.3586 34.1775 60.3767 34.1685C60.3949 34.1594 60.4112 34.1467 60.4257 34.1304C60.4402 34.1141 60.4529 34.0959 60.4638 34.076C60.4946 34.0252 60.5218 33.9835 60.5454 33.9508C60.5708 33.9182 60.5971 33.8919 60.6243 33.8719C60.6515 33.852 60.6823 33.8366 60.7168 33.8257C60.6769 33.8094 60.6406 33.7876 60.608 33.7604C60.5772 33.7332 60.5527 33.6997 60.5345 33.6598C60.5164 33.618 60.5073 33.5691 60.5073 33.5129C60.5073 33.424 60.5236 33.3478 60.5563 33.2843C60.5908 33.2209 60.637 33.1692 60.695 33.1293C60.7549 33.0876 60.8238 33.0576 60.9018 33.0395C60.9798 33.0196 61.0623 33.0096 61.1493 33.0096H61.7696L61.4567 34.4949H61.0568L61.1765 33.9427H61.0949C61.0369 33.9427 60.9916 33.9617 60.9589 33.9998C60.9263 34.0361 60.8963 34.0823 60.8691 34.1385C60.8437 34.1948 60.812 34.2537 60.7739 34.3154C60.7503 34.3534 60.7222 34.3879 60.6896 34.4187C60.6569 34.4496 60.618 34.475 60.5726 34.4949C60.5273 34.513 60.4729 34.5221 60.4094 34.5221ZM61.1112 33.6706H61.2337L61.3126 33.2952H61.1439C61.1004 33.2952 61.0614 33.3034 61.0269 33.3197C60.9925 33.336 60.9653 33.3605 60.9453 33.3932C60.9254 33.424 60.9154 33.4621 60.9154 33.5074C60.9154 33.5564 60.9308 33.5963 60.9616 33.6271C60.9943 33.6561 61.0441 33.6706 61.1112 33.6706Z" fill="white"/>
<path d="M63.2136 34.5221C63.1029 34.5221 63.0041 34.4994 62.917 34.4541C62.8318 34.4069 62.7647 34.3408 62.7157 34.2555C62.6686 34.1703 62.645 34.0687 62.645 33.9508C62.645 33.8456 62.655 33.745 62.6749 33.6489C62.6967 33.5528 62.7284 33.4648 62.7701 33.385C62.8118 33.3034 62.8644 33.2327 62.9279 33.1728C62.9914 33.113 63.0648 33.0667 63.1483 33.0341C63.2335 32.9996 63.3287 32.9824 63.4339 32.9824C63.55 32.9824 63.6497 33.006 63.7331 33.0531C63.8166 33.0984 63.881 33.1655 63.9263 33.2544C63.9734 33.3415 63.997 33.4467 63.997 33.57C63.997 33.6697 63.987 33.7668 63.9671 33.8611C63.9471 33.9554 63.9163 34.0424 63.8746 34.1222C63.8347 34.202 63.7839 34.2718 63.7223 34.3317C63.6606 34.3915 63.5872 34.4387 63.5019 34.4731C63.4167 34.5058 63.3206 34.5221 63.2136 34.5221ZM63.2462 34.1957C63.2897 34.1957 63.3296 34.1848 63.3659 34.163C63.4022 34.1394 63.4348 34.1077 63.4638 34.0678C63.4928 34.0279 63.5164 33.9817 63.5346 33.9291C63.5545 33.8765 63.569 33.8193 63.5781 33.7577C63.589 33.696 63.5944 33.6335 63.5944 33.57C63.5944 33.5192 63.5881 33.4748 63.5754 33.4367C63.5645 33.3968 63.5445 33.366 63.5155 33.3442C63.4883 33.3206 63.4511 33.3088 63.404 33.3088C63.355 33.3088 63.3115 33.3224 63.2734 33.3496C63.2353 33.3768 63.2018 33.4131 63.1727 33.4584C63.1455 33.502 63.122 33.5518 63.102 33.6081C63.0839 33.6643 63.0703 33.7223 63.0612 33.7822C63.0521 33.8402 63.0476 33.8964 63.0476 33.9508C63.0476 34.0306 63.0639 34.0914 63.0966 34.1331C63.1292 34.1748 63.1791 34.1957 63.2462 34.1957Z" fill="white"/>
<path d="M64.8103 34.5058C64.6852 34.4913 64.58 34.4559 64.4947 34.3997C64.4095 34.3435 64.3451 34.2718 64.3016 34.1848C64.2581 34.0977 64.2363 34.0007 64.2363 33.8937C64.2363 33.8139 64.2463 33.7341 64.2662 33.6543C64.2862 33.5727 64.317 33.4947 64.3587 33.4204C64.4023 33.346 64.4585 33.2789 64.5274 33.2191C64.5963 33.1574 64.6806 33.1075 64.7804 33.0694C64.8801 33.0295 64.9962 33.006 65.1286 32.9987L65.2483 32.4274H65.6291L65.5094 33.0014C65.6926 33.0268 65.8323 33.0948 65.9284 33.2054C66.0245 33.3161 66.0726 33.4548 66.0726 33.6217C66.0726 33.6924 66.0644 33.7668 66.0481 33.8447C66.0336 33.9209 66.0064 33.9962 65.9665 34.0705C65.9284 34.1431 65.8758 34.2111 65.8087 34.2746C65.7416 34.3362 65.6573 34.3888 65.5557 34.4323C65.4541 34.4759 65.3308 34.5049 65.1857 34.5194L65.0579 35.1478H64.6716L64.8103 34.5058ZM65.0633 33.3088C64.9835 33.3143 64.9164 33.336 64.862 33.3741C64.8076 33.4122 64.7641 33.4594 64.7314 33.5156C64.7006 33.5718 64.6779 33.6307 64.6634 33.6924C64.6507 33.7541 64.6444 33.8103 64.6444 33.8611C64.6444 33.9209 64.6525 33.9753 64.6688 34.0243C64.687 34.0714 64.7124 34.1104 64.745 34.1413C64.7795 34.1703 64.8221 34.1884 64.8729 34.1957L65.0633 33.3088ZM65.2537 34.1957C65.3208 34.1866 65.378 34.1676 65.4251 34.1385C65.4723 34.1095 65.5113 34.0742 65.5421 34.0324C65.5747 33.9907 65.6001 33.9463 65.6183 33.8991C65.6364 33.852 65.6491 33.8057 65.6563 33.7604C65.6636 33.7133 65.6672 33.6697 65.6672 33.6298C65.6672 33.5754 65.6582 33.5265 65.64 33.4829C65.6237 33.4376 65.5983 33.4004 65.5639 33.3714C65.5312 33.3424 65.4904 33.3233 65.4414 33.3143L65.2537 34.1957Z" fill="white"/>
<path d="M66.7165 34.5221C66.6312 34.5221 66.5605 34.5049 66.5043 34.4704C66.4481 34.4342 66.4063 34.3843 66.3791 34.3208C66.3519 34.2573 66.3383 34.1821 66.3383 34.095C66.3383 34.0624 66.3411 34.0207 66.3465 33.9699C66.3519 33.9173 66.3601 33.8647 66.371 33.8121L66.5396 33.0096H66.9395L66.7573 33.8774C66.75 33.9064 66.7446 33.9345 66.7409 33.9617C66.7373 33.9889 66.7355 34.0134 66.7355 34.0352C66.7355 34.0914 66.7473 34.1331 66.7709 34.1603C66.7963 34.1857 66.8325 34.1984 66.8797 34.1984C66.9413 34.1984 66.9958 34.173 67.0429 34.1222C67.0919 34.0696 67.1345 33.9998 67.1708 33.9127C67.207 33.8257 67.2361 33.7296 67.2578 33.6244L67.3884 33.0096H67.7883L67.4727 34.4949H67.168L67.1953 34.2201H67.1817C67.1436 34.2782 67.1019 34.3308 67.0565 34.3779C67.0112 34.4233 66.9604 34.4586 66.9042 34.484C66.8479 34.5094 66.7854 34.5221 66.7165 34.5221Z" fill="white"/>
<path d="M68.5052 34.5221C68.4036 34.5221 68.3102 34.504 68.225 34.4677C68.1415 34.4296 68.0753 34.3707 68.0264 34.2909C67.9774 34.2111 67.9529 34.1059 67.9529 33.9753C67.9529 33.8683 67.9638 33.7658 67.9856 33.6679C68.0091 33.57 68.0418 33.4793 68.0835 33.3959C68.127 33.3125 68.1805 33.2399 68.244 33.1782C68.3075 33.1166 68.3809 33.0685 68.4644 33.0341C68.5478 32.9996 68.6394 32.9824 68.7391 32.9824C68.828 32.9824 68.9069 32.9905 68.9758 33.0069C69.0465 33.0232 69.1127 33.0468 69.1744 33.0776L69.052 33.3823C69.0048 33.3623 68.9576 33.3451 68.9105 33.3306C68.8652 33.3143 68.8135 33.3061 68.7554 33.3061C68.7047 33.3061 68.6584 33.3179 68.6167 33.3415C68.575 33.365 68.5378 33.3977 68.5052 33.4394C68.4743 33.4811 68.4471 33.5292 68.4235 33.5836C68.4018 33.638 68.3855 33.696 68.3746 33.7577C68.3637 33.8175 68.3583 33.8792 68.3583 33.9427C68.3583 33.9989 68.3673 34.046 68.3855 34.0841C68.4036 34.1222 68.429 34.1512 68.4616 34.1712C68.4961 34.1893 68.5378 34.1984 68.5868 34.1984C68.6539 34.1984 68.7155 34.1884 68.7718 34.1685C68.8298 34.1467 68.8896 34.1204 68.9513 34.0896V34.416C68.8896 34.4487 68.8225 34.475 68.75 34.4949C68.6793 34.513 68.5977 34.5221 68.5052 34.5221Z" fill="white"/>
<path d="M69.6869 34.5221C69.6162 34.5221 69.5481 34.5049 69.4829 34.4704C69.4194 34.4342 69.3677 34.377 69.3278 34.299C69.2879 34.2192 69.2679 34.1141 69.2679 33.9835C69.2679 33.8874 69.2779 33.7912 69.2979 33.6951C69.3196 33.599 69.3496 33.5083 69.3876 33.4231C69.4275 33.3378 69.4756 33.2626 69.5318 33.1973C69.588 33.1302 69.6515 33.0776 69.7222 33.0395C69.7948 33.0014 69.8728 32.9824 69.9562 32.9824C70.0197 32.9824 70.0741 32.9914 70.1194 33.0096C70.1666 33.0277 70.2065 33.0531 70.2391 33.0858C70.2736 33.1184 70.3017 33.1565 70.3235 33.2H70.3343L70.4105 33.0096H70.7179L70.4023 34.4949H70.1031L70.1221 34.3018H70.1113C70.0768 34.3453 70.0387 34.3834 69.997 34.416C69.9553 34.4487 69.909 34.475 69.8583 34.4949C69.8075 34.513 69.7504 34.5221 69.6869 34.5221ZM69.8447 34.1984C69.8991 34.1984 69.9499 34.1766 69.997 34.1331C70.0442 34.0896 70.0841 34.0334 70.1167 33.9644C70.1512 33.8955 70.1756 33.823 70.1902 33.7468C70.1974 33.7105 70.2019 33.6752 70.2038 33.6407C70.2074 33.6044 70.2092 33.5654 70.2092 33.5237C70.2092 33.4603 70.1929 33.4086 70.1602 33.3687C70.1276 33.327 70.0822 33.3061 70.0242 33.3061C69.9843 33.3061 69.9471 33.3188 69.9127 33.3442C69.8782 33.3696 69.8456 33.404 69.8147 33.4476C69.7857 33.4911 69.7603 33.541 69.7386 33.5972C69.7186 33.6534 69.7023 33.7133 69.6896 33.7767C69.6787 33.8384 69.6733 33.901 69.6733 33.9644C69.6733 34.0424 69.6878 34.1014 69.7168 34.1413C69.7476 34.1793 69.7903 34.1984 69.8447 34.1984Z" fill="white"/>
<path d="M8.38709 5.44153V17.1519V20.4878L11.716 17.1519H13.9668L10.1839 20.829L14.3451 26.0225H12.1321L8.97343 21.9852L8.38709 22.5728V26.0225H6.68481V5.44153H8.38709Z" fill="white"/>
<path d="M21.0288 24.8094C21.9115 24.8094 22.6176 24.4872 23.1472 23.8427C23.6516 23.2488 23.9038 22.497 23.9038 21.5872C23.9038 20.69 23.6453 19.9382 23.1283 19.3316C22.6113 18.7125 21.9115 18.4029 21.0288 18.4029C20.184 18.4029 19.5031 18.7188 18.9861 19.3506C18.4817 19.9697 18.2295 20.7153 18.2295 21.5872C18.2295 22.4717 18.4691 23.2172 18.9483 23.8238C19.4653 24.4809 20.1588 24.8094 21.0288 24.8094ZM25.5115 17.1519V26.0225H23.8092V24.6388H23.7714C23.0022 25.7634 21.9998 26.3257 20.764 26.3257C19.4527 26.3257 18.4061 25.8456 17.6243 24.8852C16.8929 23.988 16.5273 22.8697 16.5273 21.5303C16.5273 20.2667 16.8993 19.1863 17.6432 18.2891C18.4376 17.3541 19.459 16.8865 20.7073 16.8865C21.9809 16.8865 23.0022 17.4678 23.7714 18.6303H23.8092V17.1519H25.5115Z" fill="white"/>
<path d="M31.7595 17.1519V18.346H31.7974C32.3396 17.373 33.2285 16.8865 34.4643 16.8865C36.5574 16.8865 37.604 18.1691 37.604 20.7342V37.7752H35.9017V20.9427C35.9017 20.0708 35.7945 19.458 35.5802 19.1042C35.3028 18.6366 34.7606 18.4029 33.9536 18.4029C32.9826 18.4029 32.3459 18.7946 32.0432 19.578C31.8541 20.0329 31.7595 20.8227 31.7595 21.9473V26.0225H30.0573V17.1519H31.7595Z" fill="white"/>
<path d="M44.0424 24.4303H49.7924V26.0225H40.7325L46.7283 18.744H41.7538V17.1519H50.0382L44.0424 24.4303Z" fill="white"/>
<path d="M55.5693 5.44153V26.0225H53.867V5.44153H55.5693Z" fill="white"/>
<path d="M68.3077 21.8715H61.5554C61.5554 22.6676 61.795 23.3436 62.2741 23.8996C62.7785 24.5061 63.4279 24.8094 64.2223 24.8094C65.2815 24.8094 66.1641 24.2344 66.8703 23.0846L68.3077 23.8996C67.8916 24.6578 67.3179 25.2517 66.5865 25.6813C65.8552 26.1109 65.0608 26.3257 64.2034 26.3257C62.8794 26.3257 61.8202 25.8835 61.0258 24.9989C60.244 24.1144 59.8531 23.0024 59.8531 21.663C59.8531 20.2477 60.2125 19.1105 60.9312 18.2512C61.7004 17.3414 62.7785 16.8865 64.1655 16.8865C65.5148 16.8865 66.555 17.3414 67.2864 18.2512C67.9673 19.0979 68.3077 20.2162 68.3077 21.6061V21.8715ZM61.6499 20.5826H66.6055C66.492 19.9002 66.2209 19.3632 65.7922 18.9715C65.3634 18.5671 64.8212 18.365 64.1655 18.365C63.5098 18.365 62.9487 18.5735 62.4822 18.9904C62.0282 19.4074 61.7508 19.9382 61.6499 20.5826Z" fill="white"/>
<path d="M74.3145 17.1519V18.5924H74.3713C74.8252 17.4552 75.6322 16.8865 76.7923 16.8865C77.2714 16.8865 77.738 17.0318 78.1919 17.3225L77.4164 18.8767C77.139 18.6366 76.7923 18.5166 76.3762 18.5166C75.0017 18.5166 74.3713 19.6221 74.3713 21.7197V37.7328H72.6123V17.1519H74.3145Z" fill="white"/>
</svg>
