<svg width="189" height="212" viewBox="0 0 189 212" fill="none" xmlns="http://www.w3.org/2000/svg">
<rect width="189" height="212" rx="4.00424" fill="white"/>
<path d="M70.3691 155.972C67.5254 155.972 65.748 157.934 65.748 161.071C65.748 164.209 67.5254 166.164 70.3691 166.164C73.2061 166.164 74.9902 164.209 74.9902 161.071C74.9902 157.934 73.2061 155.972 70.3691 155.972ZM70.3691 157.318C72.2422 157.318 73.418 158.768 73.418 161.071C73.418 163.368 72.2422 164.817 70.3691 164.817C68.4961 164.817 67.3135 163.368 67.3135 161.071C67.3135 158.768 68.4961 157.318 70.3691 157.318ZM79.8779 164.906C78.4697 164.865 77.5811 163.936 77.5811 162.404C77.5811 160.88 78.4766 159.937 79.8779 159.902V164.906ZM83.5967 162.404C83.5967 163.936 82.6943 164.872 81.2998 164.906V159.902C82.7012 159.943 83.5967 160.873 83.5967 162.404ZM79.8711 166.096V168.379H81.3066V166.096C83.5762 166.055 85.0869 164.633 85.0869 162.404C85.0869 160.169 83.583 158.761 81.3066 158.72V156.478H79.8711V158.72C77.5879 158.754 76.084 160.176 76.084 162.404C76.084 164.646 77.5811 166.048 79.8711 166.096ZM87.8145 166L91.1367 160.948H91.1914V166H92.6475V158.809H91.1914L87.8691 163.847H87.8145V158.809H86.3584V166H87.8145ZM100.372 161.112C100.167 159.786 99.0596 158.679 97.2822 158.679C95.2383 158.679 93.9121 160.148 93.9121 162.404C93.9121 164.708 95.2383 166.137 97.2959 166.137C98.9912 166.137 100.174 165.152 100.386 163.71H98.9639C98.7588 164.462 98.1846 164.899 97.3096 164.899C96.1611 164.899 95.4092 163.963 95.4092 162.404C95.4092 160.887 96.1543 159.909 97.2959 159.909C98.2119 159.909 98.7588 160.449 98.9502 161.112H100.372ZM106.299 166H107.769V158.809H106.299V161.707H103.045V158.809H101.575V166H103.045V162.869H106.299V166ZM112.465 166.137C114.522 166.137 115.876 164.722 115.876 162.404C115.876 160.094 114.516 158.679 112.465 158.679C110.414 158.679 109.054 160.094 109.054 162.404C109.054 164.722 110.407 166.137 112.465 166.137ZM112.465 164.92C111.31 164.92 110.558 164.004 110.558 162.404C110.558 160.812 111.31 159.896 112.465 159.896C113.62 159.896 114.372 160.812 114.372 162.404C114.372 164.004 113.627 164.92 112.465 164.92ZM120.162 159.868C121.194 159.868 121.892 160.641 121.926 161.741H118.33C118.405 160.654 119.13 159.868 120.162 159.868ZM121.919 163.888C121.721 164.517 121.099 164.94 120.258 164.94C119.075 164.94 118.323 164.113 118.323 162.862V162.773H123.402V162.268C123.402 160.087 122.158 158.679 120.162 158.679C118.132 158.679 116.833 160.183 116.833 162.438C116.833 164.708 118.111 166.137 120.224 166.137C121.871 166.137 123.115 165.2 123.32 163.888H121.919ZM52.3086 180.137C54.3662 180.137 55.7197 178.722 55.7197 176.404C55.7197 174.094 54.3594 172.679 52.3086 172.679C50.2578 172.679 48.8975 174.094 48.8975 176.404C48.8975 178.722 50.251 180.137 52.3086 180.137ZM52.3086 178.92C51.1533 178.92 50.4014 178.004 50.4014 176.404C50.4014 174.812 51.1533 173.896 52.3086 173.896C53.4639 173.896 54.2158 174.812 54.2158 176.404C54.2158 178.004 53.4707 178.92 52.3086 178.92ZM60.1973 180.137C62.3164 180.137 63.6221 178.749 63.6221 176.486C63.6221 174.367 62.3779 173.014 60.4365 173.014C59.3086 173.014 58.4404 173.479 57.9824 174.326H57.9277C58.1943 172.296 58.8027 171.435 60.7236 171.366L61.3525 171.346C62.2344 171.312 62.9658 171.134 63.1504 170.963V169.739C62.8223 169.917 62.043 170.061 61.2705 170.095L60.6279 170.115C57.8936 170.211 56.7314 171.831 56.7314 175.823C56.7314 178.667 57.9482 180.137 60.1973 180.137ZM60.1836 178.899C58.9531 178.899 58.2422 178.038 58.2422 176.507C58.2422 175.051 58.96 174.217 60.1836 174.217C61.4004 174.217 62.1113 175.051 62.1113 176.507C62.1113 178.038 61.4004 178.899 60.1836 178.899ZM67.9902 180.137C70.0479 180.137 71.4014 178.722 71.4014 176.404C71.4014 174.094 70.041 172.679 67.9902 172.679C65.9395 172.679 64.5791 174.094 64.5791 176.404C64.5791 178.722 65.9326 180.137 67.9902 180.137ZM67.9902 178.92C66.835 178.92 66.083 178.004 66.083 176.404C66.083 174.812 66.835 173.896 67.9902 173.896C69.1455 173.896 69.8975 174.812 69.8975 176.404C69.8975 178.004 69.1523 178.92 67.9902 178.92ZM76.4258 172.692C75.3867 172.692 74.5596 173.219 74.1357 174.046H74.1084V172.809H72.6797V182.379H74.1562V178.817H74.1904C74.6006 179.617 75.4209 180.123 76.4531 180.123C78.2578 180.123 79.4541 178.681 79.4541 176.404C79.4541 174.128 78.251 172.692 76.4258 172.692ZM76.0361 178.872C74.9014 178.872 74.1494 177.901 74.1494 176.404C74.1494 174.921 74.9082 173.937 76.0361 173.937C77.2051 173.937 77.9365 174.9 77.9365 176.404C77.9365 177.915 77.2051 178.872 76.0361 178.872ZM81.252 182.68C82.749 182.68 83.4531 182.119 84.0684 180.376L86.7686 172.809H85.21L83.3848 178.66H83.3643L81.5391 172.809H79.9395L82.5371 180.007C82.5371 180.014 82.4072 180.438 82.4072 180.451C82.1816 181.189 81.8193 181.477 81.1289 181.477C81.0059 181.477 80.7598 181.477 80.6504 181.449V182.646C80.7598 182.666 81.1357 182.68 81.252 182.68ZM92.292 178.831H89.0312V178.776C89.3594 178.312 89.5371 177.573 89.5918 176.726L89.79 173.978H92.292V178.831ZM88.2041 181.887V180H93.5088V181.887H94.876V178.831H93.7617V172.809H88.5186L88.2588 176.664C88.1904 177.635 87.9512 178.503 87.4248 178.831H86.8438V181.887H88.2041ZM98.9707 180.137C101.028 180.137 102.382 178.722 102.382 176.404C102.382 174.094 101.021 172.679 98.9707 172.679C96.9199 172.679 95.5596 174.094 95.5596 176.404C95.5596 178.722 96.9131 180.137 98.9707 180.137ZM98.9707 178.92C97.8154 178.92 97.0635 178.004 97.0635 176.404C97.0635 174.812 97.8154 173.896 98.9707 173.896C100.126 173.896 100.878 174.812 100.878 176.404C100.878 178.004 100.133 178.92 98.9707 178.92ZM106.62 173.882C107.338 173.882 107.728 174.217 107.728 174.812C107.728 175.447 107.311 175.769 106.477 175.769H105.109V173.882H106.62ZM106.572 176.801C107.543 176.801 108.021 177.156 108.021 177.867C108.021 178.558 107.57 178.927 106.736 178.927H105.109V176.801H106.572ZM103.653 180H106.962C108.521 180 109.491 179.193 109.491 177.929C109.491 177.026 108.876 176.37 107.946 176.247V176.192C108.637 176.062 109.17 175.386 109.17 174.641C109.17 173.506 108.322 172.809 106.921 172.809H103.653V180ZM113.326 178.954C112.533 178.954 112.014 178.544 112.014 177.915C112.014 177.3 112.513 176.91 113.395 176.849L115.165 176.739V177.307C115.165 178.243 114.358 178.954 113.326 178.954ZM112.916 180.123C113.859 180.123 114.769 179.617 115.186 178.817H115.22V180H116.635V175.044C116.635 173.602 115.521 172.679 113.777 172.679C112 172.679 110.893 173.636 110.811 174.935H112.205C112.335 174.292 112.868 173.882 113.723 173.882C114.625 173.882 115.165 174.36 115.165 175.16V175.714L113.196 175.83C111.487 175.926 110.523 176.698 110.523 177.956C110.523 179.248 111.508 180.123 112.916 180.123ZM122.91 180H124.38V172.809H122.91V175.707H119.656V172.809H118.187V180H119.656V176.869H122.91V180ZM127.436 180L130.758 174.948H130.812V180H132.269V172.809H130.812L127.49 177.847H127.436V172.809H125.979V180H127.436ZM136.869 173.868C137.901 173.868 138.599 174.641 138.633 175.741H135.037C135.112 174.654 135.837 173.868 136.869 173.868ZM138.626 177.888C138.428 178.517 137.806 178.94 136.965 178.94C135.782 178.94 135.03 178.113 135.03 176.862V176.773H140.109V176.268C140.109 174.087 138.865 172.679 136.869 172.679C134.839 172.679 133.54 174.183 133.54 176.438C133.54 178.708 134.818 180.137 136.931 180.137C138.578 180.137 139.822 179.2 140.027 177.888H138.626Z" fill="#333333"/>
<line x1="109" y1="39.5" x2="149" y2="39.5" stroke="#333333" stroke-dasharray="1 6"/>
<line x1="40" y1="129.5" x2="60" y2="129.5" stroke="#333333" stroke-dasharray="1 6"/>
<rect width="82" height="82" transform="translate(54 43)" fill="white"/>
<path d="M63.6641 75.909C62.8723 75.5131 62.0805 75.1171 62.4764 73.9294L63 72L72 74.5L71.5 76.5C71.1041 77.6878 70.3944 77.8886 68.8108 77.4927L63.6641 75.909L63.6641 75.909Z" fill="#333333"/>
<path d="M129.976 92.5388C131.363 92.5388 131.759 93.3307 131.759 94.5184L131.759 103.044L131.759 109.167V111.542C131.759 112.73 131.363 113.523 129.976 113.523L56.7374 113.522C55.3604 113.522 54.9601 112.742 54.9542 111.569V109.167V103.044V94.5184C54.9542 93.3307 55.3501 92.5382 56.7374 92.5382L112.756 92.5387V86.477L60.4966 71.5553C59.7048 71.1594 59.7048 69.9716 60.1007 69.1798L58.913 68.8001C57.3294 68.4042 57.3294 67.2164 57.7253 66.0287L60.8925 55.3388C61.2884 54.5469 61.6051 53.9927 64.4556 54.9429L133.343 74.7389C134.002 74.8709 135.164 75.6099 134.53 77.5103C133.897 79.4108 131.891 85.6927 130.967 88.5961C130.687 89.4781 129.7 89.6093 127.8 88.9758C127.404 89.7676 127.008 90.5586 125.425 90.1627V92.5388L129.976 92.5388Z" fill="#EADDDD"/>
<path d="M54.9541 111.542C54.9541 111.551 54.9541 111.56 54.9542 111.569M54.9542 111.569C54.9601 112.742 55.3604 113.522 56.7374 113.522L129.976 113.523C131.363 113.523 131.759 112.73 131.759 111.542C131.759 110.829 131.759 110.026 131.759 109.167M54.9542 111.569V109.167M54.9542 103.044V94.5184C54.9542 93.3307 55.3501 92.5382 56.7374 92.5382L112.756 92.5387M54.9542 103.044H131.759M54.9542 103.044V109.167M131.759 103.044C131.759 99.0795 131.759 95.4173 131.759 94.5184C131.759 93.3307 131.363 92.5388 129.976 92.5388L125.425 92.5388M131.759 103.044C131.759 105.12 131.759 107.279 131.759 109.167M131.759 109.167H54.9542M125.425 92.5388V90.1627M125.425 92.5388L112.756 92.5387M125.425 90.1627C127.008 90.5586 127.404 89.7676 127.8 88.9758M125.425 90.1627L112.756 86.477M112.756 92.5387V86.477M112.756 86.477L60.4966 71.5553C59.7048 71.1594 59.7048 69.9716 60.1007 69.1798M60.1007 69.1798L127.8 88.9758M60.1007 69.1798L58.913 68.8001C57.3294 68.4042 57.3294 67.2164 57.7253 66.0287L60.8925 55.3388C61.2884 54.5469 61.6051 53.9927 64.4556 54.9429L133.343 74.7389C134.002 74.8709 135.164 75.6099 134.53 77.5103C133.897 79.4108 131.891 85.6927 130.967 88.5961C130.687 89.4781 129.7 89.6093 127.8 88.9758" stroke="white"/>
<path d="M125.425 90.1626V92.5387L112.756 92.5386V86.4769L125.425 90.1626Z" fill="#EA5A5A" stroke="white"/>
<path d="M131.759 94.5183C131.759 93.3305 131.363 92.5387 129.976 92.5387L125.425 92.5387L112.756 92.5386L56.7374 92.5381C55.3501 92.5381 54.9542 93.3305 54.9542 94.5183V103.044H131.759L131.759 94.5183Z" fill="#EA5A5A" stroke="white"/>
<path d="M60.4966 71.5551L125.425 90.1625C127.008 90.5584 127.404 89.7674 127.8 88.9756L60.1007 69.1796C59.7048 69.9714 59.7048 71.1592 60.4966 71.5551Z" fill="#333333" stroke="white"/>
</svg>
