<svg width="107" height="72" viewBox="0 0 107 72" fill="none" xmlns="http://www.w3.org/2000/svg">
<path d="M5.24316 1.97168C2.39941 1.97168 0.62207 3.93359 0.62207 7.07129C0.62207 10.209 2.39941 12.1641 5.24316 12.1641C8.08008 12.1641 9.86426 10.209 9.86426 7.07129C9.86426 3.93359 8.08008 1.97168 5.24316 1.97168ZM5.24316 3.31836C7.11621 3.31836 8.29199 4.76758 8.29199 7.07129C8.29199 9.36816 7.11621 10.8174 5.24316 10.8174C3.37012 10.8174 2.1875 9.36816 2.1875 7.07129C2.1875 4.76758 3.37012 3.31836 5.24316 3.31836ZM16.0439 5.97754V4.80859H11.2793V12H12.749V5.97754H16.0439ZM20.1455 12.1367C22.2031 12.1367 23.5566 10.7217 23.5566 8.4043C23.5566 6.09375 22.1963 4.67871 20.1455 4.67871C18.0947 4.67871 16.7344 6.09375 16.7344 8.4043C16.7344 10.7217 18.0879 12.1367 20.1455 12.1367ZM20.1455 10.9199C18.9902 10.9199 18.2383 10.0039 18.2383 8.4043C18.2383 6.81152 18.9902 5.89551 20.1455 5.89551C21.3008 5.89551 22.0527 6.81152 22.0527 8.4043C22.0527 10.0039 21.3076 10.9199 20.1455 10.9199ZM29.5518 12H31.0215V4.80859H29.5518V7.70703H26.2979V4.80859H24.8281V12H26.2979V8.86914H29.5518V12ZM35.8271 12.1367C37.9463 12.1367 39.252 10.749 39.252 8.48633C39.252 6.36719 38.0078 5.01367 36.0664 5.01367C34.9385 5.01367 34.0703 5.47852 33.6123 6.32617H33.5576C33.8242 4.2959 34.4326 3.43457 36.3535 3.36621L36.9824 3.3457C37.8643 3.31152 38.5957 3.13379 38.7803 2.96289V1.73926C38.4521 1.91699 37.6729 2.06055 36.9004 2.09473L36.2578 2.11523C33.5234 2.21094 32.3613 3.83105 32.3613 7.82324C32.3613 10.667 33.5781 12.1367 35.8271 12.1367ZM35.8135 10.8994C34.583 10.8994 33.8721 10.0381 33.8721 8.50684C33.8721 7.05078 34.5898 6.2168 35.8135 6.2168C37.0303 6.2168 37.7412 7.05078 37.7412 8.50684C37.7412 10.0381 37.0303 10.8994 35.8135 10.8994ZM43.0459 10.9541C42.2529 10.9541 41.7334 10.5439 41.7334 9.91504C41.7334 9.2998 42.2324 8.91016 43.1143 8.84863L44.8848 8.73926V9.30664C44.8848 10.2432 44.0781 10.9541 43.0459 10.9541ZM42.6357 12.123C43.5791 12.123 44.4883 11.6172 44.9053 10.8174H44.9395V12H46.3545V7.04395C46.3545 5.60156 45.2402 4.67871 43.4971 4.67871C41.7197 4.67871 40.6123 5.63574 40.5303 6.93457H41.9248C42.0547 6.29199 42.5879 5.88184 43.4424 5.88184C44.3447 5.88184 44.8848 6.36035 44.8848 7.16016V7.71387L42.916 7.83008C41.207 7.92578 40.2432 8.69824 40.2432 9.95605C40.2432 11.248 41.2275 12.123 42.6357 12.123ZM50.9209 5.86816C51.9531 5.86816 52.6504 6.64062 52.6846 7.74121H49.0889C49.1641 6.6543 49.8887 5.86816 50.9209 5.86816ZM52.6777 9.8877C52.4795 10.5166 51.8574 10.9404 51.0166 10.9404C49.834 10.9404 49.082 10.1133 49.082 8.8623V8.77344H54.1611V8.26758C54.1611 6.08691 52.917 4.67871 50.9209 4.67871C48.8906 4.67871 47.5918 6.18262 47.5918 8.43848C47.5918 10.708 48.8701 12.1367 50.9824 12.1367C52.6299 12.1367 53.874 11.2002 54.0791 9.8877H52.6777ZM58.3926 5.88184C59.1104 5.88184 59.5 6.2168 59.5 6.81152C59.5 7.44727 59.083 7.76855 58.249 7.76855H56.8818V5.88184H58.3926ZM58.3447 8.80078C59.3154 8.80078 59.7939 9.15625 59.7939 9.86719C59.7939 10.5576 59.3428 10.9268 58.5088 10.9268H56.8818V8.80078H58.3447ZM55.4258 12H58.7344C60.293 12 61.2637 11.1934 61.2637 9.92871C61.2637 9.02637 60.6484 8.37012 59.7188 8.24707V8.19238C60.4092 8.0625 60.9424 7.38574 60.9424 6.64062C60.9424 5.50586 60.0947 4.80859 58.6934 4.80859H55.4258V12ZM65.0986 10.9541C64.3057 10.9541 63.7861 10.5439 63.7861 9.91504C63.7861 9.2998 64.2852 8.91016 65.167 8.84863L66.9375 8.73926V9.30664C66.9375 10.2432 66.1309 10.9541 65.0986 10.9541ZM64.6885 12.123C65.6318 12.123 66.541 11.6172 66.958 10.8174H66.9922V12H68.4072V7.04395C68.4072 5.60156 67.293 4.67871 65.5498 4.67871C63.7725 4.67871 62.665 5.63574 62.583 6.93457H63.9775C64.1074 6.29199 64.6406 5.88184 65.4951 5.88184C66.3975 5.88184 66.9375 6.36035 66.9375 7.16016V7.71387L64.9688 7.83008C63.2598 7.92578 62.2959 8.69824 62.2959 9.95605C62.2959 11.248 63.2803 12.123 64.6885 12.123ZM70.9434 14.0303L71.873 10.4209H70.3828L69.7676 14.0303H70.9434ZM75.6328 5.02734V5.04102H77.082V5.02051C77.082 3.99512 77.8955 3.21582 78.9756 3.21582C80.001 3.21582 80.7939 3.91309 80.7939 4.78809C80.7939 5.56055 80.4795 6.08008 79.2764 7.33105L75.7148 10.9609V12H82.4619V10.708H77.7793V10.6738L80.2471 8.19238C81.6895 6.71582 82.3047 5.86133 82.3047 4.71289C82.3047 3.14746 80.9033 1.95117 79.0234 1.95117C77.0615 1.95117 75.6328 3.25 75.6328 5.02734ZM83.7402 5.02734V5.04102H85.1895V5.02051C85.1895 3.99512 86.0029 3.21582 87.083 3.21582C88.1084 3.21582 88.9014 3.91309 88.9014 4.78809C88.9014 5.56055 88.5869 6.08008 87.3838 7.33105L83.8223 10.9609V12H90.5693V10.708H85.8867V10.6738L88.3545 8.19238C89.7969 6.71582 90.4121 5.86133 90.4121 4.71289C90.4121 3.14746 89.0107 1.95117 87.1309 1.95117C85.1689 1.95117 83.7402 3.25 83.7402 5.02734ZM91.8477 5.02734V5.04102H93.2969V5.02051C93.2969 3.99512 94.1104 3.21582 95.1904 3.21582C96.2158 3.21582 97.0088 3.91309 97.0088 4.78809C97.0088 5.56055 96.6943 6.08008 95.4912 7.33105L91.9297 10.9609V12H98.6768V10.708H93.9941V10.6738L96.4619 8.19238C97.9043 6.71582 98.5195 5.86133 98.5195 4.71289C98.5195 3.14746 97.1182 1.95117 95.2383 1.95117C93.2764 1.95117 91.8477 3.25 91.8477 5.02734Z" fill="#333333"/>
<path d="M23.1768 43.1572C22.0602 43.1572 21.1852 42.7015 20.5518 41.79C19.9183 40.874 19.6016 39.6322 19.6016 38.0645C19.6016 36.5059 19.9206 35.2686 20.5586 34.3525C21.1966 33.4365 22.0693 32.9785 23.1768 32.9785C24.2887 32.9785 25.1615 33.4365 25.7949 34.3525C26.4284 35.264 26.7451 36.499 26.7451 38.0576C26.7451 39.6253 26.4284 40.8672 25.7949 41.7832C25.1615 42.6992 24.2887 43.1572 23.1768 43.1572ZM21.2422 41.1885C21.707 41.9541 22.3519 42.3369 23.1768 42.3369C24.0016 42.3369 24.6465 41.9541 25.1113 41.1885C25.5762 40.4229 25.8086 39.3815 25.8086 38.0645C25.8086 36.7565 25.5739 35.7197 25.1045 34.9541C24.6396 34.1885 23.9971 33.8057 23.1768 33.8057C22.361 33.8057 21.7184 34.1908 21.249 34.9609C20.7796 35.7311 20.5449 36.7633 20.5449 38.0576C20.5449 39.3792 20.7773 40.4229 21.2422 41.1885ZM28.4541 43L33.0273 33.9971V33.9697H27.5381V33.1357H33.9639V34.0107L29.4453 43H28.4541ZM35.9873 43L40.5605 33.9971V33.9697H35.0713V33.1357H41.4971V34.0107L36.9785 43H35.9873ZM43.5205 43L48.0938 33.9971V33.9697H42.6045V33.1357H49.0303V34.0107L44.5117 43H43.5205ZM56.3789 43.1572C55.5495 43.1572 54.8454 42.9294 54.2666 42.4736C53.6878 42.0133 53.3301 41.4072 53.1934 40.6553H54.1436C54.2666 41.1566 54.5309 41.5622 54.9365 41.8721C55.3421 42.182 55.8252 42.3369 56.3857 42.3369C57.2653 42.3369 57.9512 41.9518 58.4434 41.1816C58.9355 40.4069 59.193 39.3245 59.2158 37.9346C59.2158 37.9163 59.2135 37.8822 59.209 37.832C59.209 37.7773 59.209 37.7363 59.209 37.709H59.2021H59.1953C59.0085 38.265 58.6462 38.7184 58.1084 39.0693C57.5706 39.4202 56.9645 39.5957 56.29 39.5957C55.3512 39.5957 54.5697 39.2881 53.9453 38.6729C53.3255 38.0531 53.0156 37.2806 53.0156 36.3555C53.0156 35.3802 53.3392 34.5736 53.9863 33.9355C54.6335 33.2975 55.4515 32.9785 56.4404 32.9785C57.1058 32.9785 57.6982 33.1403 58.2178 33.4639C58.7419 33.7874 59.1543 34.2477 59.4551 34.8447C59.8971 35.6149 60.1182 36.6198 60.1182 37.8594C60.1182 39.5137 59.7878 40.8102 59.127 41.749C58.4661 42.6878 57.5501 43.1572 56.3789 43.1572ZM56.4404 38.7686C57.1468 38.7686 57.7415 38.5361 58.2246 38.0713C58.7122 37.6064 58.9561 37.0413 58.9561 36.376C58.9561 35.6605 58.7145 35.0566 58.2314 34.5645C57.7484 34.0677 57.1536 33.8193 56.4473 33.8193C55.7454 33.8193 55.1553 34.0609 54.6768 34.5439C54.1982 35.027 53.959 35.6217 53.959 36.3281C53.959 37.0208 54.1937 37.6019 54.6631 38.0713C55.1325 38.5361 55.7249 38.7686 56.4404 38.7686ZM64.917 43.1572C63.8005 43.1572 62.9255 42.7015 62.292 41.79C61.6585 40.874 61.3418 39.6322 61.3418 38.0645C61.3418 36.5059 61.6608 35.2686 62.2988 34.3525C62.9368 33.4365 63.8096 32.9785 64.917 32.9785C66.029 32.9785 66.9017 33.4365 67.5352 34.3525C68.1686 35.264 68.4854 36.499 68.4854 38.0576C68.4854 39.6253 68.1686 40.8672 67.5352 41.7832C66.9017 42.6992 66.029 43.1572 64.917 43.1572ZM62.9824 41.1885C63.4473 41.9541 64.0921 42.3369 64.917 42.3369C65.7419 42.3369 66.3867 41.9541 66.8516 41.1885C67.3164 40.4229 67.5488 39.3815 67.5488 38.0645C67.5488 36.7565 67.3141 35.7197 66.8447 34.9541C66.3799 34.1885 65.7373 33.8057 64.917 33.8057C64.1012 33.8057 63.4587 34.1908 62.9893 34.9609C62.5199 35.7311 62.2852 36.7633 62.2852 38.0576C62.2852 39.3792 62.5176 40.4229 62.9824 41.1885ZM72.751 35.8975C72.7555 35.0589 73.0563 34.3639 73.6533 33.8125C74.2549 33.2565 75.0068 32.9785 75.9092 32.9785C76.7705 32.9785 77.4974 33.2383 78.0898 33.7578C78.6823 34.2773 78.9785 34.9154 78.9785 35.6719C78.9785 36.2096 78.8281 36.7314 78.5273 37.2373C78.2311 37.7386 77.6729 38.4154 76.8525 39.2676L74.1045 42.1387V42.166H79.2314V43H72.7988V42.3438L76.2852 38.6592C76.9915 37.9163 77.4609 37.349 77.6934 36.957C77.9303 36.5651 78.0488 36.1549 78.0488 35.7266C78.0488 35.1888 77.8392 34.7331 77.4199 34.3594C77.0007 33.9857 76.488 33.7988 75.8818 33.7988C75.2484 33.7988 74.7197 33.9993 74.2959 34.4004C73.8766 34.7969 73.6624 35.2959 73.6533 35.8975V35.9043H72.751V35.8975ZM80.626 35.8975C80.6305 35.0589 80.9313 34.3639 81.5283 33.8125C82.1299 33.2565 82.8818 32.9785 83.7842 32.9785C84.6455 32.9785 85.3724 33.2383 85.9648 33.7578C86.5573 34.2773 86.8535 34.9154 86.8535 35.6719C86.8535 36.2096 86.7031 36.7314 86.4023 37.2373C86.1061 37.7386 85.5479 38.4154 84.7275 39.2676L81.9795 42.1387V42.166H87.1064V43H80.6738V42.3438L84.1602 38.6592C84.8665 37.9163 85.3359 37.349 85.5684 36.957C85.8053 36.5651 85.9238 36.1549 85.9238 35.7266C85.9238 35.1888 85.7142 34.7331 85.2949 34.3594C84.8757 33.9857 84.363 33.7988 83.7568 33.7988C83.1234 33.7988 82.5947 33.9993 82.1709 34.4004C81.7516 34.7969 81.5374 35.2959 81.5283 35.8975V35.9043H80.626V35.8975ZM93.3135 38.3037V37.5107H94.4619C95.1045 37.5107 95.6286 37.333 96.0342 36.9775C96.4398 36.6221 96.6426 36.1686 96.6426 35.6172C96.6426 35.0749 96.4489 34.6374 96.0615 34.3047C95.6787 33.9674 95.1592 33.7988 94.5029 33.7988C93.8923 33.7988 93.3864 33.9674 92.9854 34.3047C92.5843 34.6419 92.3587 35.084 92.3086 35.6309H91.4062C91.4655 34.8379 91.7799 34.1976 92.3496 33.71C92.9238 33.2223 93.6553 32.9785 94.5439 32.9785C95.4144 32.9785 96.139 33.2178 96.7178 33.6963C97.2965 34.1702 97.5859 34.7718 97.5859 35.501C97.5859 36.1162 97.4014 36.6335 97.0322 37.0527C96.6631 37.472 96.1618 37.7386 95.5283 37.8525V37.8799C96.2848 37.9255 96.8864 38.167 97.333 38.6045C97.7842 39.0374 98.0098 39.6025 98.0098 40.2998C98.0098 40.8467 97.8594 41.3389 97.5586 41.7764C97.2578 42.2139 96.8477 42.5534 96.3281 42.7949C95.8086 43.0365 95.2321 43.1572 94.5986 43.1572C93.6143 43.1572 92.8099 42.9043 92.1855 42.3984C91.5612 41.8926 91.2331 41.2409 91.2012 40.4434H92.1035C92.14 40.9993 92.3861 41.4551 92.8418 41.8105C93.3021 42.1615 93.8854 42.3369 94.5918 42.3369C95.3073 42.3369 95.8975 42.1478 96.3623 41.7695C96.8271 41.3913 97.0596 40.9105 97.0596 40.3271C97.0596 39.6982 96.8317 39.2038 96.376 38.8438C95.9202 38.4837 95.2959 38.3037 94.5029 38.3037H93.3135ZM101.407 38.3037V37.5107H102.556C103.198 37.5107 103.722 37.333 104.128 36.9775C104.534 36.6221 104.736 36.1686 104.736 35.6172C104.736 35.0749 104.543 34.6374 104.155 34.3047C103.772 33.9674 103.253 33.7988 102.597 33.7988C101.986 33.7988 101.48 33.9674 101.079 34.3047C100.678 34.6419 100.452 35.084 100.402 35.6309H99.5C99.5592 34.8379 99.8737 34.1976 100.443 33.71C101.018 33.2223 101.749 32.9785 102.638 32.9785C103.508 32.9785 104.233 33.2178 104.812 33.6963C105.39 34.1702 105.68 34.7718 105.68 35.501C105.68 36.1162 105.495 36.6335 105.126 37.0527C104.757 37.472 104.256 37.7386 103.622 37.8525V37.8799C104.379 37.9255 104.98 38.167 105.427 38.6045C105.878 39.0374 106.104 39.6025 106.104 40.2998C106.104 40.8467 105.953 41.3389 105.652 41.7764C105.352 42.2139 104.941 42.5534 104.422 42.7949C103.902 43.0365 103.326 43.1572 102.692 43.1572C101.708 43.1572 100.904 42.9043 100.279 42.3984C99.6549 41.8926 99.3268 41.2409 99.2949 40.4434H100.197C100.234 40.9993 100.48 41.4551 100.936 41.8105C101.396 42.1615 101.979 42.3369 102.686 42.3369C103.401 42.3369 103.991 42.1478 104.456 41.7695C104.921 41.3913 105.153 40.9105 105.153 40.3271C105.153 39.6982 104.925 39.2038 104.47 38.8438C104.014 38.4837 103.39 38.3037 102.597 38.3037H101.407Z" fill="#333333"/>
<rect x="3.5" y="31.5" width="8" height="12" stroke="#333333"/>
<path d="M8 42C8 42.2761 7.77614 42.5 7.5 42.5C7.22386 42.5 7 42.2761 7 42C7 41.7239 7.22386 41.5 7.5 41.5C7.77614 41.5 8 41.7239 8 42Z" fill="#333333"/>
<path d="M23.1768 70.1572C22.0602 70.1572 21.1852 69.7015 20.5518 68.79C19.9183 67.874 19.6016 66.6322 19.6016 65.0645C19.6016 63.5059 19.9206 62.2686 20.5586 61.3525C21.1966 60.4365 22.0693 59.9785 23.1768 59.9785C24.2887 59.9785 25.1615 60.4365 25.7949 61.3525C26.4284 62.264 26.7451 63.499 26.7451 65.0576C26.7451 66.6253 26.4284 67.8672 25.7949 68.7832C25.1615 69.6992 24.2887 70.1572 23.1768 70.1572ZM21.2422 68.1885C21.707 68.9541 22.3519 69.3369 23.1768 69.3369C24.0016 69.3369 24.6465 68.9541 25.1113 68.1885C25.5762 67.4229 25.8086 66.3815 25.8086 65.0645C25.8086 63.7565 25.5739 62.7197 25.1045 61.9541C24.6396 61.1885 23.9971 60.8057 23.1768 60.8057C22.361 60.8057 21.7184 61.1908 21.249 61.9609C20.7796 62.7311 20.5449 63.7633 20.5449 65.0576C20.5449 66.3792 20.7773 67.4229 21.2422 68.1885ZM30.0811 65.3037V64.5107H31.2295C31.8721 64.5107 32.3962 64.333 32.8018 63.9775C33.2074 63.6221 33.4102 63.1686 33.4102 62.6172C33.4102 62.0749 33.2165 61.6374 32.8291 61.3047C32.4463 60.9674 31.9268 60.7988 31.2705 60.7988C30.6598 60.7988 30.154 60.9674 29.7529 61.3047C29.3519 61.6419 29.1263 62.084 29.0762 62.6309H28.1738C28.2331 61.8379 28.5475 61.1976 29.1172 60.71C29.6914 60.2223 30.4229 59.9785 31.3115 59.9785C32.182 59.9785 32.9066 60.2178 33.4854 60.6963C34.0641 61.1702 34.3535 61.7718 34.3535 62.501C34.3535 63.1162 34.1689 63.6335 33.7998 64.0527C33.4307 64.472 32.9294 64.7386 32.2959 64.8525V64.8799C33.0524 64.9255 33.654 65.167 34.1006 65.6045C34.5518 66.0374 34.7773 66.6025 34.7773 67.2998C34.7773 67.8467 34.627 68.3389 34.3262 68.7764C34.0254 69.2139 33.6152 69.5534 33.0957 69.7949C32.5762 70.0365 31.9997 70.1572 31.3662 70.1572C30.3818 70.1572 29.5775 69.9043 28.9531 69.3984C28.3288 68.8926 28.0007 68.2409 27.9688 67.4434H28.8711C28.9076 67.9993 29.1536 68.4551 29.6094 68.8105C30.0697 69.1615 30.653 69.3369 31.3594 69.3369C32.0749 69.3369 32.665 69.1478 33.1299 68.7695C33.5947 68.3913 33.8271 67.9105 33.8271 67.3271C33.8271 66.6982 33.5993 66.2038 33.1436 65.8438C32.6878 65.4837 32.0635 65.3037 31.2705 65.3037H30.0811ZM38.7217 70V61.1406H38.6943C38.6305 61.1816 38.1999 61.4801 37.4023 62.0361C36.6048 62.5876 36.1536 62.8952 36.0488 62.959V61.9609C36.1309 61.9108 36.5684 61.61 37.3613 61.0586C38.1543 60.5072 38.6032 60.1995 38.708 60.1357H39.624V70H38.7217ZM42.0166 62.8975C42.0212 62.0589 42.3219 61.3639 42.9189 60.8125C43.5205 60.2565 44.2725 59.9785 45.1748 59.9785C46.0361 59.9785 46.763 60.2383 47.3555 60.7578C47.9479 61.2773 48.2441 61.9154 48.2441 62.6719C48.2441 63.2096 48.0938 63.7314 47.793 64.2373C47.4967 64.7386 46.9385 65.4154 46.1182 66.2676L43.3701 69.1387V69.166H48.4971V70H42.0645V69.3438L45.5508 65.6592C46.2572 64.9163 46.7266 64.349 46.959 63.957C47.196 63.5651 47.3145 63.1549 47.3145 62.7266C47.3145 62.1888 47.1048 61.7331 46.6855 61.3594C46.2663 60.9857 45.7536 60.7988 45.1475 60.7988C44.514 60.7988 43.9854 60.9993 43.5615 61.4004C43.1423 61.7969 42.9281 62.2959 42.9189 62.8975V62.9043H42.0166V62.8975ZM55.8594 70.1572C55.0299 70.1572 54.3258 69.9294 53.7471 69.4736C53.1683 69.0133 52.8105 68.4072 52.6738 67.6553H53.624C53.7471 68.1566 54.0114 68.5622 54.417 68.8721C54.8226 69.182 55.3057 69.3369 55.8662 69.3369C56.7458 69.3369 57.4316 68.9518 57.9238 68.1816C58.416 67.4069 58.6735 66.3245 58.6963 64.9346C58.6963 64.9163 58.694 64.8822 58.6895 64.832C58.6895 64.7773 58.6895 64.7363 58.6895 64.709H58.6826H58.6758C58.4889 65.265 58.1266 65.7184 57.5889 66.0693C57.0511 66.4202 56.445 66.5957 55.7705 66.5957C54.8317 66.5957 54.0501 66.2881 53.4258 65.6729C52.806 65.0531 52.4961 64.2806 52.4961 63.3555C52.4961 62.3802 52.8197 61.5736 53.4668 60.9355C54.1139 60.2975 54.932 59.9785 55.9209 59.9785C56.5863 59.9785 57.1787 60.1403 57.6982 60.4639C58.2223 60.7874 58.6348 61.2477 58.9355 61.8447C59.3776 62.6149 59.5986 63.6198 59.5986 64.8594C59.5986 66.5137 59.2682 67.8102 58.6074 68.749C57.9466 69.6878 57.0306 70.1572 55.8594 70.1572ZM55.9209 65.7686C56.6273 65.7686 57.222 65.5361 57.7051 65.0713C58.1927 64.6064 58.4365 64.0413 58.4365 63.376C58.4365 62.6605 58.195 62.0566 57.7119 61.5645C57.2288 61.0677 56.6341 60.8193 55.9277 60.8193C55.2259 60.8193 54.6357 61.0609 54.1572 61.5439C53.6787 62.027 53.4395 62.6217 53.4395 63.3281C53.4395 64.0208 53.6742 64.6019 54.1436 65.0713C54.613 65.5361 55.2054 65.7686 55.9209 65.7686ZM64.3975 70.1572C63.2809 70.1572 62.4059 69.7015 61.7725 68.79C61.139 67.874 60.8223 66.6322 60.8223 65.0645C60.8223 63.5059 61.1413 62.2686 61.7793 61.3525C62.4173 60.4365 63.29 59.9785 64.3975 59.9785C65.5094 59.9785 66.3822 60.4365 67.0156 61.3525C67.6491 62.264 67.9658 63.499 67.9658 65.0576C67.9658 66.6253 67.6491 67.8672 67.0156 68.7832C66.3822 69.6992 65.5094 70.1572 64.3975 70.1572ZM62.4629 68.1885C62.9277 68.9541 63.5726 69.3369 64.3975 69.3369C65.2223 69.3369 65.8672 68.9541 66.332 68.1885C66.7969 67.4229 67.0293 66.3815 67.0293 65.0645C67.0293 63.7565 66.7946 62.7197 66.3252 61.9541C65.8604 61.1885 65.2178 60.8057 64.3975 60.8057C63.5817 60.8057 62.9391 61.1908 62.4697 61.9609C62.0003 62.7311 61.7656 63.7633 61.7656 65.0576C61.7656 66.3792 61.998 67.4229 62.4629 68.1885ZM72.2314 62.8975C72.236 62.0589 72.5368 61.3639 73.1338 60.8125C73.7354 60.2565 74.4873 59.9785 75.3896 59.9785C76.251 59.9785 76.9779 60.2383 77.5703 60.7578C78.1628 61.2773 78.459 61.9154 78.459 62.6719C78.459 63.2096 78.3086 63.7314 78.0078 64.2373C77.7116 64.7386 77.1533 65.4154 76.333 66.2676L73.585 69.1387V69.166H78.7119V70H72.2793V69.3438L75.7656 65.6592C76.472 64.9163 76.9414 64.349 77.1738 63.957C77.4108 63.5651 77.5293 63.1549 77.5293 62.7266C77.5293 62.1888 77.3197 61.7331 76.9004 61.3594C76.4811 60.9857 75.9684 60.7988 75.3623 60.7988C74.7288 60.7988 74.2002 60.9993 73.7764 61.4004C73.3571 61.7969 73.1429 62.2959 73.1338 62.8975V62.9043H72.2314V62.8975ZM80.1064 62.8975C80.111 62.0589 80.4118 61.3639 81.0088 60.8125C81.6104 60.2565 82.3623 59.9785 83.2646 59.9785C84.126 59.9785 84.8529 60.2383 85.4453 60.7578C86.0378 61.2773 86.334 61.9154 86.334 62.6719C86.334 63.2096 86.1836 63.7314 85.8828 64.2373C85.5866 64.7386 85.0283 65.4154 84.208 66.2676L81.46 69.1387V69.166H86.5869V70H80.1543V69.3438L83.6406 65.6592C84.347 64.9163 84.8164 64.349 85.0488 63.957C85.2858 63.5651 85.4043 63.1549 85.4043 62.7266C85.4043 62.1888 85.1947 61.7331 84.7754 61.3594C84.3561 60.9857 83.8434 60.7988 83.2373 60.7988C82.6038 60.7988 82.0752 60.9993 81.6514 61.4004C81.2321 61.7969 81.0179 62.2959 81.0088 62.8975V62.9043H80.1064V62.8975ZM92.7939 65.3037V64.5107H93.9424C94.585 64.5107 95.109 64.333 95.5146 63.9775C95.9202 63.6221 96.123 63.1686 96.123 62.6172C96.123 62.0749 95.9294 61.6374 95.542 61.3047C95.1592 60.9674 94.6396 60.7988 93.9834 60.7988C93.3727 60.7988 92.8669 60.9674 92.4658 61.3047C92.0648 61.6419 91.8392 62.084 91.7891 62.6309H90.8867C90.946 61.8379 91.2604 61.1976 91.8301 60.71C92.4043 60.2223 93.1357 59.9785 94.0244 59.9785C94.8949 59.9785 95.6195 60.2178 96.1982 60.6963C96.777 61.1702 97.0664 61.7718 97.0664 62.501C97.0664 63.1162 96.8818 63.6335 96.5127 64.0527C96.1436 64.472 95.6423 64.7386 95.0088 64.8525V64.8799C95.7653 64.9255 96.3669 65.167 96.8135 65.6045C97.2646 66.0374 97.4902 66.6025 97.4902 67.2998C97.4902 67.8467 97.3398 68.3389 97.0391 68.7764C96.7383 69.2139 96.3281 69.5534 95.8086 69.7949C95.2891 70.0365 94.7126 70.1572 94.0791 70.1572C93.0947 70.1572 92.2904 69.9043 91.666 69.3984C91.0417 68.8926 90.7135 68.2409 90.6816 67.4434H91.584C91.6204 67.9993 91.8665 68.4551 92.3223 68.8105C92.7826 69.1615 93.3659 69.3369 94.0723 69.3369C94.7878 69.3369 95.3779 69.1478 95.8428 68.7695C96.3076 68.3913 96.54 67.9105 96.54 67.3271C96.54 66.6982 96.3122 66.2038 95.8564 65.8438C95.4007 65.4837 94.7764 65.3037 93.9834 65.3037H92.7939ZM100.888 65.3037V64.5107H102.036C102.679 64.5107 103.203 64.333 103.608 63.9775C104.014 63.6221 104.217 63.1686 104.217 62.6172C104.217 62.0749 104.023 61.6374 103.636 61.3047C103.253 60.9674 102.733 60.7988 102.077 60.7988C101.466 60.7988 100.961 60.9674 100.56 61.3047C100.159 61.6419 99.9329 62.084 99.8828 62.6309H98.9805C99.0397 61.8379 99.3542 61.1976 99.9238 60.71C100.498 60.2223 101.229 59.9785 102.118 59.9785C102.989 59.9785 103.713 60.2178 104.292 60.6963C104.871 61.1702 105.16 61.7718 105.16 62.501C105.16 63.1162 104.976 63.6335 104.606 64.0527C104.237 64.472 103.736 64.7386 103.103 64.8525V64.8799C103.859 64.9255 104.461 65.167 104.907 65.6045C105.358 66.0374 105.584 66.6025 105.584 67.2998C105.584 67.8467 105.434 68.3389 105.133 68.7764C104.832 69.2139 104.422 69.5534 103.902 69.7949C103.383 70.0365 102.806 70.1572 102.173 70.1572C101.188 70.1572 100.384 69.9043 99.7598 69.3984C99.1354 68.8926 98.8073 68.2409 98.7754 67.4434H99.6777C99.7142 67.9993 99.9603 68.4551 100.416 68.8105C100.876 69.1615 101.46 69.3369 102.166 69.3369C102.882 69.3369 103.472 69.1478 103.937 68.7695C104.401 68.3913 104.634 67.9105 104.634 67.3271C104.634 66.6982 104.406 66.2038 103.95 65.8438C103.494 65.4837 102.87 65.3037 102.077 65.3037H100.888Z" fill="#333333"/>
<path d="M6.26089 65.3742C6.85135 66.1722 7.60801 66.8295 8.47774 67.2999L9.85485 66.4727C9.89514 66.4521 9.94062 66.4444 9.98527 66.4505C10.0299 66.4566 10.0717 66.4763 10.1049 66.5069L12.2029 68.3216C12.2831 68.3867 12.3471 68.4697 12.39 68.5642C12.4328 68.6587 12.4533 68.762 12.4498 68.8659C12.4462 68.9699 12.4188 69.0717 12.3697 69.1632C12.3206 69.2548 12.2511 69.3336 12.1667 69.3935C12.0823 69.4534 11.0122 70.2852 10.9399 70.3226C10.8676 70.36 10.8676 70.36 10.688 70.4472C10.4711 70.4807 10.2925 70.4388 10.086 70.3647C8.025 69.6315 6.21146 68.3269 4.85263 66.6001C3.53062 64.863 2.73723 62.7745 2.5687 60.5879C2.55229 60.3702 2.53139 60.2442 2.5545 60.078C2.57672 59.9118 2.59997 59.7456 2.70301 59.6074C2.80606 59.4692 3.97113 58.6704 3.97113 58.6704C4.05021 58.608 4.14219 58.5645 4.24018 58.543C4.33818 58.5216 4.43965 58.5228 4.537 58.5465C4.63435 58.5703 4.72506 58.616 4.80233 58.6802C4.8796 58.7445 4.94143 58.8255 4.98319 58.9174L6.20192 61.4244C6.22342 61.4641 6.23171 61.5097 6.22556 61.5546C6.21942 61.5995 6.19915 61.6412 6.16776 61.6737L4.98956 62.7618C5.21584 63.7176 5.65012 64.61 6.26089 65.3742Z" fill="#333333"/>
</svg>
