<svg width="189" height="212" viewBox="0 0 189 212" fill="none" xmlns="http://www.w3.org/2000/svg">
<rect width="189" height="212" rx="4.00424" fill="white"/>
<path d="M46.042 180V170.136H38.0439V180H39.582V171.469H44.5176V180H46.042ZM49.2686 180L52.5908 174.948H52.6455V180H54.1016V172.809H52.6455L49.3232 177.847H49.2686V172.809H47.8125V180H49.2686ZM61.8262 175.112C61.6211 173.786 60.5137 172.679 58.7363 172.679C56.6924 172.679 55.3662 174.148 55.3662 176.404C55.3662 178.708 56.6924 180.137 58.75 180.137C60.4453 180.137 61.6279 179.152 61.8398 177.71H60.418C60.2129 178.462 59.6387 178.899 58.7637 178.899C57.6152 178.899 56.8633 177.963 56.8633 176.404C56.8633 174.887 57.6084 173.909 58.75 173.909C59.666 173.909 60.2129 174.449 60.4043 175.112H61.8262ZM65.7432 176.186C66.584 176.186 67.1377 176.712 67.1377 177.512C67.1377 178.305 66.5908 178.838 65.7432 178.838H64.499V176.186H65.7432ZM63.0293 180H65.873C67.5342 180 68.6074 179.036 68.6074 177.512C68.6074 175.994 67.5342 175.03 65.873 175.03H64.499V172.809H63.0293V180ZM71.2598 180V175.01H71.3076L73.4609 179.72H74.541L76.6943 175.01H76.7422V180H78.1777V172.809H76.3662L74.0488 178.079H73.9941L71.6904 172.809H69.8379V180H71.2598ZM82.8604 180.137C84.918 180.137 86.2715 178.722 86.2715 176.404C86.2715 174.094 84.9111 172.679 82.8604 172.679C80.8096 172.679 79.4492 174.094 79.4492 176.404C79.4492 178.722 80.8027 180.137 82.8604 180.137ZM82.8604 178.92C81.7051 178.92 80.9531 178.004 80.9531 176.404C80.9531 174.812 81.7051 173.896 82.8604 173.896C84.0156 173.896 84.7676 174.812 84.7676 176.404C84.7676 178.004 84.0225 178.92 82.8604 178.92ZM91.8428 180L95.165 174.948H95.2197V180H96.6758V172.809H95.2197L91.8975 177.847H91.8428V172.809H90.3867V180H91.8428ZM105.87 173.978V172.809H101.105V180H102.575V173.978H105.87ZM110.86 172.692C109.821 172.692 108.994 173.219 108.57 174.046H108.543V172.809H107.114V182.379H108.591V178.817H108.625C109.035 179.617 109.855 180.123 110.888 180.123C112.692 180.123 113.889 178.681 113.889 176.404C113.889 174.128 112.686 172.692 110.86 172.692ZM110.471 178.872C109.336 178.872 108.584 177.901 108.584 176.404C108.584 174.921 109.343 173.937 110.471 173.937C111.64 173.937 112.371 174.9 112.371 176.404C112.371 177.915 111.64 178.872 110.471 178.872ZM117.683 178.954C116.89 178.954 116.37 178.544 116.37 177.915C116.37 177.3 116.869 176.91 117.751 176.849L119.521 176.739V177.307C119.521 178.243 118.715 178.954 117.683 178.954ZM117.272 180.123C118.216 180.123 119.125 179.617 119.542 178.817H119.576V180H120.991V175.044C120.991 173.602 119.877 172.679 118.134 172.679C116.356 172.679 115.249 173.636 115.167 174.935H116.562C116.691 174.292 117.225 173.882 118.079 173.882C118.981 173.882 119.521 174.36 119.521 175.16V175.714L117.553 175.83C115.844 175.926 114.88 176.698 114.88 177.956C114.88 179.248 115.864 180.123 117.272 180.123ZM126.016 178.906C124.607 178.865 123.719 177.936 123.719 176.404C123.719 174.88 124.614 173.937 126.016 173.902V178.906ZM129.734 176.404C129.734 177.936 128.832 178.872 127.438 178.906V173.902C128.839 173.943 129.734 174.873 129.734 176.404ZM126.009 180.096V182.379H127.444V180.096C129.714 180.055 131.225 178.633 131.225 176.404C131.225 174.169 129.721 172.761 127.444 172.72V170.478H126.009V172.72C123.726 172.754 122.222 174.176 122.222 176.404C122.222 178.646 123.719 180.048 126.009 180.096ZM133.952 180L137.274 174.948H137.329V180H138.785V172.809H137.329L134.007 177.847H133.952V172.809H132.496V180H133.952ZM143.29 176.186L146.476 172.809H144.712L141.896 175.885H141.841V172.809H140.371V180H141.841V176.685H141.896L144.746 180H146.599L143.29 176.186ZM149.866 178.954C149.073 178.954 148.554 178.544 148.554 177.915C148.554 177.3 149.053 176.91 149.935 176.849L151.705 176.739V177.307C151.705 178.243 150.898 178.954 149.866 178.954ZM149.456 180.123C150.399 180.123 151.309 179.617 151.726 178.817H151.76V180H153.175V175.044C153.175 173.602 152.061 172.679 150.317 172.679C148.54 172.679 147.433 173.636 147.351 174.935H148.745C148.875 174.292 149.408 173.882 150.263 173.882C151.165 173.882 151.705 174.36 151.705 175.16V175.714L149.736 175.83C148.027 175.926 147.063 176.698 147.063 177.956C147.063 179.248 148.048 180.123 149.456 180.123Z" fill="#333333"/>
<line x1="40.5" y1="80" x2="40.5" y2="128" stroke="#333333" stroke-dasharray="1 6"/>
<g clip-path="url(#clip0_175_13804)">
<path d="M68 123V51H74.5H78.5H121V123H68Z" fill="#EADDDD"/>
<path d="M72 123V51H78.5H82.5H125V123H72Z" fill="#EADDDD"/>
<path d="M117.5 125V49H117.613H117.991H122V125H117.5Z" stroke="white"/>
<path d="M64 123V51H70.5C70.5 50.3333 71 49 72.5 49C74 49 74.5 50.3333 74.5 51H117V123H64Z" fill="#EADDDD"/>
<path d="M74.5 51C74.5 50.3333 74 49 72.5 49C71 49 70.5 50.3333 70.5 51V60.5C70.5 61.1667 71 62.5 72.5 62.5C74 62.5 74.5 61.1667 74.5 60.5V56.5" stroke="#333333"/>
<rect x="103.621" y="65" width="3.70709" height="3.70709" transform="rotate(45 103.621 65)" fill="#EA5A5A"/>
</g>
<line x1="149.5" y1="40" x2="149.5" y2="88" stroke="#333333" stroke-dasharray="1 6"/>
<defs>
<clipPath id="clip0_175_13804">
<rect width="82" height="82" fill="white" transform="translate(54 43)"/>
</clipPath>
</defs>
</svg>
