<svg width="189" height="212" viewBox="0 0 189 212" fill="none" xmlns="http://www.w3.org/2000/svg">
<rect width="189" height="212" rx="4.00424" fill="white"/>
<path d="M46.042 180V170.136H38.0439V180H39.582V171.469H44.5176V180H46.042ZM49.2686 180L52.5908 174.948H52.6455V180H54.1016V172.809H52.6455L49.3232 177.847H49.2686V172.809H47.8125V180H49.2686ZM61.8262 175.112C61.6211 173.786 60.5137 172.679 58.7363 172.679C56.6924 172.679 55.3662 174.148 55.3662 176.404C55.3662 178.708 56.6924 180.137 58.75 180.137C60.4453 180.137 61.6279 179.152 61.8398 177.71H60.418C60.2129 178.462 59.6387 178.899 58.7637 178.899C57.6152 178.899 56.8633 177.963 56.8633 176.404C56.8633 174.887 57.6084 173.909 58.75 173.909C59.666 173.909 60.2129 174.449 60.4043 175.112H61.8262ZM65.7432 176.186C66.584 176.186 67.1377 176.712 67.1377 177.512C67.1377 178.305 66.5908 178.838 65.7432 178.838H64.499V176.186H65.7432ZM63.0293 180H65.873C67.5342 180 68.6074 179.036 68.6074 177.512C68.6074 175.994 67.5342 175.03 65.873 175.03H64.499V172.809H63.0293V180ZM71.2598 180V175.01H71.3076L73.4609 179.72H74.541L76.6943 175.01H76.7422V180H78.1777V172.809H76.3662L74.0488 178.079H73.9941L71.6904 172.809H69.8379V180H71.2598ZM82.8604 180.137C84.918 180.137 86.2715 178.722 86.2715 176.404C86.2715 174.094 84.9111 172.679 82.8604 172.679C80.8096 172.679 79.4492 174.094 79.4492 176.404C79.4492 178.722 80.8027 180.137 82.8604 180.137ZM82.8604 178.92C81.7051 178.92 80.9531 178.004 80.9531 176.404C80.9531 174.812 81.7051 173.896 82.8604 173.896C84.0156 173.896 84.7676 174.812 84.7676 176.404C84.7676 178.004 84.0225 178.92 82.8604 178.92ZM91.8428 180L95.165 174.948H95.2197V180H96.6758V172.809H95.2197L91.8975 177.847H91.8428V172.809H90.3867V180H91.8428ZM105.87 173.978V172.809H101.105V180H102.575V173.978H105.87ZM110.86 172.692C109.821 172.692 108.994 173.219 108.57 174.046H108.543V172.809H107.114V182.379H108.591V178.817H108.625C109.035 179.617 109.855 180.123 110.888 180.123C112.692 180.123 113.889 178.681 113.889 176.404C113.889 174.128 112.686 172.692 110.86 172.692ZM110.471 178.872C109.336 178.872 108.584 177.901 108.584 176.404C108.584 174.921 109.343 173.937 110.471 173.937C111.64 173.937 112.371 174.9 112.371 176.404C112.371 177.915 111.64 178.872 110.471 178.872ZM117.683 178.954C116.89 178.954 116.37 178.544 116.37 177.915C116.37 177.3 116.869 176.91 117.751 176.849L119.521 176.739V177.307C119.521 178.243 118.715 178.954 117.683 178.954ZM117.272 180.123C118.216 180.123 119.125 179.617 119.542 178.817H119.576V180H120.991V175.044C120.991 173.602 119.877 172.679 118.134 172.679C116.356 172.679 115.249 173.636 115.167 174.935H116.562C116.691 174.292 117.225 173.882 118.079 173.882C118.981 173.882 119.521 174.36 119.521 175.16V175.714L117.553 175.83C115.844 175.926 114.88 176.698 114.88 177.956C114.88 179.248 115.864 180.123 117.272 180.123ZM126.016 178.906C124.607 178.865 123.719 177.936 123.719 176.404C123.719 174.88 124.614 173.937 126.016 173.902V178.906ZM129.734 176.404C129.734 177.936 128.832 178.872 127.438 178.906V173.902C128.839 173.943 129.734 174.873 129.734 176.404ZM126.009 180.096V182.379H127.444V180.096C129.714 180.055 131.225 178.633 131.225 176.404C131.225 174.169 129.721 172.761 127.444 172.72V170.478H126.009V172.72C123.726 172.754 122.222 174.176 122.222 176.404C122.222 178.646 123.719 180.048 126.009 180.096ZM133.952 180L137.274 174.948H137.329V180H138.785V172.809H137.329L134.007 177.847H133.952V172.809H132.496V180H133.952ZM143.29 176.186L146.476 172.809H144.712L141.896 175.885H141.841V172.809H140.371V180H141.841V176.685H141.896L144.746 180H146.599L143.29 176.186ZM149.866 178.954C149.073 178.954 148.554 178.544 148.554 177.915C148.554 177.3 149.053 176.91 149.935 176.849L151.705 176.739V177.307C151.705 178.243 150.898 178.954 149.866 178.954ZM149.456 180.123C150.399 180.123 151.309 179.617 151.726 178.817H151.76V180H153.175V175.044C153.175 173.602 152.061 172.679 150.317 172.679C148.54 172.679 147.433 173.636 147.351 174.935H148.745C148.875 174.292 149.408 173.882 150.263 173.882C151.165 173.882 151.705 174.36 151.705 175.16V175.714L149.736 175.83C148.027 175.926 147.063 176.698 147.063 177.956C147.063 179.248 148.048 180.123 149.456 180.123Z" fill="#333333"/>
<line x1="40.5" y1="40" x2="40.5" y2="88" stroke="#333333" stroke-dasharray="1 6"/>
<g clip-path="url(#clip0_175_13789)">
<path d="M69.4568 123.439L97.3148 123.439C103.657 123.439 83.1917 115.242 96.0462 113.982C112.114 112.408 118.034 120.674 126.491 110.991" stroke="url(#paint0_linear_175_13789)" stroke-width="0.572093"/>
<path d="M72.272 114.707L73.7235 115.545L75.1751 116.383C74.7434 117.131 73.8665 118.918 73.8128 120.084L73.6777 120.172C72.2464 121.109 69.4585 122.932 69.0821 123.584C69.4585 122.932 69.6442 119.606 69.7395 117.898L69.7485 117.737C70.7311 117.108 71.8402 115.455 72.272 114.707Z" fill="#EA5A5A"/>
<path d="M73.8055 111.604L72.3483 114.128L75.6385 116.028L77.0957 113.504L73.8055 111.604Z" fill="#EA5A5A"/>
<path d="M74.0753 111.137L75.7204 112.086L77.3656 113.036L82.4927 104.156L80.8476 103.206L79.2025 102.256L74.0753 111.137Z" fill="#EA5A5A"/>
<path d="M78.8917 101.454L83.3432 104.024L99.0484 76.8214L94.5969 74.2513L78.8917 101.454Z" fill="#EA5A5A"/>
<path d="M94.6732 73.6722L99.5118 76.4657L100.969 73.9418L96.1304 71.1483L94.6732 73.6722Z" fill="#EA5A5A"/>
<path d="M96.497 70.7367L98.9163 72.1335L101.142 73.4185L114.095 50.9837L111.869 49.6987L109.45 48.3019L96.497 70.7367Z" fill="#EA5A5A"/>
<path d="M109.774 47.741L112.193 49.1378L114.419 50.4228L115.757 48.3287C116.016 47.7306 116.167 46.322 114.309 45.2493C112.451 44.1766 111.306 45.0115 110.918 45.5352L109.774 47.741Z" fill="#EA5A5A"/>
<path d="M96.7799 68.9059C96.5065 58.6523 105.517 48.8564 109.28 46.5838C102.575 53.0575 100.91 58.8263 99.9139 61.2428C98.6279 64.3641 97.7849 66.4948 96.7799 68.9059Z" fill="#EA5A5A"/>
<path d="M109.774 47.741L112.193 49.1378L114.419 50.4228L115.757 48.3287C116.016 47.7306 116.167 46.322 114.309 45.2493C112.451 44.1766 111.306 45.0115 110.918 45.5352L109.774 47.741Z" fill="#EA5A5A"/>
<path d="M94.6731 73.6722L99.5117 76.4658L100.969 73.9419L96.1303 71.1483L94.6731 73.6722Z" fill="#F7F0F0"/>
<path d="M73.8051 111.604L72.3479 114.128L75.6381 116.028L77.0953 113.504L73.8051 111.604Z" fill="#F7F0F0"/>
</g>
<rect x="63.5" y="42.5503" width="7" height="7" transform="rotate(45 63.5 42.5503)" fill="#F7F0F0"/>
<rect x="126" y="81.7573" width="6" height="6" transform="rotate(45 126 81.7573)" fill="#F7F0F0"/>
<line x1="149.5" y1="80" x2="149.5" y2="128" stroke="#333333" stroke-dasharray="1 6"/>
<defs>
<linearGradient id="paint0_linear_175_13789" x1="93.932" y1="123.088" x2="128.183" y2="109.557" gradientUnits="userSpaceOnUse">
<stop stop-color="#202020"/>
<stop offset="1" stop-color="#202020" stop-opacity="0"/>
</linearGradient>
<clipPath id="clip0_175_13789">
<rect width="82" height="82" fill="white" transform="translate(54 43)"/>
</clipPath>
</defs>
</svg>
