<svg width="189" height="212" viewBox="0 0 189 212" fill="none" xmlns="http://www.w3.org/2000/svg">
<rect width="189" height="212" rx="4.00424" fill="white"/>
<path d="M45.4463 166V156.136H37.4482V166H38.9863V157.469H43.9219V166H45.4463ZM50.3135 166.137C52.3711 166.137 53.7246 164.722 53.7246 162.404C53.7246 160.094 52.3643 158.679 50.3135 158.679C48.2627 158.679 46.9023 160.094 46.9023 162.404C46.9023 164.722 48.2559 166.137 50.3135 166.137ZM50.3135 164.92C49.1582 164.92 48.4062 164.004 48.4062 162.404C48.4062 160.812 49.1582 159.896 50.3135 159.896C51.4688 159.896 52.2207 160.812 52.2207 162.404C52.2207 164.004 51.4756 164.92 50.3135 164.92ZM56.9102 162.726L57.1084 159.978H59.3232V166H60.793V158.809H55.8096L55.5635 162.664C55.4814 163.915 55.2354 164.749 54.5381 164.749C54.3535 164.749 54.2168 164.715 54.1484 164.694V165.993C54.2373 166.027 54.4082 166.068 54.6475 166.068C56.2607 166.068 56.7734 164.763 56.9102 162.726ZM63.835 166L67.1572 160.948H67.2119V166H68.668V158.809H67.2119L63.8896 163.847H63.835V158.809H62.3789V166H63.835ZM75.0186 159.978V158.809H70.2539V166H71.7236V159.978H75.0186ZM80.0088 158.692C78.9697 158.692 78.1426 159.219 77.7188 160.046H77.6914V158.809H76.2627V168.379H77.7393V164.817H77.7734C78.1836 165.617 79.0039 166.123 80.0361 166.123C81.8408 166.123 83.0371 164.681 83.0371 162.404C83.0371 160.128 81.834 158.692 80.0088 158.692ZM79.6191 164.872C78.4844 164.872 77.7324 163.901 77.7324 162.404C77.7324 160.921 78.4912 159.937 79.6191 159.937C80.7881 159.937 81.5195 160.9 81.5195 162.404C81.5195 163.915 80.7881 164.872 79.6191 164.872ZM86.8311 164.954C86.0381 164.954 85.5186 164.544 85.5186 163.915C85.5186 163.3 86.0176 162.91 86.8994 162.849L88.6699 162.739V163.307C88.6699 164.243 87.8633 164.954 86.8311 164.954ZM86.4209 166.123C87.3643 166.123 88.2734 165.617 88.6904 164.817H88.7246V166H90.1396V161.044C90.1396 159.602 89.0254 158.679 87.2822 158.679C85.5049 158.679 84.3975 159.636 84.3154 160.935H85.71C85.8398 160.292 86.373 159.882 87.2275 159.882C88.1299 159.882 88.6699 160.36 88.6699 161.16V161.714L86.7012 161.83C84.9922 161.926 84.0283 162.698 84.0283 163.956C84.0283 165.248 85.0127 166.123 86.4209 166.123ZM95.1641 164.906C93.7559 164.865 92.8672 163.936 92.8672 162.404C92.8672 160.88 93.7627 159.937 95.1641 159.902V164.906ZM98.8828 162.404C98.8828 163.936 97.9805 164.872 96.5859 164.906V159.902C97.9873 159.943 98.8828 160.873 98.8828 162.404ZM95.1572 166.096V168.379H96.5928V166.096C98.8623 166.055 100.373 164.633 100.373 162.404C100.373 160.169 98.8691 158.761 96.5928 158.72V156.478H95.1572V158.72C92.874 158.754 91.3701 160.176 91.3701 162.404C91.3701 164.646 92.8672 166.048 95.1572 166.096ZM103.101 166L106.423 160.948H106.478V166H107.934V158.809H106.478L103.155 163.847H103.101V158.809H101.645V166H103.101ZM115.323 166V158.809H113.86V161.639C113.56 161.994 113.02 162.295 112.22 162.295C111.311 162.295 110.825 161.734 110.825 160.839V158.809H109.355V160.948C109.355 162.521 110.292 163.553 111.987 163.553C112.78 163.553 113.375 163.307 113.765 162.938H113.86V166H115.323ZM119.931 159.868C120.963 159.868 121.66 160.641 121.694 161.741H118.099C118.174 160.654 118.898 159.868 119.931 159.868ZM121.688 163.888C121.489 164.517 120.867 164.94 120.026 164.94C118.844 164.94 118.092 164.113 118.092 162.862V162.773H123.171V162.268C123.171 160.087 121.927 158.679 119.931 158.679C117.9 158.679 116.602 160.183 116.602 162.438C116.602 164.708 117.88 166.137 119.992 166.137C121.64 166.137 122.884 165.2 123.089 163.888H121.688ZM130.574 161.112C130.369 159.786 129.262 158.679 127.484 158.679C125.44 158.679 124.114 160.148 124.114 162.404C124.114 164.708 125.44 166.137 127.498 166.137C129.193 166.137 130.376 165.152 130.588 163.71H129.166C128.961 164.462 128.387 164.899 127.512 164.899C126.363 164.899 125.611 163.963 125.611 162.404C125.611 160.887 126.356 159.909 127.498 159.909C128.414 159.909 128.961 160.449 129.152 161.112H130.574ZM134.696 162.186L137.882 158.809H136.118L133.302 161.885H133.247V158.809H131.777V166H133.247V162.685H133.302L136.152 166H138.005L134.696 162.186ZM140.384 166L143.706 160.948H143.761V166H145.217V158.809H143.761L140.438 163.847H140.384V158.809H138.928V166H140.384ZM149.817 159.868C150.85 159.868 151.547 160.641 151.581 161.741H147.985C148.061 160.654 148.785 159.868 149.817 159.868ZM151.574 163.888C151.376 164.517 150.754 164.94 149.913 164.94C148.73 164.94 147.979 164.113 147.979 162.862V162.773H153.058V162.268C153.058 160.087 151.813 158.679 149.817 158.679C147.787 158.679 146.488 160.183 146.488 162.438C146.488 164.708 147.767 166.137 149.879 166.137C151.526 166.137 152.771 165.2 152.976 163.888H151.574ZM61.4424 180V175.01H61.4902L63.6436 179.72H64.7236L66.877 175.01H66.9248V180H68.3604V172.809H66.5488L64.2314 178.079H64.1768L61.873 172.809H60.0205V180H61.4424ZM72.4688 178.954C71.6758 178.954 71.1562 178.544 71.1562 177.915C71.1562 177.3 71.6553 176.91 72.5371 176.849L74.3076 176.739V177.307C74.3076 178.243 73.501 178.954 72.4688 178.954ZM72.0586 180.123C73.002 180.123 73.9111 179.617 74.3281 178.817H74.3623V180H75.7773V175.044C75.7773 173.602 74.6631 172.679 72.9199 172.679C71.1426 172.679 70.0352 173.636 69.9531 174.935H71.3477C71.4775 174.292 72.0107 173.882 72.8652 173.882C73.7676 173.882 74.3076 174.36 74.3076 175.16V175.714L72.3389 175.83C70.6299 175.926 69.666 176.698 69.666 177.956C69.666 179.248 70.6504 180.123 72.0586 180.123ZM82.6885 172.809H76.707V173.978H78.9629V180H80.4326V173.978H82.6885V172.809ZM86.6465 173.868C87.6787 173.868 88.376 174.641 88.4102 175.741H84.8145C84.8896 174.654 85.6143 173.868 86.6465 173.868ZM88.4033 177.888C88.2051 178.517 87.583 178.94 86.7422 178.94C85.5596 178.94 84.8076 178.113 84.8076 176.862V176.773H89.8867V176.268C89.8867 174.087 88.6426 172.679 86.6465 172.679C84.6162 172.679 83.3174 174.183 83.3174 176.438C83.3174 178.708 84.5957 180.137 86.708 180.137C88.3555 180.137 89.5996 179.2 89.8047 177.888H88.4033ZM94.9043 172.692C93.8652 172.692 93.0381 173.219 92.6143 174.046H92.5869V172.809H91.1582V182.379H92.6348V178.817H92.6689C93.0791 179.617 93.8994 180.123 94.9316 180.123C96.7363 180.123 97.9326 178.681 97.9326 176.404C97.9326 174.128 96.7295 172.692 94.9043 172.692ZM94.5146 178.872C93.3799 178.872 92.6279 177.901 92.6279 176.404C92.6279 174.921 93.3867 173.937 94.5146 173.937C95.6836 173.937 96.415 174.9 96.415 176.404C96.415 177.915 95.6836 178.872 94.5146 178.872ZM100.66 180L103.982 174.948H104.037V180H105.493V172.809H104.037L100.715 177.847H100.66V172.809H99.2041V180H100.66ZM109.602 178.954C108.809 178.954 108.289 178.544 108.289 177.915C108.289 177.3 108.788 176.91 109.67 176.849L111.44 176.739V177.307C111.44 178.243 110.634 178.954 109.602 178.954ZM109.191 180.123C110.135 180.123 111.044 179.617 111.461 178.817H111.495V180H112.91V175.044C112.91 173.602 111.796 172.679 110.053 172.679C108.275 172.679 107.168 173.636 107.086 174.935H108.48C108.61 174.292 109.144 173.882 109.998 173.882C110.9 173.882 111.44 174.36 111.44 175.16V175.714L109.472 175.83C107.763 175.926 106.799 176.698 106.799 177.956C106.799 179.248 107.783 180.123 109.191 180.123ZM116.636 176.726L116.834 173.978H119.049V180H120.519V172.809H115.535L115.289 176.664C115.207 177.915 114.961 178.749 114.264 178.749C114.079 178.749 113.942 178.715 113.874 178.694V179.993C113.963 180.027 114.134 180.068 114.373 180.068C115.986 180.068 116.499 178.763 116.636 176.726ZM128.51 180H129.973V172.809H128.51V180ZM124.818 176.186C125.659 176.186 126.213 176.712 126.213 177.512C126.213 178.305 125.666 178.838 124.818 178.838H123.574V176.186H124.818ZM122.104 180H124.948C126.609 180 127.683 179.036 127.683 177.512C127.683 175.994 126.609 175.03 124.948 175.03H123.574V172.809H122.104V180Z" fill="#333333"/>
<rect x="12" y="52" width="8" height="8" fill="#EFEFEF"/>
<rect x="12" y="32" width="8" height="8" fill="#EFEFEF"/>
<rect x="12" y="12" width="8" height="8" fill="#EFEFEF"/>
<rect x="12" y="72" width="8" height="8" fill="#EFEFEF"/>
<rect x="12" y="92" width="8" height="8" fill="#EFEFEF"/>
<rect x="12" y="112" width="8" height="8" fill="#EFEFEF"/>
<rect x="12" y="132" width="8" height="8" fill="#EFEFEF"/>
<rect x="12" y="152" width="8" height="8" fill="#EFEFEF"/>
<rect x="12" y="172" width="8" height="8" fill="#EFEFEF"/>
<rect x="12" y="192" width="8" height="8" fill="#EFEFEF"/>
<line x1="40.5" y1="40" x2="40.5" y2="68" stroke="black" stroke-dasharray="1 6"/>
<rect x="48.1737" y="126.312" width="5.11863" height="5.11863" transform="rotate(135 48.1737 126.312)" fill="#F7F0F0"/>
<rect x="137.828" y="42.3568" width="3.49435" height="3.49435" transform="rotate(135 137.828 42.3568)" fill="#F7F0F0"/>
<line x1="149.5" y1="104" x2="149.5" y2="130" stroke="black" stroke-dasharray="1 6"/>
</svg>
