<svg width="142" height="93" viewBox="0 0 142 93" fill="none" xmlns="http://www.w3.org/2000/svg">
<path d="M0.977539 2.13574V12H2.50879V8.62988H4.62793C6.5625 8.62988 7.92285 7.30371 7.92285 5.37598C7.92285 3.45508 6.58984 2.13574 4.67578 2.13574H0.977539ZM2.50879 3.42773H4.27246C5.59863 3.42773 6.35742 4.13867 6.35742 5.38281C6.35742 6.62695 5.59863 7.34473 4.26562 7.34473H2.50879V3.42773ZM12.0107 5.86816C13.043 5.86816 13.7402 6.64062 13.7744 7.74121H10.1787C10.2539 6.6543 10.9785 5.86816 12.0107 5.86816ZM13.7676 9.8877C13.5693 10.5166 12.9473 10.9404 12.1064 10.9404C10.9238 10.9404 10.1719 10.1133 10.1719 8.8623V8.77344H15.251V8.26758C15.251 6.08691 14.0068 4.67871 12.0107 4.67871C9.98047 4.67871 8.68164 6.18262 8.68164 8.43848C8.68164 10.708 9.95996 12.1367 12.0723 12.1367C13.7197 12.1367 14.9639 11.2002 15.1689 9.8877H13.7676ZM23.1191 8.18555L26.0654 4.80859H24.3223L21.7109 7.88477H21.6562V4.80859H20.2002V7.88477H20.1523L17.541 4.80859H15.7842L18.751 8.21289L15.7021 12H17.5068L20.1523 8.68457H20.2002V12H21.6562V8.68457H21.7109L24.3564 12H26.1885L23.1191 8.18555ZM28.5674 12L31.8896 6.94824H31.9443V12H33.4004V4.80859H31.9443L28.6221 9.84668H28.5674V4.80859H27.1113V12H28.5674ZM36.4082 12V7.00977H36.4561L38.6094 11.7197H39.6895L41.8428 7.00977H41.8906V12H43.3262V4.80859H41.5146L39.1973 10.0791H39.1426L36.8389 4.80859H34.9863V12H36.4082ZM51.5088 4.69238C50.4697 4.69238 49.6426 5.21875 49.2188 6.0459H49.1914V4.80859H47.7627V14.3789H49.2393V10.8174H49.2734C49.6836 11.6172 50.5039 12.123 51.5361 12.123C53.3408 12.123 54.5371 10.6807 54.5371 8.4043C54.5371 6.12793 53.334 4.69238 51.5088 4.69238ZM51.1191 10.8721C49.9844 10.8721 49.2324 9.90137 49.2324 8.4043C49.2324 6.9209 49.9912 5.93652 51.1191 5.93652C52.2881 5.93652 53.0195 6.90039 53.0195 8.4043C53.0195 9.91504 52.2881 10.8721 51.1191 10.8721ZM58.3311 10.9541C57.5381 10.9541 57.0186 10.5439 57.0186 9.91504C57.0186 9.2998 57.5176 8.91016 58.3994 8.84863L60.1699 8.73926V9.30664C60.1699 10.2432 59.3633 10.9541 58.3311 10.9541ZM57.9209 12.123C58.8643 12.123 59.7734 11.6172 60.1904 10.8174H60.2246V12H61.6396V7.04395C61.6396 5.60156 60.5254 4.67871 58.7822 4.67871C57.0049 4.67871 55.8975 5.63574 55.8154 6.93457H57.21C57.3398 6.29199 57.873 5.88184 58.7275 5.88184C59.6299 5.88184 60.1699 6.36035 60.1699 7.16016V7.71387L58.2012 7.83008C56.4922 7.92578 55.5283 8.69824 55.5283 9.95605C55.5283 11.248 56.5127 12.123 57.9209 12.123ZM66.3975 12.1367C68.5166 12.1367 69.8223 10.749 69.8223 8.48633C69.8223 6.36719 68.5781 5.01367 66.6367 5.01367C65.5088 5.01367 64.6406 5.47852 64.1826 6.32617H64.1279C64.3945 4.2959 65.0029 3.43457 66.9238 3.36621L67.5527 3.3457C68.4346 3.31152 69.166 3.13379 69.3506 2.96289V1.73926C69.0225 1.91699 68.2432 2.06055 67.4707 2.09473L66.8281 2.11523C64.0938 2.21094 62.9316 3.83105 62.9316 7.82324C62.9316 10.667 64.1484 12.1367 66.3975 12.1367ZM66.3838 10.8994C65.1533 10.8994 64.4424 10.0381 64.4424 8.50684C64.4424 7.05078 65.1602 6.2168 66.3838 6.2168C67.6006 6.2168 68.3115 7.05078 68.3115 8.50684C68.3115 10.0381 67.6006 10.8994 66.3838 10.8994ZM74.1904 12.1367C76.248 12.1367 77.6016 10.7217 77.6016 8.4043C77.6016 6.09375 76.2412 4.67871 74.1904 4.67871C72.1396 4.67871 70.7793 6.09375 70.7793 8.4043C70.7793 10.7217 72.1328 12.1367 74.1904 12.1367ZM74.1904 10.9199C73.0352 10.9199 72.2832 10.0039 72.2832 8.4043C72.2832 6.81152 73.0352 5.89551 74.1904 5.89551C75.3457 5.89551 76.0977 6.81152 76.0977 8.4043C76.0977 10.0039 75.3525 10.9199 74.1904 10.9199ZM84.0957 4.80859H78.1143V5.97754H80.3701V12H81.8398V5.97754H84.0957V4.80859ZM91.5811 12H93.0439V4.80859H91.5811V12ZM87.8896 8.18555C88.7305 8.18555 89.2842 8.71191 89.2842 9.51172C89.2842 10.3047 88.7373 10.8379 87.8896 10.8379H86.6455V8.18555H87.8896ZM85.1758 12H88.0195C89.6807 12 90.7539 11.0361 90.7539 9.51172C90.7539 7.99414 89.6807 7.03027 88.0195 7.03027H86.6455V4.80859H85.1758V12ZM95.6826 12.0752C96.1816 12.0752 96.5781 11.6787 96.5781 11.1797C96.5781 10.6807 96.1816 10.2842 95.6826 10.2842C95.1836 10.2842 94.7871 10.6807 94.7871 11.1797C94.7871 11.6787 95.1836 12.0752 95.6826 12.0752ZM95.6826 7.0918C96.1816 7.0918 96.5781 6.70215 96.5781 6.19629C96.5781 5.69727 96.1816 5.30078 95.6826 5.30078C95.1836 5.30078 94.7871 5.69727 94.7871 6.19629C94.7871 6.70215 95.1836 7.0918 95.6826 7.0918Z" fill="#EA5A5A"/>
<path d="M8.50391 45H7.58105V35.9902H1.92773V45H0.991211V35.1357H8.50391V45ZM15.1484 45V41.6914H11.2383V45H10.3428V37.8906H11.2383V40.9395H15.1484V37.8906H16.0439V45H15.1484ZM22.1279 41.4385H17.6436V40.5908H22.1279V41.4385ZM31.377 45H30.4541V35.9902H24.8008V45H23.8643V35.1357H31.377V45ZM38.377 37.8906V38.6426H35.957V45H35.0615V38.6426H32.6416V37.8906H38.377ZM45.4043 45.1572C44.5749 45.1572 43.8708 44.9294 43.292 44.4736C42.7132 44.0133 42.3555 43.4072 42.2188 42.6553H43.1689C43.292 43.1566 43.5563 43.5622 43.9619 43.8721C44.3675 44.182 44.8506 44.3369 45.4111 44.3369C46.2907 44.3369 46.9766 43.9518 47.4688 43.1816C47.9609 42.4069 48.2184 41.3245 48.2412 39.9346C48.2412 39.9163 48.2389 39.8822 48.2344 39.832C48.2344 39.7773 48.2344 39.7363 48.2344 39.709H48.2275H48.2207C48.0339 40.265 47.6715 40.7184 47.1338 41.0693C46.596 41.4202 45.9899 41.5957 45.3154 41.5957C44.3766 41.5957 43.5951 41.2881 42.9707 40.6729C42.3509 40.0531 42.041 39.2806 42.041 38.3555C42.041 37.3802 42.3646 36.5736 43.0117 35.9355C43.6589 35.2975 44.4769 34.9785 45.4658 34.9785C46.1312 34.9785 46.7236 35.1403 47.2432 35.4639C47.7673 35.7874 48.1797 36.2477 48.4805 36.8447C48.9225 37.6149 49.1436 38.6198 49.1436 39.8594C49.1436 41.5137 48.8132 42.8102 48.1523 43.749C47.4915 44.6878 46.5755 45.1572 45.4043 45.1572ZM45.4658 40.7686C46.1722 40.7686 46.7669 40.5361 47.25 40.0713C47.7376 39.6064 47.9814 39.0413 47.9814 38.376C47.9814 37.6605 47.7399 37.0566 47.2568 36.5645C46.7738 36.0677 46.179 35.8193 45.4727 35.8193C44.7708 35.8193 44.1807 36.0609 43.7021 36.5439C43.2236 37.027 42.9844 37.6217 42.9844 38.3281C42.9844 39.0208 43.2191 39.6019 43.6885 40.0713C44.1579 40.5361 44.7503 40.7686 45.4658 40.7686ZM51.5498 44.877C51.4268 45 51.2764 45.0615 51.0986 45.0615C50.9209 45.0615 50.7682 45 50.6406 44.877C50.5176 44.7539 50.4561 44.6035 50.4561 44.4258C50.4561 44.2435 50.5176 44.0908 50.6406 43.9678C50.7682 43.8447 50.9209 43.7832 51.0986 43.7832C51.2764 43.7832 51.4268 43.8447 51.5498 43.9678C51.6729 44.0908 51.7344 44.2435 51.7344 44.4258C51.7344 44.6035 51.6729 44.7539 51.5498 44.877ZM56.8682 45.1572C55.7516 45.1572 54.8766 44.7015 54.2432 43.79C53.6097 42.874 53.293 41.6322 53.293 40.0645C53.293 38.5059 53.612 37.2686 54.25 36.3525C54.888 35.4365 55.7607 34.9785 56.8682 34.9785C57.9801 34.9785 58.8529 35.4365 59.4863 36.3525C60.1198 37.264 60.4365 38.499 60.4365 40.0576C60.4365 41.6253 60.1198 42.8672 59.4863 43.7832C58.8529 44.6992 57.9801 45.1572 56.8682 45.1572ZM54.9336 43.1885C55.3984 43.9541 56.0433 44.3369 56.8682 44.3369C57.693 44.3369 58.3379 43.9541 58.8027 43.1885C59.2676 42.4229 59.5 41.3815 59.5 40.0645C59.5 38.7565 59.2653 37.7197 58.7959 36.9541C58.3311 36.1885 57.6885 35.8057 56.8682 35.8057C56.0524 35.8057 55.4098 36.1908 54.9404 36.9609C54.471 37.7311 54.2363 38.7633 54.2363 40.0576C54.2363 41.3792 54.4688 42.4229 54.9336 43.1885ZM65.2217 45.1572C64.1051 45.1572 63.2301 44.7015 62.5967 43.79C61.9632 42.874 61.6465 41.6322 61.6465 40.0645C61.6465 38.5059 61.9655 37.2686 62.6035 36.3525C63.2415 35.4365 64.1143 34.9785 65.2217 34.9785C66.3337 34.9785 67.2064 35.4365 67.8398 36.3525C68.4733 37.264 68.79 38.499 68.79 40.0576C68.79 41.6253 68.4733 42.8672 67.8398 43.7832C67.2064 44.6992 66.3337 45.1572 65.2217 45.1572ZM63.2871 43.1885C63.752 43.9541 64.3968 44.3369 65.2217 44.3369C66.0465 44.3369 66.6914 43.9541 67.1562 43.1885C67.6211 42.4229 67.8535 41.3815 67.8535 40.0645C67.8535 38.7565 67.6188 37.7197 67.1494 36.9541C66.6846 36.1885 66.042 35.8057 65.2217 35.8057C64.4059 35.8057 63.7633 36.1908 63.2939 36.9609C62.8245 37.7311 62.5898 38.7633 62.5898 40.0576C62.5898 41.3792 62.8223 42.4229 63.2871 43.1885ZM77.499 41.4385H73.0146V40.5908H77.499V41.4385ZM84.4307 45V36.1406H84.4033C84.3395 36.1816 83.9089 36.4801 83.1113 37.0361C82.3138 37.5876 81.8626 37.8952 81.7578 37.959V36.9609C81.8398 36.9108 82.2773 36.61 83.0703 36.0586C83.8633 35.5072 84.3122 35.1995 84.417 35.1357H85.333V45H84.4307ZM91.0889 45.1572C90.0589 45.1572 89.2158 44.8906 88.5596 44.3574C87.9033 43.8242 87.5752 43.1452 87.5752 42.3203C87.5752 41.7005 87.778 41.1582 88.1836 40.6934C88.5892 40.2285 89.1201 39.9255 89.7764 39.7842V39.7637C89.2158 39.6087 88.7715 39.3353 88.4434 38.9434C88.1152 38.5469 87.9512 38.0843 87.9512 37.5557C87.9512 36.8083 88.2474 36.193 88.8398 35.71C89.4323 35.2223 90.182 34.9785 91.0889 34.9785C92.0003 34.9785 92.75 35.2223 93.3379 35.71C93.9258 36.193 94.2197 36.8083 94.2197 37.5557C94.2197 38.0752 94.0557 38.5332 93.7275 38.9297C93.3994 39.3262 92.9574 39.6042 92.4014 39.7637V39.7842C93.0576 39.9255 93.5885 40.2285 93.9941 40.6934C94.3997 41.1582 94.6025 41.7005 94.6025 42.3203C94.6025 43.1497 94.2744 43.8311 93.6182 44.3643C92.9665 44.8929 92.1234 45.1572 91.0889 45.1572ZM89.2363 43.7559C89.7148 44.1432 90.3324 44.3369 91.0889 44.3369C91.8454 44.3369 92.4606 44.1432 92.9346 43.7559C93.4131 43.3639 93.6523 42.8672 93.6523 42.2656C93.6523 41.6732 93.4131 41.1878 92.9346 40.8096C92.4606 40.4313 91.8454 40.2422 91.0889 40.2422C90.3369 40.2422 89.7217 40.4313 89.2432 40.8096C88.7646 41.1878 88.5254 41.6732 88.5254 42.2656C88.5254 42.8672 88.7624 43.3639 89.2363 43.7559ZM91.0889 39.4082C91.7314 39.4082 92.2578 39.2419 92.668 38.9092C93.0827 38.5765 93.29 38.1504 93.29 37.6309C93.29 37.0977 93.085 36.6579 92.6748 36.3115C92.2692 35.9652 91.7406 35.792 91.0889 35.792C90.4372 35.792 89.9062 35.9652 89.4961 36.3115C89.0859 36.6579 88.8809 37.0977 88.8809 37.6309C88.8809 38.1504 89.0859 38.5765 89.4961 38.9092C89.9108 39.2419 90.4417 39.4082 91.0889 39.4082ZM97.2412 44.877C97.1182 45 96.9678 45.0615 96.79 45.0615C96.6123 45.0615 96.4596 45 96.332 44.877C96.209 44.7539 96.1475 44.6035 96.1475 44.4258C96.1475 44.2435 96.209 44.0908 96.332 43.9678C96.4596 43.8447 96.6123 43.7832 96.79 43.7832C96.9678 43.7832 97.1182 43.8447 97.2412 43.9678C97.3643 44.0908 97.4258 44.2435 97.4258 44.4258C97.4258 44.6035 97.3643 44.7539 97.2412 44.877ZM102.56 45.1572C101.443 45.1572 100.568 44.7015 99.9346 43.79C99.3011 42.874 98.9844 41.6322 98.9844 40.0645C98.9844 38.5059 99.3034 37.2686 99.9414 36.3525C100.579 35.4365 101.452 34.9785 102.56 34.9785C103.672 34.9785 104.544 35.4365 105.178 36.3525C105.811 37.264 106.128 38.499 106.128 40.0576C106.128 41.6253 105.811 42.8672 105.178 43.7832C104.544 44.6992 103.672 45.1572 102.56 45.1572ZM100.625 43.1885C101.09 43.9541 101.735 44.3369 102.56 44.3369C103.384 44.3369 104.029 43.9541 104.494 43.1885C104.959 42.4229 105.191 41.3815 105.191 40.0645C105.191 38.7565 104.957 37.7197 104.487 36.9541C104.022 36.1885 103.38 35.8057 102.56 35.8057C101.744 35.8057 101.101 36.1908 100.632 36.9609C100.162 37.7311 99.9277 38.7633 99.9277 40.0576C99.9277 41.3792 100.16 42.4229 100.625 43.1885ZM110.913 45.1572C109.797 45.1572 108.922 44.7015 108.288 43.79C107.655 42.874 107.338 41.6322 107.338 40.0645C107.338 38.5059 107.657 37.2686 108.295 36.3525C108.933 35.4365 109.806 34.9785 110.913 34.9785C112.025 34.9785 112.898 35.4365 113.531 36.3525C114.165 37.264 114.481 38.499 114.481 40.0576C114.481 41.6253 114.165 42.8672 113.531 43.7832C112.898 44.6992 112.025 45.1572 110.913 45.1572ZM108.979 43.1885C109.443 43.9541 110.088 44.3369 110.913 44.3369C111.738 44.3369 112.383 43.9541 112.848 43.1885C113.312 42.4229 113.545 41.3815 113.545 40.0645C113.545 38.7565 113.31 37.7197 112.841 36.9541C112.376 36.1885 111.733 35.8057 110.913 35.8057C110.097 35.8057 109.455 36.1908 108.985 36.9609C108.516 37.7311 108.281 38.7633 108.281 40.0576C108.281 41.3792 108.514 42.4229 108.979 43.1885ZM4.99023 66.1572C3.64583 66.1572 2.57715 65.6969 1.78418 64.7764C0.991211 63.8512 0.594727 62.6071 0.594727 61.0439C0.594727 59.499 0.991211 58.2686 1.78418 57.3525C2.58171 56.4365 3.65039 55.9785 4.99023 55.9785C6.01562 55.9785 6.89746 56.2747 7.63574 56.8672C8.37858 57.4551 8.8252 58.2161 8.97559 59.1504H8.02539C7.875 58.4714 7.51725 57.9176 6.95215 57.4893C6.3916 57.0609 5.73763 56.8467 4.99023 56.8467C3.94206 56.8467 3.10579 57.2272 2.48145 57.9883C1.86165 58.7448 1.55176 59.7633 1.55176 61.0439C1.55176 62.3428 1.86165 63.375 2.48145 64.1406C3.10579 64.9062 3.94434 65.2891 4.99707 65.2891C5.76725 65.2891 6.4235 65.1022 6.96582 64.7285C7.5127 64.3503 7.86361 63.8376 8.01855 63.1904H8.96875C8.7819 64.1156 8.33529 64.8424 7.62891 65.3711C6.92253 65.8952 6.04297 66.1572 4.99023 66.1572ZM13.4531 66.123C12.3958 66.123 11.5869 65.7653 11.0264 65.0498C10.4704 64.3343 10.1924 63.2952 10.1924 61.9326C10.1924 59.8818 10.4727 58.4212 11.0332 57.5508C11.5983 56.6758 12.5645 56.2201 13.9316 56.1836C14.2507 56.1836 14.5013 56.1722 14.6836 56.1494C15.3717 56.1084 15.8936 56.0013 16.249 55.8281V56.6211C16.1396 56.7031 15.9437 56.7783 15.6611 56.8467C15.3831 56.9105 15.0732 56.9515 14.7314 56.9697C14.54 56.9925 14.2848 57.0039 13.9658 57.0039C13.4463 57.0176 13.0133 57.0882 12.667 57.2158C12.3206 57.3434 12.0312 57.5531 11.7988 57.8447C11.5664 58.1318 11.3887 58.485 11.2656 58.9043C11.1426 59.3236 11.0446 59.8545 10.9717 60.4971H11.0127C11.236 60.014 11.571 59.6426 12.0176 59.3828C12.4642 59.1185 12.986 58.9863 13.583 58.9863C14.5355 58.9863 15.2965 59.3053 15.8662 59.9434C16.4359 60.5768 16.7207 61.429 16.7207 62.5C16.7207 63.612 16.4268 64.4938 15.8389 65.1455C15.2555 65.7972 14.4603 66.123 13.4531 66.123ZM11.7373 64.5713C12.152 65.068 12.724 65.3164 13.4531 65.3164C14.1823 65.3164 14.7542 65.068 15.1689 64.5713C15.5837 64.07 15.791 63.3796 15.791 62.5C15.791 61.6523 15.5837 60.9893 15.1689 60.5107C14.7542 60.0277 14.1823 59.7861 13.4531 59.7861C12.724 59.7861 12.152 60.0277 11.7373 60.5107C11.3226 60.9893 11.1152 61.6523 11.1152 62.5C11.1152 63.3796 11.3226 64.07 11.7373 64.5713ZM23.9668 66.1572C23.1374 66.1572 22.4333 65.9294 21.8545 65.4736C21.2757 65.0133 20.918 64.4072 20.7812 63.6553H21.7314C21.8545 64.1566 22.1188 64.5622 22.5244 64.8721C22.93 65.182 23.4131 65.3369 23.9736 65.3369C24.8532 65.3369 25.5391 64.9518 26.0312 64.1816C26.5234 63.4069 26.7809 62.3245 26.8037 60.9346C26.8037 60.9163 26.8014 60.8822 26.7969 60.832C26.7969 60.7773 26.7969 60.7363 26.7969 60.709H26.79H26.7832C26.5964 61.265 26.234 61.7184 25.6963 62.0693C25.1585 62.4202 24.5524 62.5957 23.8779 62.5957C22.9391 62.5957 22.1576 62.2881 21.5332 61.6729C20.9134 61.0531 20.6035 60.2806 20.6035 59.3555C20.6035 58.3802 20.9271 57.5736 21.5742 56.9355C22.2214 56.2975 23.0394 55.9785 24.0283 55.9785C24.6937 55.9785 25.2861 56.1403 25.8057 56.4639C26.3298 56.7874 26.7422 57.2477 27.043 57.8447C27.485 58.6149 27.7061 59.6198 27.7061 60.8594C27.7061 62.5137 27.3757 63.8102 26.7148 64.749C26.054 65.6878 25.138 66.1572 23.9668 66.1572ZM24.0283 61.7686C24.7347 61.7686 25.3294 61.5361 25.8125 61.0713C26.3001 60.6064 26.5439 60.0413 26.5439 59.376C26.5439 58.6605 26.3024 58.0566 25.8193 57.5645C25.3363 57.0677 24.7415 56.8193 24.0352 56.8193C23.3333 56.8193 22.7432 57.0609 22.2646 57.5439C21.7861 58.027 21.5469 58.6217 21.5469 59.3281C21.5469 60.0208 21.7816 60.6019 22.251 61.0713C22.7204 61.5361 23.3128 61.7686 24.0283 61.7686ZM30.1123 65.877C29.9893 66 29.8389 66.0615 29.6611 66.0615C29.4834 66.0615 29.3307 66 29.2031 65.877C29.0801 65.7539 29.0186 65.6035 29.0186 65.4258C29.0186 65.2435 29.0801 65.0908 29.2031 64.9678C29.3307 64.8447 29.4834 64.7832 29.6611 64.7832C29.8389 64.7832 29.9893 64.8447 30.1123 64.9678C30.2354 65.0908 30.2969 65.2435 30.2969 65.4258C30.2969 65.6035 30.2354 65.7539 30.1123 65.877ZM35.4307 66.1572C34.3141 66.1572 33.4391 65.7015 32.8057 64.79C32.1722 63.874 31.8555 62.6322 31.8555 61.0645C31.8555 59.5059 32.1745 58.2686 32.8125 57.3525C33.4505 56.4365 34.3232 55.9785 35.4307 55.9785C36.5426 55.9785 37.4154 56.4365 38.0488 57.3525C38.6823 58.264 38.999 59.499 38.999 61.0576C38.999 62.6253 38.6823 63.8672 38.0488 64.7832C37.4154 65.6992 36.5426 66.1572 35.4307 66.1572ZM33.4961 64.1885C33.9609 64.9541 34.6058 65.3369 35.4307 65.3369C36.2555 65.3369 36.9004 64.9541 37.3652 64.1885C37.8301 63.4229 38.0625 62.3815 38.0625 61.0645C38.0625 59.7565 37.8278 58.7197 37.3584 57.9541C36.8936 57.1885 36.251 56.8057 35.4307 56.8057C34.6149 56.8057 33.9723 57.1908 33.5029 57.9609C33.0335 58.7311 32.7988 59.7633 32.7988 61.0576C32.7988 62.3792 33.0312 63.4229 33.4961 64.1885ZM43.7842 66.1572C42.6676 66.1572 41.7926 65.7015 41.1592 64.79C40.5257 63.874 40.209 62.6322 40.209 61.0645C40.209 59.5059 40.528 58.2686 41.166 57.3525C41.804 56.4365 42.6768 55.9785 43.7842 55.9785C44.8962 55.9785 45.7689 56.4365 46.4023 57.3525C47.0358 58.264 47.3525 59.499 47.3525 61.0576C47.3525 62.6253 47.0358 63.8672 46.4023 64.7832C45.7689 65.6992 44.8962 66.1572 43.7842 66.1572ZM41.8496 64.1885C42.3145 64.9541 42.9593 65.3369 43.7842 65.3369C44.609 65.3369 45.2539 64.9541 45.7188 64.1885C46.1836 63.4229 46.416 62.3815 46.416 61.0645C46.416 59.7565 46.1813 58.7197 45.7119 57.9541C45.2471 57.1885 44.6045 56.8057 43.7842 56.8057C42.9684 56.8057 42.3258 57.1908 41.8564 57.9609C41.387 58.7311 41.1523 59.7633 41.1523 61.0576C41.1523 62.3792 41.3848 63.4229 41.8496 64.1885ZM56.0615 62.4385H51.5771V61.5908H56.0615V62.4385ZM62.9932 66V57.1406H62.9658C62.902 57.1816 62.4714 57.4801 61.6738 58.0361C60.8763 58.5876 60.4251 58.8952 60.3203 58.959V57.9609C60.4023 57.9108 60.8398 57.61 61.6328 57.0586C62.4258 56.5072 62.8747 56.1995 62.9795 56.1357H63.8955V66H62.9932ZM69.6514 66.1572C68.6214 66.1572 67.7783 65.8906 67.1221 65.3574C66.4658 64.8242 66.1377 64.1452 66.1377 63.3203C66.1377 62.7005 66.3405 62.1582 66.7461 61.6934C67.1517 61.2285 67.6826 60.9255 68.3389 60.7842V60.7637C67.7783 60.6087 67.334 60.3353 67.0059 59.9434C66.6777 59.5469 66.5137 59.0843 66.5137 58.5557C66.5137 57.8083 66.8099 57.193 67.4023 56.71C67.9948 56.2223 68.7445 55.9785 69.6514 55.9785C70.5628 55.9785 71.3125 56.2223 71.9004 56.71C72.4883 57.193 72.7822 57.8083 72.7822 58.5557C72.7822 59.0752 72.6182 59.5332 72.29 59.9297C71.9619 60.3262 71.5199 60.6042 70.9639 60.7637V60.7842C71.6201 60.9255 72.151 61.2285 72.5566 61.6934C72.9622 62.1582 73.165 62.7005 73.165 63.3203C73.165 64.1497 72.8369 64.8311 72.1807 65.3643C71.529 65.8929 70.6859 66.1572 69.6514 66.1572ZM67.7988 64.7559C68.2773 65.1432 68.8949 65.3369 69.6514 65.3369C70.4079 65.3369 71.0231 65.1432 71.4971 64.7559C71.9756 64.3639 72.2148 63.8672 72.2148 63.2656C72.2148 62.6732 71.9756 62.1878 71.4971 61.8096C71.0231 61.4313 70.4079 61.2422 69.6514 61.2422C68.8994 61.2422 68.2842 61.4313 67.8057 61.8096C67.3271 62.1878 67.0879 62.6732 67.0879 63.2656C67.0879 63.8672 67.3249 64.3639 67.7988 64.7559ZM69.6514 60.4082C70.2939 60.4082 70.8203 60.2419 71.2305 59.9092C71.6452 59.5765 71.8525 59.1504 71.8525 58.6309C71.8525 58.0977 71.6475 57.6579 71.2373 57.3115C70.8317 56.9652 70.3031 56.792 69.6514 56.792C68.9997 56.792 68.4688 56.9652 68.0586 57.3115C67.6484 57.6579 67.4434 58.0977 67.4434 58.6309C67.4434 59.1504 67.6484 59.5765 68.0586 59.9092C68.4733 60.2419 69.0042 60.4082 69.6514 60.4082ZM75.8037 65.877C75.6807 66 75.5303 66.0615 75.3525 66.0615C75.1748 66.0615 75.0221 66 74.8945 65.877C74.7715 65.7539 74.71 65.6035 74.71 65.4258C74.71 65.2435 74.7715 65.0908 74.8945 64.9678C75.0221 64.8447 75.1748 64.7832 75.3525 64.7832C75.5303 64.7832 75.6807 64.8447 75.8037 64.9678C75.9268 65.0908 75.9883 65.2435 75.9883 65.4258C75.9883 65.6035 75.9268 65.7539 75.8037 65.877ZM81.1221 66.1572C80.0055 66.1572 79.1305 65.7015 78.4971 64.79C77.8636 63.874 77.5469 62.6322 77.5469 61.0645C77.5469 59.5059 77.8659 58.2686 78.5039 57.3525C79.1419 56.4365 80.0146 55.9785 81.1221 55.9785C82.234 55.9785 83.1068 56.4365 83.7402 57.3525C84.3737 58.264 84.6904 59.499 84.6904 61.0576C84.6904 62.6253 84.3737 63.8672 83.7402 64.7832C83.1068 65.6992 82.234 66.1572 81.1221 66.1572ZM79.1875 64.1885C79.6523 64.9541 80.2972 65.3369 81.1221 65.3369C81.9469 65.3369 82.5918 64.9541 83.0566 64.1885C83.5215 63.4229 83.7539 62.3815 83.7539 61.0645C83.7539 59.7565 83.5192 58.7197 83.0498 57.9541C82.585 57.1885 81.9424 56.8057 81.1221 56.8057C80.3063 56.8057 79.6637 57.1908 79.1943 57.9609C78.7249 58.7311 78.4902 59.7633 78.4902 61.0576C78.4902 62.3792 78.7227 63.4229 79.1875 64.1885ZM89.4756 66.1572C88.359 66.1572 87.484 65.7015 86.8506 64.79C86.2171 63.874 85.9004 62.6322 85.9004 61.0645C85.9004 59.5059 86.2194 58.2686 86.8574 57.3525C87.4954 56.4365 88.3682 55.9785 89.4756 55.9785C90.5876 55.9785 91.4603 56.4365 92.0938 57.3525C92.7272 58.264 93.0439 59.499 93.0439 61.0576C93.0439 62.6253 92.7272 63.8672 92.0938 64.7832C91.4603 65.6992 90.5876 66.1572 89.4756 66.1572ZM87.541 64.1885C88.0059 64.9541 88.6507 65.3369 89.4756 65.3369C90.3005 65.3369 90.9453 64.9541 91.4102 64.1885C91.875 63.4229 92.1074 62.3815 92.1074 61.0645C92.1074 59.7565 91.8727 58.7197 91.4033 57.9541C90.9385 57.1885 90.2959 56.8057 89.4756 56.8057C88.6598 56.8057 88.0173 57.1908 87.5479 57.9609C87.0785 58.7311 86.8438 59.7633 86.8438 61.0576C86.8438 62.3792 87.0762 63.4229 87.541 64.1885ZM4.55957 87H0.991211V77.1357H4.53906C5.38672 77.1357 6.07259 77.359 6.59668 77.8057C7.12077 78.2523 7.38281 78.8402 7.38281 79.5693C7.38281 80.1162 7.21191 80.5993 6.87012 81.0186C6.53288 81.4378 6.10221 81.6953 5.57812 81.791V81.8389C6.27083 81.9209 6.8291 82.1829 7.25293 82.625C7.68132 83.0625 7.89551 83.6185 7.89551 84.293C7.89551 85.1361 7.59928 85.7992 7.00684 86.2822C6.41439 86.7607 5.59863 87 4.55957 87ZM1.9209 77.9629V81.5176H4.06738C4.81478 81.5176 5.39583 81.3558 5.81055 81.0322C6.22982 80.7087 6.43945 80.2552 6.43945 79.6719C6.43945 79.1341 6.2526 78.7148 5.87891 78.4141C5.50977 78.1133 4.99707 77.9629 4.34082 77.9629H1.9209ZM1.9209 86.1729H4.42969C5.23177 86.1729 5.84928 86.0065 6.28223 85.6738C6.71973 85.3366 6.93848 84.8604 6.93848 84.2451C6.93848 83.6299 6.71061 83.1559 6.25488 82.8232C5.80371 82.4906 5.1543 82.3242 4.30664 82.3242H1.9209V86.1729ZM14.4648 86.125C13.8724 86.7858 13.0885 87.1162 12.1133 87.1162C11.138 87.1162 10.3542 86.7858 9.76172 86.125C9.16927 85.4596 8.87305 84.5664 8.87305 83.4453C8.87305 82.3242 9.16927 81.4333 9.76172 80.7725C10.3587 80.1071 11.1426 79.7744 12.1133 79.7744C13.0885 79.7744 13.8724 80.1071 14.4648 80.7725C15.0573 81.4333 15.3535 82.3242 15.3535 83.4453C15.3535 84.5664 15.0573 85.4596 14.4648 86.125ZM10.4248 85.5508C10.8441 86.0612 11.4069 86.3164 12.1133 86.3164C12.8197 86.3164 13.3825 86.0612 13.8018 85.5508C14.2256 85.0404 14.4375 84.3385 14.4375 83.4453C14.4375 82.5521 14.2256 81.8503 13.8018 81.3398C13.3825 80.8294 12.8197 80.5742 12.1133 80.5742C11.4069 80.5742 10.8441 80.8294 10.4248 81.3398C10.0055 81.8503 9.7959 82.5521 9.7959 83.4453C9.7959 84.3385 10.0055 85.0404 10.4248 85.5508ZM22.4492 82.0029H21.5537C21.4307 81.5837 21.1937 81.2419 20.8428 80.9775C20.4964 80.7087 20.0635 80.5742 19.5439 80.5742C18.8512 80.5742 18.2975 80.8363 17.8828 81.3604C17.4681 81.8799 17.2607 82.5749 17.2607 83.4453C17.2607 84.3249 17.4681 85.0244 17.8828 85.5439C18.3021 86.0589 18.8604 86.3164 19.5576 86.3164C20.0635 86.3164 20.4896 86.1956 20.8359 85.9541C21.1868 85.708 21.4238 85.3708 21.5469 84.9424H22.4492C22.3216 85.5895 21.9958 86.1136 21.4717 86.5146C20.9476 86.9157 20.3073 87.1162 19.5508 87.1162C18.5755 87.1162 17.7962 86.7858 17.2129 86.125C16.6296 85.4642 16.3379 84.571 16.3379 83.4453C16.3379 82.3333 16.6296 81.4447 17.2129 80.7793C17.7962 80.1094 18.5732 79.7744 19.5439 79.7744C20.3187 79.7744 20.9635 79.9863 21.4785 80.4102C21.998 80.834 22.3216 81.3649 22.4492 82.0029ZM25.5801 83.2744L29.3125 87H28.123L24.6641 83.5342H24.623V87H23.7275V79.8906H24.623V83.083H24.6641L28.0342 79.8906H29.1758L25.5801 83.2744ZM33.6533 79.7744C34.5557 79.7744 35.2848 80.1117 35.8408 80.7861C36.4014 81.4561 36.6816 82.3424 36.6816 83.4453C36.6816 84.5482 36.4036 85.4368 35.8477 86.1113C35.2962 86.7812 34.5716 87.1162 33.6738 87.1162C33.1133 87.1162 32.6165 86.9727 32.1836 86.6855C31.7552 86.3939 31.4453 86.0111 31.2539 85.5371H31.2266V89.3516H30.3242V79.8906H31.1787V81.3945H31.2061C31.4066 80.9115 31.7233 80.5218 32.1562 80.2256C32.5892 79.9248 33.0882 79.7744 33.6533 79.7744ZM33.4961 86.3164C34.1842 86.3164 34.7334 86.0566 35.1436 85.5371C35.5537 85.013 35.7588 84.3158 35.7588 83.4453C35.7588 82.5794 35.5514 81.8844 35.1367 81.3604C34.7266 80.8363 34.1797 80.5742 33.4961 80.5742C32.8216 80.5742 32.2747 80.8408 31.8555 81.374C31.4362 81.9027 31.2266 82.5931 31.2266 83.4453C31.2266 84.3021 31.4362 84.9948 31.8555 85.5234C32.2747 86.0521 32.8216 86.3164 33.4961 86.3164ZM40.8311 80.5674C40.1976 80.5674 39.6758 80.7884 39.2656 81.2305C38.86 81.668 38.639 82.2399 38.6025 82.9463H42.9912C42.9821 82.2399 42.7793 81.668 42.3828 81.2305C41.9863 80.7884 41.4691 80.5674 40.8311 80.5674ZM42.9365 84.9834H43.832C43.7227 85.6077 43.3991 86.1204 42.8613 86.5215C42.3281 86.918 41.6742 87.1162 40.8994 87.1162C39.9014 87.1162 39.113 86.7904 38.5342 86.1387C37.9554 85.4824 37.666 84.5915 37.666 83.4658C37.666 82.3584 37.9554 81.4674 38.5342 80.793C39.113 80.1139 39.8831 79.7744 40.8447 79.7744C41.7835 79.7744 42.5309 80.0934 43.0869 80.7314C43.6429 81.3695 43.9209 82.2194 43.9209 83.2812V83.6641H38.5957V83.7188C38.5957 84.5208 38.8053 85.1566 39.2246 85.626C39.6439 86.0908 40.209 86.3232 40.9199 86.3232C41.444 86.3232 41.8861 86.2002 42.2461 85.9541C42.6061 85.708 42.8363 85.3844 42.9365 84.9834ZM51.0234 82.0029H50.1279C50.0049 81.5837 49.7679 81.2419 49.417 80.9775C49.0706 80.7087 48.6377 80.5742 48.1182 80.5742C47.4255 80.5742 46.8717 80.8363 46.457 81.3604C46.0423 81.8799 45.835 82.5749 45.835 83.4453C45.835 84.3249 46.0423 85.0244 46.457 85.5439C46.8763 86.0589 47.4346 86.3164 48.1318 86.3164C48.6377 86.3164 49.0638 86.1956 49.4102 85.9541C49.7611 85.708 49.998 85.3708 50.1211 84.9424H51.0234C50.8958 85.5895 50.57 86.1136 50.0459 86.5146C49.5218 86.9157 48.8815 87.1162 48.125 87.1162C47.1497 87.1162 46.3704 86.7858 45.7871 86.125C45.2038 85.4642 44.9121 84.571 44.9121 83.4453C44.9121 82.3333 45.2038 81.4447 45.7871 80.7793C46.3704 80.1094 47.1475 79.7744 48.1182 79.7744C48.8929 79.7744 49.5378 79.9863 50.0527 80.4102C50.5723 80.834 50.8958 81.3649 51.0234 82.0029ZM55.1182 80.5674C54.4847 80.5674 53.9629 80.7884 53.5527 81.2305C53.1471 81.668 52.9261 82.2399 52.8896 82.9463H57.2783C57.2692 82.2399 57.0664 81.668 56.6699 81.2305C56.2734 80.7884 55.7562 80.5674 55.1182 80.5674ZM57.2236 84.9834H58.1191C58.0098 85.6077 57.6862 86.1204 57.1484 86.5215C56.6152 86.918 55.9613 87.1162 55.1865 87.1162C54.1885 87.1162 53.4001 86.7904 52.8213 86.1387C52.2425 85.4824 51.9531 84.5915 51.9531 83.4658C51.9531 82.3584 52.2425 81.4674 52.8213 80.793C53.4001 80.1139 54.1702 79.7744 55.1318 79.7744C56.0706 79.7744 56.818 80.0934 57.374 80.7314C57.93 81.3695 58.208 82.2194 58.208 83.2812V83.6641H52.8828V83.7188C52.8828 84.5208 53.0924 85.1566 53.5117 85.626C53.931 86.0908 54.4961 86.3232 55.207 86.3232C55.7311 86.3232 56.1732 86.2002 56.5332 85.9541C56.8932 85.708 57.1234 85.3844 57.2236 84.9834ZM64.3535 87V83.6914H60.4434V87H59.5479V79.8906H60.4434V82.9395H64.3535V79.8906H65.249V87H64.3535ZM69.3711 83.0557H67.8398V86.248H69.3711C69.8861 86.248 70.2962 86.1022 70.6016 85.8105C70.9115 85.5189 71.0664 85.1315 71.0664 84.6484C71.0664 84.1654 70.9115 83.7803 70.6016 83.4932C70.2962 83.2015 69.8861 83.0557 69.3711 83.0557ZM66.9443 87V79.8906H67.8398V82.3037H69.3848C70.1686 82.3037 70.793 82.5156 71.2578 82.9395C71.7272 83.3587 71.9619 83.9284 71.9619 84.6484C71.9619 85.3685 71.7272 85.9404 71.2578 86.3643C70.793 86.7881 70.1686 87 69.3848 87H66.9443ZM76.0908 80.5674C75.4574 80.5674 74.9355 80.7884 74.5254 81.2305C74.1198 81.668 73.8988 82.2399 73.8623 82.9463H78.251C78.2419 82.2399 78.0391 81.668 77.6426 81.2305C77.2461 80.7884 76.7288 80.5674 76.0908 80.5674ZM78.1963 84.9834H79.0918C78.9824 85.6077 78.6589 86.1204 78.1211 86.5215C77.5879 86.918 76.9339 87.1162 76.1592 87.1162C75.1611 87.1162 74.3727 86.7904 73.7939 86.1387C73.2152 85.4824 72.9258 84.5915 72.9258 83.4658C72.9258 82.3584 73.2152 81.4674 73.7939 80.793C74.3727 80.1139 75.1429 79.7744 76.1045 79.7744C77.0433 79.7744 77.7907 80.0934 78.3467 80.7314C78.9027 81.3695 79.1807 82.2194 79.1807 83.2812V83.6641H73.8555V83.7188C73.8555 84.5208 74.0651 85.1566 74.4844 85.626C74.9036 86.0908 75.4688 86.3232 76.1797 86.3232C76.7038 86.3232 77.1458 86.2002 77.5059 85.9541C77.8659 85.708 78.096 85.3844 78.1963 84.9834ZM86.1533 80.6357H84.2871V82.9531H86.0234C86.5111 82.9531 86.8825 82.8506 87.1377 82.6455C87.3975 82.4404 87.5273 82.1442 87.5273 81.7568C87.5273 81.4014 87.4066 81.1257 87.165 80.9297C86.9281 80.7337 86.5908 80.6357 86.1533 80.6357ZM86.0918 83.6914H84.2871V86.2549H86.2559C86.7799 86.2549 87.1787 86.1455 87.4521 85.9268C87.7256 85.708 87.8623 85.3867 87.8623 84.9629C87.8623 84.5436 87.7096 84.2269 87.4043 84.0127C87.1035 83.7985 86.666 83.6914 86.0918 83.6914ZM83.3916 87V79.8906H86.2627C86.9281 79.8906 87.4521 80.0501 87.835 80.3691C88.2178 80.6836 88.4092 81.1188 88.4092 81.6748C88.4092 82.0667 88.2907 82.4108 88.0537 82.707C87.8213 83.0033 87.5251 83.1855 87.165 83.2539V83.3018C87.6344 83.3564 88.015 83.5342 88.3066 83.835C88.6029 84.1357 88.751 84.5186 88.751 84.9834C88.751 85.6169 88.5322 86.1113 88.0947 86.4668C87.6618 86.8223 87.0625 87 86.2969 87H83.3916ZM96.1748 87V79.8906H97.0703V87H96.1748ZM92.5312 83.0557H91V86.248H92.5312C93.0462 86.248 93.4564 86.1022 93.7617 85.8105C94.0716 85.5189 94.2266 85.1315 94.2266 84.6484C94.2266 84.1654 94.0716 83.7803 93.7617 83.4932C93.4564 83.2015 93.0462 83.0557 92.5312 83.0557ZM90.1045 87V79.8906H91V82.3037H92.5449C93.3288 82.3037 93.9531 82.5156 94.418 82.9395C94.8874 83.3587 95.1221 83.9284 95.1221 84.6484C95.1221 85.3685 94.8874 85.9404 94.418 86.3643C93.9531 86.7881 93.3288 87 92.5449 87H90.1045ZM101.138 84.0811H101.117L99.1553 87H98.1436L100.639 83.4248L98.1709 79.8906H99.1963L101.145 82.7412H101.165L103.106 79.8906H104.125L101.644 83.3906L104.104 87H103.086L101.138 84.0811ZM110.305 86.125C109.712 86.7858 108.928 87.1162 107.953 87.1162C106.978 87.1162 106.194 86.7858 105.602 86.125C105.009 85.4596 104.713 84.5664 104.713 83.4453C104.713 82.3242 105.009 81.4333 105.602 80.7725C106.199 80.1071 106.982 79.7744 107.953 79.7744C108.928 79.7744 109.712 80.1071 110.305 80.7725C110.897 81.4333 111.193 82.3242 111.193 83.4453C111.193 84.5664 110.897 85.4596 110.305 86.125ZM106.265 85.5508C106.684 86.0612 107.247 86.3164 107.953 86.3164C108.66 86.3164 109.222 86.0612 109.642 85.5508C110.065 85.0404 110.277 84.3385 110.277 83.4453C110.277 82.5521 110.065 81.8503 109.642 81.3398C109.222 80.8294 108.66 80.5742 107.953 80.5742C107.247 80.5742 106.684 80.8294 106.265 81.3398C105.845 81.8503 105.636 82.5521 105.636 83.4453C105.636 84.3385 105.845 85.0404 106.265 85.5508ZM117.229 86.248V80.6426H114.167C114.153 80.8659 114.115 81.4264 114.051 82.3242C113.987 83.2174 113.946 83.7529 113.928 83.9307C113.841 85.029 113.629 85.7855 113.292 86.2002V86.248H117.229ZM112.499 88.8799H111.651V86.248H112.226C112.695 85.9427 112.982 85.1611 113.087 83.9033C113.21 82.404 113.303 81.0664 113.367 79.8906H118.132V86.248H119.28V88.8799H118.426V87H112.499V88.8799ZM125.139 87V83.6914H121.229V87H120.333V79.8906H121.229V82.9395H125.139V79.8906H126.034V87H125.139ZM132.973 86.125C132.38 86.7858 131.596 87.1162 130.621 87.1162C129.646 87.1162 128.862 86.7858 128.27 86.125C127.677 85.4596 127.381 84.5664 127.381 83.4453C127.381 82.3242 127.677 81.4333 128.27 80.7725C128.867 80.1071 129.65 79.7744 130.621 79.7744C131.596 79.7744 132.38 80.1071 132.973 80.7725C133.565 81.4333 133.861 82.3242 133.861 83.4453C133.861 84.5664 133.565 85.4596 132.973 86.125ZM128.933 85.5508C129.352 86.0612 129.915 86.3164 130.621 86.3164C131.327 86.3164 131.89 86.0612 132.31 85.5508C132.733 85.0404 132.945 84.3385 132.945 83.4453C132.945 82.5521 132.733 81.8503 132.31 81.3398C131.89 80.8294 131.327 80.5742 130.621 80.5742C129.915 80.5742 129.352 80.8294 128.933 81.3398C128.513 81.8503 128.304 82.5521 128.304 83.4453C128.304 84.3385 128.513 85.0404 128.933 85.5508ZM136.09 87H135.194V79.8906H136.09V85.6055H136.138L140.096 79.8906H140.991V87H140.096V81.2852H140.055L136.09 87ZM136.206 76.8281H136.896C136.896 77.2383 137.02 77.5732 137.266 77.833C137.516 78.0882 137.849 78.2158 138.264 78.2158C138.674 78.2158 139.002 78.0882 139.248 77.833C139.499 77.5732 139.624 77.2383 139.624 76.8281H140.314C140.314 77.4115 140.125 77.8831 139.747 78.2432C139.373 78.5986 138.879 78.7764 138.264 78.7764C137.644 78.7764 137.145 78.5986 136.767 78.2432C136.393 77.8831 136.206 77.4115 136.206 76.8281Z" fill="#333333"/>
</svg>
