<svg width="219" height="40" viewBox="0 0 219 40" fill="none" xmlns="http://www.w3.org/2000/svg">
<path d="M9.38232 26V15.4312H1.09863V26H2.42432V16.6323H8.07861V26H9.38232ZM14.4434 19.3569C15.6445 19.3569 16.4429 20.2651 16.4722 21.5396H12.334C12.4146 20.2725 13.2495 19.3569 14.4434 19.3569ZM16.4429 23.8174C16.2305 24.5352 15.52 25.0259 14.5532 25.0259C13.1836 25.0259 12.3267 24.0664 12.3267 22.6089V22.5356H17.7905V22.0522C17.7905 19.7451 16.5234 18.251 14.4653 18.251C12.3633 18.251 11.0156 19.855 11.0156 22.2207C11.0156 24.6157 12.3413 26.1318 14.5239 26.1318C16.1865 26.1318 17.4756 25.1504 17.6953 23.8174H16.4429ZM22.9102 18.251C21.8042 18.251 20.918 18.8149 20.4492 19.6719H20.4199V18.3828H19.2114V28.5415H20.4858V24.7622H20.5151C20.9692 25.5972 21.8481 26.1318 22.9395 26.1318C24.8584 26.1318 26.1694 24.5791 26.1694 22.1914C26.1694 19.8037 24.8511 18.251 22.9102 18.251ZM22.6611 25.0112C21.3574 25.0112 20.4785 23.8906 20.4785 22.1914C20.4785 20.4995 21.3574 19.3716 22.6611 19.3716C24.0161 19.3716 24.8657 20.4702 24.8657 22.1914C24.8657 23.9199 24.0161 25.0112 22.6611 25.0112ZM30.6445 19.3569C31.8457 19.3569 32.644 20.2651 32.6733 21.5396H28.5352C28.6157 20.2725 29.4507 19.3569 30.6445 19.3569ZM32.644 23.8174C32.4316 24.5352 31.7212 25.0259 30.7544 25.0259C29.3848 25.0259 28.5278 24.0664 28.5278 22.6089V22.5356H33.9917V22.0522C33.9917 19.7451 32.7246 18.251 30.6665 18.251C28.5645 18.251 27.2168 19.855 27.2168 22.2207C27.2168 24.6157 28.5425 26.1318 30.7251 26.1318C32.3877 26.1318 33.6768 25.1504 33.8965 23.8174H32.644ZM36.665 26L40.4736 20.3311H40.5322V26H41.792V18.3828H40.5322L36.7236 24.0518H36.665V18.3828H35.4053V26H36.665ZM36.3794 15.0869C36.3794 16.4346 37.3389 17.3574 38.7378 17.3574C40.1367 17.3574 41.0962 16.4346 41.0962 15.0869H40.1587C40.1587 15.9365 39.6094 16.603 38.7378 16.603C37.8662 16.603 37.3169 15.9365 37.3169 15.0869H36.3794ZM49.1528 18.3828H42.9712V19.4302H45.4321V26H46.6919V19.4302H49.1528V18.3828ZM51.5918 26L55.4004 20.3311H55.459V26H56.7188V18.3828H55.459L51.6504 24.0518H51.5918V18.3828H50.332V26H51.5918ZM64.6655 19.4155C65.4639 19.4155 65.896 19.7891 65.896 20.4629C65.896 21.1953 65.4346 21.5469 64.4751 21.5469H62.8418V19.4155H64.6655ZM64.5776 22.5723C65.6909 22.5723 66.2256 22.9678 66.2256 23.7808C66.2256 24.5498 65.7275 24.9673 64.8047 24.9673H62.8418V22.5723H64.5776ZM61.582 26H64.8633C66.4819 26 67.478 25.1577 67.478 23.8101C67.478 22.8579 66.8481 22.1621 65.8887 22.0303V21.9717C66.5918 21.8252 67.1411 21.1074 67.1411 20.3311C67.1411 19.1226 66.2695 18.3828 64.8413 18.3828H61.582V26ZM74.5972 21.9863L78.1567 18.3828H76.582L73.3301 21.752H73.2715V18.3828H72.0117V26H73.2715V22.3379H73.3301L76.6187 26H78.2593L74.5972 21.9863ZM81.6211 25.0479C80.7056 25.0479 80.0977 24.5718 80.0977 23.8467C80.0977 23.1289 80.6836 22.6748 81.709 22.6089L83.7451 22.4844V23.1069C83.7451 24.2056 82.8223 25.0479 81.6211 25.0479ZM81.3354 26.1318C82.3608 26.1318 83.3276 25.5605 83.7817 24.689H83.811V26H85.0195V20.7339C85.0195 19.2178 83.8916 18.251 82.1045 18.251C80.3027 18.251 79.1748 19.2617 79.0869 20.5801H80.3174C80.4785 19.833 81.0938 19.3716 82.0752 19.3716C83.1299 19.3716 83.7451 19.9282 83.7451 20.8584V21.4956L81.5625 21.6201C79.8047 21.7227 78.8013 22.543 78.8013 23.8467C78.8013 25.2163 79.8193 26.1318 81.3354 26.1318ZM92.2046 18.3828H86.0229V19.4302H88.4839V26H89.7437V19.4302H92.2046V18.3828ZM95.6104 25.0479C94.6948 25.0479 94.0869 24.5718 94.0869 23.8467C94.0869 23.1289 94.6729 22.6748 95.6982 22.6089L97.7344 22.4844V23.1069C97.7344 24.2056 96.8115 25.0479 95.6104 25.0479ZM95.3247 26.1318C96.3501 26.1318 97.3169 25.5605 97.771 24.689H97.8003V26H99.0088V20.7339C99.0088 19.2178 97.8809 18.251 96.0938 18.251C94.292 18.251 93.1641 19.2617 93.0762 20.5801H94.3066C94.4678 19.833 95.083 19.3716 96.0645 19.3716C97.1191 19.3716 97.7344 19.9282 97.7344 20.8584V21.4956L95.5518 21.6201C93.7939 21.7227 92.7905 22.543 92.7905 23.8467C92.7905 25.2163 93.8086 26.1318 95.3247 26.1318ZM102.803 22.6382L103.037 19.4302H105.63V26H106.89V18.3828H101.902L101.609 22.6089C101.514 24.0078 101.228 24.894 100.474 24.894C100.291 24.894 100.151 24.8574 100.085 24.8354V25.9854C100.173 26.022 100.32 26.0659 100.54 26.0659C102.144 26.0659 102.649 24.7402 102.803 22.6382ZM111.855 26.1318C113.958 26.1318 115.378 24.6157 115.378 22.1914C115.378 19.7598 113.958 18.251 111.855 18.251C109.746 18.251 108.325 19.7598 108.325 22.1914C108.325 24.6157 109.746 26.1318 111.855 26.1318ZM111.855 25.0112C110.508 25.0112 109.622 23.9858 109.622 22.1914C109.622 20.397 110.508 19.3716 111.855 19.3716C113.203 19.3716 114.082 20.397 114.082 22.1914C114.082 23.9858 113.203 25.0112 111.855 25.0112ZM121.692 19.4302V18.3828H116.792V26H118.052V19.4302H121.692Z" fill="#333333"/>
<circle opacity="0.3" cx="199" cy="20" r="20" fill="#E11E26"/>
<path d="M199.354 20.3536C199.549 20.1583 199.549 19.8417 199.354 19.6464L196.172 16.4645C195.976 16.2692 195.66 16.2692 195.464 16.4645C195.269 16.6597 195.269 16.9763 195.464 17.1716L198.293 20L195.464 22.8284C195.269 23.0237 195.269 23.3403 195.464 23.5355C195.66 23.7308 195.976 23.7308 196.172 23.5355L199.354 20.3536ZM139 20.5H199V19.5H139V20.5Z" fill="black"/>
</svg>
