<svg width="189" height="229" viewBox="0 0 189 229" fill="none" xmlns="http://www.w3.org/2000/svg">
<rect x="1" y="1" width="187" height="227" rx="5" fill="white" stroke="black" stroke-opacity="0.1"/>
<path d="M47.1396 128.075C48.6982 128.075 49.5049 127.296 50.4141 125.177L53.4355 118.136H51.8359L49.4434 124.199H49.3408L46.873 118.136H45.2461L48.582 125.806C48.2061 126.462 47.7344 126.729 47.0508 126.729C46.7842 126.729 46.5928 126.694 46.4834 126.667V127.986C46.5723 128.027 46.8389 128.075 47.1396 128.075ZM55.3906 128V123.01H55.4385L57.5918 127.72H58.6719L60.8252 123.01H60.873V128H62.3086V120.809H60.4971L58.1797 126.079H58.125L55.8213 120.809H53.9688V128H55.3906ZM66.9092 121.868C67.9414 121.868 68.6387 122.641 68.6729 123.741H65.0771C65.1523 122.654 65.877 121.868 66.9092 121.868ZM68.666 125.888C68.4678 126.517 67.8457 126.94 67.0049 126.94C65.8223 126.94 65.0703 126.113 65.0703 124.862V124.773H70.1494V124.268C70.1494 122.087 68.9053 120.679 66.9092 120.679C64.8789 120.679 63.5801 122.183 63.5801 124.438C63.5801 126.708 64.8584 128.137 66.9707 128.137C68.6182 128.137 69.8623 127.2 70.0674 125.888H68.666ZM76.623 120.809H70.6416V121.978H72.8975V128H74.3672V121.978H76.623V120.809ZM79.9932 126.954C79.2002 126.954 78.6807 126.544 78.6807 125.915C78.6807 125.3 79.1797 124.91 80.0615 124.849L81.832 124.739V125.307C81.832 126.243 81.0254 126.954 79.9932 126.954ZM79.583 128.123C80.5264 128.123 81.4355 127.617 81.8525 126.817H81.8867V128H83.3018V123.044C83.3018 121.602 82.1875 120.679 80.4443 120.679C78.667 120.679 77.5596 121.636 77.4775 122.935H78.8721C79.002 122.292 79.5352 121.882 80.3896 121.882C81.292 121.882 81.832 122.36 81.832 123.16V123.714L79.8633 123.83C78.1543 123.926 77.1904 124.698 77.1904 125.956C77.1904 127.248 78.1748 128.123 79.583 128.123ZM87.0273 124.726L87.2256 121.978H89.4404V128H90.9102V120.809H85.9268L85.6807 124.664C85.5986 125.915 85.3525 126.749 84.6553 126.749C84.4707 126.749 84.334 126.715 84.2656 126.694V127.993C84.3545 128.027 84.5254 128.068 84.7646 128.068C86.3779 128.068 86.8906 126.763 87.0273 124.726ZM93.9521 128L97.2744 122.948H97.3291V128H98.7852V120.809H97.3291L94.0068 125.847H93.9521V120.809H92.4961V128H93.9521ZM103.386 121.868C104.418 121.868 105.115 122.641 105.149 123.741H101.554C101.629 122.654 102.354 121.868 103.386 121.868ZM105.143 125.888C104.944 126.517 104.322 126.94 103.481 126.94C102.299 126.94 101.547 126.113 101.547 124.862V124.773H106.626V124.268C106.626 122.087 105.382 120.679 103.386 120.679C101.355 120.679 100.057 122.183 100.057 124.438C100.057 126.708 101.335 128.137 103.447 128.137C105.095 128.137 106.339 127.2 106.544 125.888H105.143ZM110.857 121.882C111.575 121.882 111.965 122.217 111.965 122.812C111.965 123.447 111.548 123.769 110.714 123.769H109.347V121.882H110.857ZM110.81 124.801C111.78 124.801 112.259 125.156 112.259 125.867C112.259 126.558 111.808 126.927 110.974 126.927H109.347V124.801H110.81ZM107.891 128H111.199C112.758 128 113.729 127.193 113.729 125.929C113.729 125.026 113.113 124.37 112.184 124.247V124.192C112.874 124.062 113.407 123.386 113.407 122.641C113.407 121.506 112.56 120.809 111.158 120.809H107.891V128ZM117.563 126.954C116.771 126.954 116.251 126.544 116.251 125.915C116.251 125.3 116.75 124.91 117.632 124.849L119.402 124.739V125.307C119.402 126.243 118.596 126.954 117.563 126.954ZM117.153 128.123C118.097 128.123 119.006 127.617 119.423 126.817H119.457V128H120.872V123.044C120.872 121.602 119.758 120.679 118.015 120.679C116.237 120.679 115.13 121.636 115.048 122.935H116.442C116.572 122.292 117.105 121.882 117.96 121.882C118.862 121.882 119.402 122.36 119.402 123.16V123.714L117.434 123.83C115.725 123.926 114.761 124.698 114.761 125.956C114.761 127.248 115.745 128.123 117.153 128.123ZM123.408 130.03L124.338 126.421H122.848L122.232 130.03H123.408ZM131.741 128.185C133.929 128.185 135.474 127.009 135.474 125.334C135.474 124.083 134.592 123.071 133.279 122.798V122.764C134.373 122.449 135.07 121.602 135.07 120.556C135.07 119.045 133.683 117.951 131.741 117.951C129.807 117.951 128.405 119.052 128.405 120.549C128.405 121.608 129.109 122.463 130.203 122.764V122.798C128.897 123.071 128.009 124.076 128.009 125.334C128.009 127.002 129.54 128.185 131.741 128.185ZM131.741 126.954C130.483 126.954 129.588 126.229 129.588 125.225C129.588 124.213 130.483 123.481 131.741 123.481C132.999 123.481 133.888 124.206 133.888 125.225C133.888 126.229 132.999 126.954 131.741 126.954ZM131.741 122.251C130.668 122.251 129.923 121.608 129.923 120.713C129.923 119.811 130.668 119.168 131.741 119.168C132.808 119.168 133.56 119.811 133.56 120.713C133.56 121.608 132.801 122.251 131.741 122.251ZM141.523 128H142.993V126.052H144.347V124.767H142.993V118.136H140.778C138.557 121.349 137.436 123.119 136.588 124.712V126.052H141.523V128ZM138.017 124.753C138.803 123.324 139.801 121.786 141.51 119.318H141.537V124.787H138.017V124.753Z" fill="#333333"/>
<path d="M64.1768 159.157C63.0602 159.157 62.1852 158.701 61.5518 157.79C60.9183 156.874 60.6016 155.632 60.6016 154.064C60.6016 152.506 60.9206 151.269 61.5586 150.353C62.1966 149.437 63.0693 148.979 64.1768 148.979C65.2887 148.979 66.1615 149.437 66.7949 150.353C67.4284 151.264 67.7451 152.499 67.7451 154.058C67.7451 155.625 67.4284 156.867 66.7949 157.783C66.1615 158.699 65.2887 159.157 64.1768 159.157ZM62.2422 157.188C62.707 157.954 63.3519 158.337 64.1768 158.337C65.0016 158.337 65.6465 157.954 66.1113 157.188C66.5762 156.423 66.8086 155.382 66.8086 154.064C66.8086 152.757 66.5739 151.72 66.1045 150.954C65.6396 150.188 64.9971 149.806 64.1768 149.806C63.361 149.806 62.7184 150.191 62.249 150.961C61.7796 151.731 61.5449 152.763 61.5449 154.058C61.5449 155.379 61.7773 156.423 62.2422 157.188ZM69.4541 159L74.0273 149.997V149.97H68.5381V149.136H74.9639V150.011L70.4453 159H69.4541ZM76.9873 159L81.5605 149.997V149.97H76.0713V149.136H82.4971V150.011L77.9785 159H76.9873ZM84.5205 159L89.0938 149.997V149.97H83.6045V149.136H90.0303V150.011L85.5117 159H84.5205ZM97.3789 159.157C96.5495 159.157 95.8454 158.929 95.2666 158.474C94.6878 158.013 94.3301 157.407 94.1934 156.655H95.1436C95.2666 157.157 95.5309 157.562 95.9365 157.872C96.3421 158.182 96.8252 158.337 97.3857 158.337C98.2653 158.337 98.9512 157.952 99.4434 157.182C99.9355 156.407 100.193 155.325 100.216 153.935C100.216 153.916 100.214 153.882 100.209 153.832C100.209 153.777 100.209 153.736 100.209 153.709H100.202H100.195C100.008 154.265 99.6462 154.718 99.1084 155.069C98.5706 155.42 97.9645 155.596 97.29 155.596C96.3512 155.596 95.5697 155.288 94.9453 154.673C94.3255 154.053 94.0156 153.281 94.0156 152.355C94.0156 151.38 94.3392 150.574 94.9863 149.936C95.6335 149.298 96.4515 148.979 97.4404 148.979C98.1058 148.979 98.6982 149.14 99.2178 149.464C99.7419 149.787 100.154 150.248 100.455 150.845C100.897 151.615 101.118 152.62 101.118 153.859C101.118 155.514 100.788 156.81 100.127 157.749C99.4661 158.688 98.5501 159.157 97.3789 159.157ZM97.4404 154.769C98.1468 154.769 98.7415 154.536 99.2246 154.071C99.7122 153.606 99.9561 153.041 99.9561 152.376C99.9561 151.66 99.7145 151.057 99.2314 150.564C98.7484 150.068 98.1536 149.819 97.4473 149.819C96.7454 149.819 96.1553 150.061 95.6768 150.544C95.1982 151.027 94.959 151.622 94.959 152.328C94.959 153.021 95.1937 153.602 95.6631 154.071C96.1325 154.536 96.7249 154.769 97.4404 154.769ZM105.917 159.157C104.8 159.157 103.925 158.701 103.292 157.79C102.659 156.874 102.342 155.632 102.342 154.064C102.342 152.506 102.661 151.269 103.299 150.353C103.937 149.437 104.81 148.979 105.917 148.979C107.029 148.979 107.902 149.437 108.535 150.353C109.169 151.264 109.485 152.499 109.485 154.058C109.485 155.625 109.169 156.867 108.535 157.783C107.902 158.699 107.029 159.157 105.917 159.157ZM103.982 157.188C104.447 157.954 105.092 158.337 105.917 158.337C106.742 158.337 107.387 157.954 107.852 157.188C108.316 156.423 108.549 155.382 108.549 154.064C108.549 152.757 108.314 151.72 107.845 150.954C107.38 150.188 106.737 149.806 105.917 149.806C105.101 149.806 104.459 150.191 103.989 150.961C103.52 151.731 103.285 152.763 103.285 154.058C103.285 155.379 103.518 156.423 103.982 157.188ZM113.751 151.897C113.756 151.059 114.056 150.364 114.653 149.812C115.255 149.257 116.007 148.979 116.909 148.979C117.771 148.979 118.497 149.238 119.09 149.758C119.682 150.277 119.979 150.915 119.979 151.672C119.979 152.21 119.828 152.731 119.527 153.237C119.231 153.739 118.673 154.415 117.853 155.268L115.104 158.139V158.166H120.231V159H113.799V158.344L117.285 154.659C117.992 153.916 118.461 153.349 118.693 152.957C118.93 152.565 119.049 152.155 119.049 151.727C119.049 151.189 118.839 150.733 118.42 150.359C118.001 149.986 117.488 149.799 116.882 149.799C116.248 149.799 115.72 149.999 115.296 150.4C114.877 150.797 114.662 151.296 114.653 151.897V151.904H113.751V151.897ZM121.626 151.897C121.631 151.059 121.931 150.364 122.528 149.812C123.13 149.257 123.882 148.979 124.784 148.979C125.646 148.979 126.372 149.238 126.965 149.758C127.557 150.277 127.854 150.915 127.854 151.672C127.854 152.21 127.703 152.731 127.402 153.237C127.106 153.739 126.548 154.415 125.728 155.268L122.979 158.139V158.166H128.106V159H121.674V158.344L125.16 154.659C125.867 153.916 126.336 153.349 126.568 152.957C126.805 152.565 126.924 152.155 126.924 151.727C126.924 151.189 126.714 150.733 126.295 150.359C125.876 149.986 125.363 149.799 124.757 149.799C124.123 149.799 123.595 149.999 123.171 150.4C122.752 150.797 122.537 151.296 122.528 151.897V151.904H121.626V151.897ZM134.313 154.304V153.511H135.462C136.104 153.511 136.629 153.333 137.034 152.978C137.44 152.622 137.643 152.169 137.643 151.617C137.643 151.075 137.449 150.637 137.062 150.305C136.679 149.967 136.159 149.799 135.503 149.799C134.892 149.799 134.386 149.967 133.985 150.305C133.584 150.642 133.359 151.084 133.309 151.631H132.406C132.465 150.838 132.78 150.198 133.35 149.71C133.924 149.222 134.655 148.979 135.544 148.979C136.414 148.979 137.139 149.218 137.718 149.696C138.297 150.17 138.586 150.772 138.586 151.501C138.586 152.116 138.401 152.633 138.032 153.053C137.663 153.472 137.162 153.739 136.528 153.853V153.88C137.285 153.925 137.886 154.167 138.333 154.604C138.784 155.037 139.01 155.603 139.01 156.3C139.01 156.847 138.859 157.339 138.559 157.776C138.258 158.214 137.848 158.553 137.328 158.795C136.809 159.036 136.232 159.157 135.599 159.157C134.614 159.157 133.81 158.904 133.186 158.398C132.561 157.893 132.233 157.241 132.201 156.443H133.104C133.14 156.999 133.386 157.455 133.842 157.811C134.302 158.161 134.885 158.337 135.592 158.337C136.307 158.337 136.897 158.148 137.362 157.77C137.827 157.391 138.06 156.91 138.06 156.327C138.06 155.698 137.832 155.204 137.376 154.844C136.92 154.484 136.296 154.304 135.503 154.304H134.313ZM143.979 159.157C143.319 159.157 142.726 158.995 142.202 158.672C141.683 158.348 141.27 157.888 140.965 157.291C140.523 156.521 140.302 155.516 140.302 154.276C140.302 152.622 140.632 151.326 141.293 150.387C141.958 149.448 142.877 148.979 144.048 148.979C144.868 148.979 145.568 149.206 146.146 149.662C146.725 150.118 147.085 150.724 147.227 151.48H146.283C146.16 150.979 145.894 150.576 145.483 150.271C145.073 149.961 144.592 149.806 144.041 149.806C143.139 149.806 142.439 150.209 141.942 151.016C141.45 151.818 141.204 152.95 141.204 154.413H141.225C141.425 153.857 141.792 153.406 142.325 153.06C142.863 152.713 143.465 152.54 144.13 152.54C145.069 152.54 145.848 152.85 146.468 153.47C147.092 154.09 147.404 154.867 147.404 155.801C147.404 156.767 147.081 157.569 146.434 158.207C145.786 158.84 144.968 159.157 143.979 159.157ZM143.973 158.323C144.665 158.323 145.251 158.082 145.729 157.599C146.213 157.116 146.454 156.525 146.454 155.828C146.454 155.122 146.219 154.536 145.75 154.071C145.285 153.602 144.695 153.367 143.979 153.367C143.278 153.367 142.683 153.6 142.195 154.064C141.712 154.525 141.471 155.09 141.471 155.76C141.471 156.48 141.71 157.088 142.188 157.585C142.672 158.077 143.266 158.323 143.973 158.323Z" fill="#333333"/>
<rect x="44.5" y="147.5" width="8" height="12" stroke="#333333"/>
<path d="M49 158C49 158.276 48.7761 158.5 48.5 158.5C48.2239 158.5 48 158.276 48 158C48 157.724 48.2239 157.5 48.5 157.5C48.7761 157.5 49 157.724 49 158Z" fill="#333333"/>
<path d="M64.1768 186.157C63.0602 186.157 62.1852 185.701 61.5518 184.79C60.9183 183.874 60.6016 182.632 60.6016 181.064C60.6016 179.506 60.9206 178.269 61.5586 177.353C62.1966 176.437 63.0693 175.979 64.1768 175.979C65.2887 175.979 66.1615 176.437 66.7949 177.353C67.4284 178.264 67.7451 179.499 67.7451 181.058C67.7451 182.625 67.4284 183.867 66.7949 184.783C66.1615 185.699 65.2887 186.157 64.1768 186.157ZM62.2422 184.188C62.707 184.954 63.3519 185.337 64.1768 185.337C65.0016 185.337 65.6465 184.954 66.1113 184.188C66.5762 183.423 66.8086 182.382 66.8086 181.064C66.8086 179.757 66.5739 178.72 66.1045 177.954C65.6396 177.188 64.9971 176.806 64.1768 176.806C63.361 176.806 62.7184 177.191 62.249 177.961C61.7796 178.731 61.5449 179.763 61.5449 181.058C61.5449 182.379 61.7773 183.423 62.2422 184.188ZM71.0811 181.304V180.511H72.2295C72.8721 180.511 73.3962 180.333 73.8018 179.978C74.2074 179.622 74.4102 179.169 74.4102 178.617C74.4102 178.075 74.2165 177.637 73.8291 177.305C73.4463 176.967 72.9268 176.799 72.2705 176.799C71.6598 176.799 71.154 176.967 70.7529 177.305C70.3519 177.642 70.1263 178.084 70.0762 178.631H69.1738C69.2331 177.838 69.5475 177.198 70.1172 176.71C70.6914 176.222 71.4229 175.979 72.3115 175.979C73.182 175.979 73.9066 176.218 74.4854 176.696C75.0641 177.17 75.3535 177.772 75.3535 178.501C75.3535 179.116 75.1689 179.633 74.7998 180.053C74.4307 180.472 73.9294 180.739 73.2959 180.853V180.88C74.0524 180.925 74.654 181.167 75.1006 181.604C75.5518 182.037 75.7773 182.603 75.7773 183.3C75.7773 183.847 75.627 184.339 75.3262 184.776C75.0254 185.214 74.6152 185.553 74.0957 185.795C73.5762 186.036 72.9997 186.157 72.3662 186.157C71.3818 186.157 70.5775 185.904 69.9531 185.398C69.3288 184.893 69.0007 184.241 68.9688 183.443H69.8711C69.9076 183.999 70.1536 184.455 70.6094 184.811C71.0697 185.161 71.653 185.337 72.3594 185.337C73.0749 185.337 73.665 185.148 74.1299 184.77C74.5947 184.391 74.8271 183.91 74.8271 183.327C74.8271 182.698 74.5993 182.204 74.1436 181.844C73.6878 181.484 73.0635 181.304 72.2705 181.304H71.0811ZM79.7217 186V177.141H79.6943C79.6305 177.182 79.1999 177.48 78.4023 178.036C77.6048 178.588 77.1536 178.895 77.0488 178.959V177.961C77.1309 177.911 77.5684 177.61 78.3613 177.059C79.1543 176.507 79.6032 176.2 79.708 176.136H80.624V186H79.7217ZM83.0166 178.897C83.0212 178.059 83.3219 177.364 83.9189 176.812C84.5205 176.257 85.2725 175.979 86.1748 175.979C87.0361 175.979 87.763 176.238 88.3555 176.758C88.9479 177.277 89.2441 177.915 89.2441 178.672C89.2441 179.21 89.0938 179.731 88.793 180.237C88.4967 180.739 87.9385 181.415 87.1182 182.268L84.3701 185.139V185.166H89.4971V186H83.0645V185.344L86.5508 181.659C87.2572 180.916 87.7266 180.349 87.959 179.957C88.196 179.565 88.3145 179.155 88.3145 178.727C88.3145 178.189 88.1048 177.733 87.6855 177.359C87.2663 176.986 86.7536 176.799 86.1475 176.799C85.514 176.799 84.9854 176.999 84.5615 177.4C84.1423 177.797 83.9281 178.296 83.9189 178.897V178.904H83.0166V178.897ZM96.8594 186.157C96.0299 186.157 95.3258 185.929 94.7471 185.474C94.1683 185.013 93.8105 184.407 93.6738 183.655H94.624C94.7471 184.157 95.0114 184.562 95.417 184.872C95.8226 185.182 96.3057 185.337 96.8662 185.337C97.7458 185.337 98.4316 184.952 98.9238 184.182C99.416 183.407 99.6735 182.325 99.6963 180.935C99.6963 180.916 99.694 180.882 99.6895 180.832C99.6895 180.777 99.6895 180.736 99.6895 180.709H99.6826H99.6758C99.4889 181.265 99.1266 181.718 98.5889 182.069C98.0511 182.42 97.445 182.596 96.7705 182.596C95.8317 182.596 95.0501 182.288 94.4258 181.673C93.806 181.053 93.4961 180.281 93.4961 179.355C93.4961 178.38 93.8197 177.574 94.4668 176.936C95.1139 176.298 95.932 175.979 96.9209 175.979C97.5863 175.979 98.1787 176.14 98.6982 176.464C99.2223 176.787 99.6348 177.248 99.9355 177.845C100.378 178.615 100.599 179.62 100.599 180.859C100.599 182.514 100.268 183.81 99.6074 184.749C98.9466 185.688 98.0306 186.157 96.8594 186.157ZM96.9209 181.769C97.6273 181.769 98.222 181.536 98.7051 181.071C99.1927 180.606 99.4365 180.041 99.4365 179.376C99.4365 178.66 99.195 178.057 98.7119 177.564C98.2288 177.068 97.6341 176.819 96.9277 176.819C96.2259 176.819 95.6357 177.061 95.1572 177.544C94.6787 178.027 94.4395 178.622 94.4395 179.328C94.4395 180.021 94.6742 180.602 95.1436 181.071C95.613 181.536 96.2054 181.769 96.9209 181.769ZM105.397 186.157C104.281 186.157 103.406 185.701 102.772 184.79C102.139 183.874 101.822 182.632 101.822 181.064C101.822 179.506 102.141 178.269 102.779 177.353C103.417 176.437 104.29 175.979 105.397 175.979C106.509 175.979 107.382 176.437 108.016 177.353C108.649 178.264 108.966 179.499 108.966 181.058C108.966 182.625 108.649 183.867 108.016 184.783C107.382 185.699 106.509 186.157 105.397 186.157ZM103.463 184.188C103.928 184.954 104.573 185.337 105.397 185.337C106.222 185.337 106.867 184.954 107.332 184.188C107.797 183.423 108.029 182.382 108.029 181.064C108.029 179.757 107.795 178.72 107.325 177.954C106.86 177.188 106.218 176.806 105.397 176.806C104.582 176.806 103.939 177.191 103.47 177.961C103 178.731 102.766 179.763 102.766 181.058C102.766 182.379 102.998 183.423 103.463 184.188ZM113.231 178.897C113.236 178.059 113.537 177.364 114.134 176.812C114.735 176.257 115.487 175.979 116.39 175.979C117.251 175.979 117.978 176.238 118.57 176.758C119.163 177.277 119.459 177.915 119.459 178.672C119.459 179.21 119.309 179.731 119.008 180.237C118.712 180.739 118.153 181.415 117.333 182.268L114.585 185.139V185.166H119.712V186H113.279V185.344L116.766 181.659C117.472 180.916 117.941 180.349 118.174 179.957C118.411 179.565 118.529 179.155 118.529 178.727C118.529 178.189 118.32 177.733 117.9 177.359C117.481 176.986 116.968 176.799 116.362 176.799C115.729 176.799 115.2 176.999 114.776 177.4C114.357 177.797 114.143 178.296 114.134 178.897V178.904H113.231V178.897ZM121.106 178.897C121.111 178.059 121.412 177.364 122.009 176.812C122.61 176.257 123.362 175.979 124.265 175.979C125.126 175.979 125.853 176.238 126.445 176.758C127.038 177.277 127.334 177.915 127.334 178.672C127.334 179.21 127.184 179.731 126.883 180.237C126.587 180.739 126.028 181.415 125.208 182.268L122.46 185.139V185.166H127.587V186H121.154V185.344L124.641 181.659C125.347 180.916 125.816 180.349 126.049 179.957C126.286 179.565 126.404 179.155 126.404 178.727C126.404 178.189 126.195 177.733 125.775 177.359C125.356 176.986 124.843 176.799 124.237 176.799C123.604 176.799 123.075 176.999 122.651 177.4C122.232 177.797 122.018 178.296 122.009 178.897V178.904H121.106V178.897ZM133.794 181.304V180.511H134.942C135.585 180.511 136.109 180.333 136.515 179.978C136.92 179.622 137.123 179.169 137.123 178.617C137.123 178.075 136.929 177.637 136.542 177.305C136.159 176.967 135.64 176.799 134.983 176.799C134.373 176.799 133.867 176.967 133.466 177.305C133.065 177.642 132.839 178.084 132.789 178.631H131.887C131.946 177.838 132.26 177.198 132.83 176.71C133.404 176.222 134.136 175.979 135.024 175.979C135.895 175.979 136.619 176.218 137.198 176.696C137.777 177.17 138.066 177.772 138.066 178.501C138.066 179.116 137.882 179.633 137.513 180.053C137.144 180.472 136.642 180.739 136.009 180.853V180.88C136.765 180.925 137.367 181.167 137.813 181.604C138.265 182.037 138.49 182.603 138.49 183.3C138.49 183.847 138.34 184.339 138.039 184.776C137.738 185.214 137.328 185.553 136.809 185.795C136.289 186.036 135.713 186.157 135.079 186.157C134.095 186.157 133.29 185.904 132.666 185.398C132.042 184.893 131.714 184.241 131.682 183.443H132.584C132.62 183.999 132.867 184.455 133.322 184.811C133.783 185.161 134.366 185.337 135.072 185.337C135.788 185.337 136.378 185.148 136.843 184.77C137.308 184.391 137.54 183.91 137.54 183.327C137.54 182.698 137.312 182.204 136.856 181.844C136.401 181.484 135.776 181.304 134.983 181.304H133.794ZM143.46 186.157C142.799 186.157 142.207 185.995 141.683 185.672C141.163 185.348 140.751 184.888 140.445 184.291C140.003 183.521 139.782 182.516 139.782 181.276C139.782 179.622 140.113 178.326 140.773 177.387C141.439 176.448 142.357 175.979 143.528 175.979C144.349 175.979 145.048 176.206 145.627 176.662C146.206 177.118 146.566 177.724 146.707 178.48H145.764C145.641 177.979 145.374 177.576 144.964 177.271C144.554 176.961 144.073 176.806 143.521 176.806C142.619 176.806 141.92 177.209 141.423 178.016C140.931 178.818 140.685 179.95 140.685 181.413H140.705C140.906 180.857 141.272 180.406 141.806 180.06C142.343 179.713 142.945 179.54 143.61 179.54C144.549 179.54 145.328 179.85 145.948 180.47C146.573 181.09 146.885 181.867 146.885 182.801C146.885 183.767 146.561 184.569 145.914 185.207C145.267 185.84 144.449 186.157 143.46 186.157ZM143.453 185.323C144.146 185.323 144.731 185.082 145.21 184.599C145.693 184.116 145.935 183.525 145.935 182.828C145.935 182.122 145.7 181.536 145.23 181.071C144.766 180.602 144.175 180.367 143.46 180.367C142.758 180.367 142.163 180.6 141.676 181.064C141.193 181.525 140.951 182.09 140.951 182.76C140.951 183.48 141.19 184.088 141.669 184.585C142.152 185.077 142.747 185.323 143.453 185.323Z" fill="#333333"/>
<path d="M47.2604 181.374C47.8509 182.172 48.6075 182.829 49.4772 183.3L50.8544 182.473C50.8946 182.452 50.9401 182.444 50.9848 182.451C51.0294 182.457 51.0712 182.476 51.1044 182.507L53.2024 184.322C53.2826 184.387 53.3466 184.47 53.3895 184.564C53.4323 184.659 53.4528 184.762 53.4493 184.866C53.4458 184.97 53.4184 185.072 53.3692 185.163C53.3201 185.255 53.2506 185.334 53.1662 185.393C53.0818 185.453 52.0117 186.285 51.9394 186.323C51.8671 186.36 51.8671 186.36 51.6875 186.447C51.4706 186.481 51.292 186.439 51.0855 186.365C49.0245 185.631 47.211 184.327 45.8521 182.6C44.5301 180.863 43.7367 178.775 43.5682 176.588C43.5518 176.37 43.5309 176.244 43.554 176.078C43.5762 175.912 43.5995 175.746 43.7025 175.607C43.8056 175.469 44.9706 174.67 44.9706 174.67C45.0497 174.608 45.1417 174.564 45.2397 174.543C45.3377 174.522 45.4392 174.523 45.5365 174.547C45.6339 174.57 45.7246 174.616 45.8018 174.68C45.8791 174.744 45.9409 174.826 45.9827 174.917L47.2014 177.424C47.2229 177.464 47.2312 177.51 47.2251 177.555C47.2189 177.599 47.1987 177.641 47.1673 177.674L45.9891 178.762C46.2153 179.718 46.6496 180.61 47.2604 181.374Z" fill="#333333"/>
<path fill-rule="evenodd" clip-rule="evenodd" d="M93.5795 76C100.527 76 106.159 60.0855 106.159 53.2951C106.159 46.5047 100.527 41 93.5795 41C86.632 41 81 46.5047 81 53.2951C81 60.0855 86.632 76 93.5795 76ZM93.5743 58.5416C96.5385 58.5416 98.9415 56.1929 98.9415 53.2957C98.9415 50.3985 96.5385 48.0498 93.5743 48.0498C90.61 48.0498 88.207 50.3985 88.207 53.2957C88.207 56.1929 90.61 58.5416 93.5743 58.5416Z" fill="#EA5A5A"/>
</svg>
