<svg width="107" height="72" viewBox="0 0 107 72" fill="none" xmlns="http://www.w3.org/2000/svg">
<path d="M2.13965 12.0752C3.69824 12.0752 4.50488 11.2959 5.41406 9.17676L8.43555 2.13574H6.83594L4.44336 8.19922H4.34082L1.87305 2.13574H0.246094L3.58203 9.80566C3.20605 10.4619 2.73438 10.7285 2.05078 10.7285C1.78418 10.7285 1.59277 10.6943 1.4834 10.667V11.9863C1.57227 12.0273 1.83887 12.0752 2.13965 12.0752ZM10.3906 12V7.00977H10.4385L12.5918 11.7197H13.6719L15.8252 7.00977H15.873V12H17.3086V4.80859H15.4971L13.1797 10.0791H13.125L10.8213 4.80859H8.96875V12H10.3906ZM21.9092 5.86816C22.9414 5.86816 23.6387 6.64062 23.6729 7.74121H20.0771C20.1523 6.6543 20.877 5.86816 21.9092 5.86816ZM23.666 9.8877C23.4678 10.5166 22.8457 10.9404 22.0049 10.9404C20.8223 10.9404 20.0703 10.1133 20.0703 8.8623V8.77344H25.1494V8.26758C25.1494 6.08691 23.9053 4.67871 21.9092 4.67871C19.8789 4.67871 18.5801 6.18262 18.5801 8.43848C18.5801 10.708 19.8584 12.1367 21.9707 12.1367C23.6182 12.1367 24.8623 11.2002 25.0674 9.8877H23.666ZM31.623 4.80859H25.6416V5.97754H27.8975V12H29.3672V5.97754H31.623V4.80859ZM34.9932 10.9541C34.2002 10.9541 33.6807 10.5439 33.6807 9.91504C33.6807 9.2998 34.1797 8.91016 35.0615 8.84863L36.832 8.73926V9.30664C36.832 10.2432 36.0254 10.9541 34.9932 10.9541ZM34.583 12.123C35.5264 12.123 36.4355 11.6172 36.8525 10.8174H36.8867V12H38.3018V7.04395C38.3018 5.60156 37.1875 4.67871 35.4443 4.67871C33.667 4.67871 32.5596 5.63574 32.4775 6.93457H33.8721C34.002 6.29199 34.5352 5.88184 35.3896 5.88184C36.292 5.88184 36.832 6.36035 36.832 7.16016V7.71387L34.8633 7.83008C33.1543 7.92578 32.1904 8.69824 32.1904 9.95605C32.1904 11.248 33.1748 12.123 34.583 12.123ZM42.0273 8.72559L42.2256 5.97754H44.4404V12H45.9102V4.80859H40.9268L40.6807 8.66406C40.5986 9.91504 40.3525 10.749 39.6553 10.749C39.4707 10.749 39.334 10.7148 39.2656 10.6943V11.9932C39.3545 12.0273 39.5254 12.0684 39.7646 12.0684C41.3779 12.0684 41.8906 10.7627 42.0273 8.72559ZM48.9521 12L52.2744 6.94824H52.3291V12H53.7852V4.80859H52.3291L49.0068 9.84668H48.9521V4.80859H47.4961V12H48.9521ZM58.3857 5.86816C59.418 5.86816 60.1152 6.64062 60.1494 7.74121H56.5537C56.6289 6.6543 57.3535 5.86816 58.3857 5.86816ZM60.1426 9.8877C59.9443 10.5166 59.3223 10.9404 58.4814 10.9404C57.2988 10.9404 56.5469 10.1133 56.5469 8.8623V8.77344H61.626V8.26758C61.626 6.08691 60.3818 4.67871 58.3857 4.67871C56.3555 4.67871 55.0566 6.18262 55.0566 8.43848C55.0566 10.708 56.335 12.1367 58.4473 12.1367C60.0947 12.1367 61.3389 11.2002 61.5439 9.8877H60.1426ZM65.8574 5.88184C66.5752 5.88184 66.9648 6.2168 66.9648 6.81152C66.9648 7.44727 66.5479 7.76855 65.7139 7.76855H64.3467V5.88184H65.8574ZM65.8096 8.80078C66.7803 8.80078 67.2588 9.15625 67.2588 9.86719C67.2588 10.5576 66.8076 10.9268 65.9736 10.9268H64.3467V8.80078H65.8096ZM62.8906 12H66.1992C67.7578 12 68.7285 11.1934 68.7285 9.92871C68.7285 9.02637 68.1133 8.37012 67.1836 8.24707V8.19238C67.874 8.0625 68.4072 7.38574 68.4072 6.64062C68.4072 5.50586 67.5596 4.80859 66.1582 4.80859H62.8906V12ZM72.5635 10.9541C71.7705 10.9541 71.251 10.5439 71.251 9.91504C71.251 9.2998 71.75 8.91016 72.6318 8.84863L74.4023 8.73926V9.30664C74.4023 10.2432 73.5957 10.9541 72.5635 10.9541ZM72.1533 12.123C73.0967 12.123 74.0059 11.6172 74.4229 10.8174H74.457V12H75.8721V7.04395C75.8721 5.60156 74.7578 4.67871 73.0146 4.67871C71.2373 4.67871 70.1299 5.63574 70.0479 6.93457H71.4424C71.5723 6.29199 72.1055 5.88184 72.96 5.88184C73.8623 5.88184 74.4023 6.36035 74.4023 7.16016V7.71387L72.4336 7.83008C70.7246 7.92578 69.7607 8.69824 69.7607 9.95605C69.7607 11.248 70.7451 12.123 72.1533 12.123ZM78.4082 14.0303L79.3379 10.4209H77.8477L77.2324 14.0303H78.4082ZM86.7412 12.1846C88.9287 12.1846 90.4736 11.0088 90.4736 9.33398C90.4736 8.08301 89.5918 7.07129 88.2793 6.79785V6.76367C89.373 6.44922 90.0703 5.60156 90.0703 4.55566C90.0703 3.04492 88.6826 1.95117 86.7412 1.95117C84.8066 1.95117 83.4053 3.05176 83.4053 4.54883C83.4053 5.6084 84.1094 6.46289 85.2031 6.76367V6.79785C83.8975 7.07129 83.0088 8.07617 83.0088 9.33398C83.0088 11.002 84.54 12.1846 86.7412 12.1846ZM86.7412 10.9541C85.4834 10.9541 84.5879 10.2295 84.5879 9.22461C84.5879 8.21289 85.4834 7.48145 86.7412 7.48145C87.999 7.48145 88.8877 8.20605 88.8877 9.22461C88.8877 10.2295 87.999 10.9541 86.7412 10.9541ZM86.7412 6.25098C85.668 6.25098 84.9229 5.6084 84.9229 4.71289C84.9229 3.81055 85.668 3.16797 86.7412 3.16797C87.8076 3.16797 88.5596 3.81055 88.5596 4.71289C88.5596 5.6084 87.8008 6.25098 86.7412 6.25098ZM96.5234 12H97.9932V10.0518H99.3467V8.7666H97.9932V2.13574H95.7783C93.5566 5.34863 92.4355 7.11914 91.5879 8.71191V10.0518H96.5234V12ZM93.0166 8.75293C93.8027 7.32422 94.8008 5.78613 96.5098 3.31836H96.5371V8.78711H93.0166V8.75293Z" fill="#333333"/>
<path d="M23.1768 43.1572C22.0602 43.1572 21.1852 42.7015 20.5518 41.79C19.9183 40.874 19.6016 39.6322 19.6016 38.0645C19.6016 36.5059 19.9206 35.2686 20.5586 34.3525C21.1966 33.4365 22.0693 32.9785 23.1768 32.9785C24.2887 32.9785 25.1615 33.4365 25.7949 34.3525C26.4284 35.264 26.7451 36.499 26.7451 38.0576C26.7451 39.6253 26.4284 40.8672 25.7949 41.7832C25.1615 42.6992 24.2887 43.1572 23.1768 43.1572ZM21.2422 41.1885C21.707 41.9541 22.3519 42.3369 23.1768 42.3369C24.0016 42.3369 24.6465 41.9541 25.1113 41.1885C25.5762 40.4229 25.8086 39.3815 25.8086 38.0645C25.8086 36.7565 25.5739 35.7197 25.1045 34.9541C24.6396 34.1885 23.9971 33.8057 23.1768 33.8057C22.361 33.8057 21.7184 34.1908 21.249 34.9609C20.7796 35.7311 20.5449 36.7633 20.5449 38.0576C20.5449 39.3792 20.7773 40.4229 21.2422 41.1885ZM28.4541 43L33.0273 33.9971V33.9697H27.5381V33.1357H33.9639V34.0107L29.4453 43H28.4541ZM35.9873 43L40.5605 33.9971V33.9697H35.0713V33.1357H41.4971V34.0107L36.9785 43H35.9873ZM43.5205 43L48.0938 33.9971V33.9697H42.6045V33.1357H49.0303V34.0107L44.5117 43H43.5205ZM56.3789 43.1572C55.5495 43.1572 54.8454 42.9294 54.2666 42.4736C53.6878 42.0133 53.3301 41.4072 53.1934 40.6553H54.1436C54.2666 41.1566 54.5309 41.5622 54.9365 41.8721C55.3421 42.182 55.8252 42.3369 56.3857 42.3369C57.2653 42.3369 57.9512 41.9518 58.4434 41.1816C58.9355 40.4069 59.193 39.3245 59.2158 37.9346C59.2158 37.9163 59.2135 37.8822 59.209 37.832C59.209 37.7773 59.209 37.7363 59.209 37.709H59.2021H59.1953C59.0085 38.265 58.6462 38.7184 58.1084 39.0693C57.5706 39.4202 56.9645 39.5957 56.29 39.5957C55.3512 39.5957 54.5697 39.2881 53.9453 38.6729C53.3255 38.0531 53.0156 37.2806 53.0156 36.3555C53.0156 35.3802 53.3392 34.5736 53.9863 33.9355C54.6335 33.2975 55.4515 32.9785 56.4404 32.9785C57.1058 32.9785 57.6982 33.1403 58.2178 33.4639C58.7419 33.7874 59.1543 34.2477 59.4551 34.8447C59.8971 35.6149 60.1182 36.6198 60.1182 37.8594C60.1182 39.5137 59.7878 40.8102 59.127 41.749C58.4661 42.6878 57.5501 43.1572 56.3789 43.1572ZM56.4404 38.7686C57.1468 38.7686 57.7415 38.5361 58.2246 38.0713C58.7122 37.6064 58.9561 37.0413 58.9561 36.376C58.9561 35.6605 58.7145 35.0566 58.2314 34.5645C57.7484 34.0677 57.1536 33.8193 56.4473 33.8193C55.7454 33.8193 55.1553 34.0609 54.6768 34.5439C54.1982 35.027 53.959 35.6217 53.959 36.3281C53.959 37.0208 54.1937 37.6019 54.6631 38.0713C55.1325 38.5361 55.7249 38.7686 56.4404 38.7686ZM64.917 43.1572C63.8005 43.1572 62.9255 42.7015 62.292 41.79C61.6585 40.874 61.3418 39.6322 61.3418 38.0645C61.3418 36.5059 61.6608 35.2686 62.2988 34.3525C62.9368 33.4365 63.8096 32.9785 64.917 32.9785C66.029 32.9785 66.9017 33.4365 67.5352 34.3525C68.1686 35.264 68.4854 36.499 68.4854 38.0576C68.4854 39.6253 68.1686 40.8672 67.5352 41.7832C66.9017 42.6992 66.029 43.1572 64.917 43.1572ZM62.9824 41.1885C63.4473 41.9541 64.0921 42.3369 64.917 42.3369C65.7419 42.3369 66.3867 41.9541 66.8516 41.1885C67.3164 40.4229 67.5488 39.3815 67.5488 38.0645C67.5488 36.7565 67.3141 35.7197 66.8447 34.9541C66.3799 34.1885 65.7373 33.8057 64.917 33.8057C64.1012 33.8057 63.4587 34.1908 62.9893 34.9609C62.5199 35.7311 62.2852 36.7633 62.2852 38.0576C62.2852 39.3792 62.5176 40.4229 62.9824 41.1885ZM72.751 35.8975C72.7555 35.0589 73.0563 34.3639 73.6533 33.8125C74.2549 33.2565 75.0068 32.9785 75.9092 32.9785C76.7705 32.9785 77.4974 33.2383 78.0898 33.7578C78.6823 34.2773 78.9785 34.9154 78.9785 35.6719C78.9785 36.2096 78.8281 36.7314 78.5273 37.2373C78.2311 37.7386 77.6729 38.4154 76.8525 39.2676L74.1045 42.1387V42.166H79.2314V43H72.7988V42.3438L76.2852 38.6592C76.9915 37.9163 77.4609 37.349 77.6934 36.957C77.9303 36.5651 78.0488 36.1549 78.0488 35.7266C78.0488 35.1888 77.8392 34.7331 77.4199 34.3594C77.0007 33.9857 76.488 33.7988 75.8818 33.7988C75.2484 33.7988 74.7197 33.9993 74.2959 34.4004C73.8766 34.7969 73.6624 35.2959 73.6533 35.8975V35.9043H72.751V35.8975ZM80.626 35.8975C80.6305 35.0589 80.9313 34.3639 81.5283 33.8125C82.1299 33.2565 82.8818 32.9785 83.7842 32.9785C84.6455 32.9785 85.3724 33.2383 85.9648 33.7578C86.5573 34.2773 86.8535 34.9154 86.8535 35.6719C86.8535 36.2096 86.7031 36.7314 86.4023 37.2373C86.1061 37.7386 85.5479 38.4154 84.7275 39.2676L81.9795 42.1387V42.166H87.1064V43H80.6738V42.3438L84.1602 38.6592C84.8665 37.9163 85.3359 37.349 85.5684 36.957C85.8053 36.5651 85.9238 36.1549 85.9238 35.7266C85.9238 35.1888 85.7142 34.7331 85.2949 34.3594C84.8757 33.9857 84.363 33.7988 83.7568 33.7988C83.1234 33.7988 82.5947 33.9993 82.1709 34.4004C81.7516 34.7969 81.5374 35.2959 81.5283 35.8975V35.9043H80.626V35.8975ZM93.3135 38.3037V37.5107H94.4619C95.1045 37.5107 95.6286 37.333 96.0342 36.9775C96.4398 36.6221 96.6426 36.1686 96.6426 35.6172C96.6426 35.0749 96.4489 34.6374 96.0615 34.3047C95.6787 33.9674 95.1592 33.7988 94.5029 33.7988C93.8923 33.7988 93.3864 33.9674 92.9854 34.3047C92.5843 34.6419 92.3587 35.084 92.3086 35.6309H91.4062C91.4655 34.8379 91.7799 34.1976 92.3496 33.71C92.9238 33.2223 93.6553 32.9785 94.5439 32.9785C95.4144 32.9785 96.139 33.2178 96.7178 33.6963C97.2965 34.1702 97.5859 34.7718 97.5859 35.501C97.5859 36.1162 97.4014 36.6335 97.0322 37.0527C96.6631 37.472 96.1618 37.7386 95.5283 37.8525V37.8799C96.2848 37.9255 96.8864 38.167 97.333 38.6045C97.7842 39.0374 98.0098 39.6025 98.0098 40.2998C98.0098 40.8467 97.8594 41.3389 97.5586 41.7764C97.2578 42.2139 96.8477 42.5534 96.3281 42.7949C95.8086 43.0365 95.2321 43.1572 94.5986 43.1572C93.6143 43.1572 92.8099 42.9043 92.1855 42.3984C91.5612 41.8926 91.2331 41.2409 91.2012 40.4434H92.1035C92.14 40.9993 92.3861 41.4551 92.8418 41.8105C93.3021 42.1615 93.8854 42.3369 94.5918 42.3369C95.3073 42.3369 95.8975 42.1478 96.3623 41.7695C96.8271 41.3913 97.0596 40.9105 97.0596 40.3271C97.0596 39.6982 96.8317 39.2038 96.376 38.8438C95.9202 38.4837 95.2959 38.3037 94.5029 38.3037H93.3135ZM102.979 43.1572C102.319 43.1572 101.726 42.9954 101.202 42.6719C100.683 42.3483 100.27 41.888 99.9648 41.291C99.5228 40.5208 99.3018 39.516 99.3018 38.2764C99.3018 36.6221 99.6322 35.3255 100.293 34.3867C100.958 33.4479 101.877 32.9785 103.048 32.9785C103.868 32.9785 104.568 33.2064 105.146 33.6621C105.725 34.1178 106.085 34.724 106.227 35.4805H105.283C105.16 34.9792 104.894 34.5758 104.483 34.2705C104.073 33.9606 103.592 33.8057 103.041 33.8057C102.139 33.8057 101.439 34.209 100.942 35.0156C100.45 35.8177 100.204 36.9502 100.204 38.4131H100.225C100.425 37.8571 100.792 37.4059 101.325 37.0596C101.863 36.7132 102.465 36.54 103.13 36.54C104.069 36.54 104.848 36.8499 105.468 37.4697C106.092 38.0895 106.404 38.8665 106.404 39.8008C106.404 40.7669 106.081 41.569 105.434 42.207C104.786 42.8405 103.968 43.1572 102.979 43.1572ZM102.973 42.3232C103.665 42.3232 104.251 42.0817 104.729 41.5986C105.213 41.1156 105.454 40.5254 105.454 39.8281C105.454 39.1217 105.219 38.5361 104.75 38.0713C104.285 37.6019 103.695 37.3672 102.979 37.3672C102.278 37.3672 101.683 37.5996 101.195 38.0645C100.712 38.5247 100.471 39.0898 100.471 39.7598C100.471 40.4798 100.71 41.0882 101.188 41.585C101.672 42.0771 102.266 42.3232 102.973 42.3232Z" fill="#333333"/>
<rect x="3.5" y="31.5" width="8" height="12" stroke="#333333"/>
<path d="M8 42C8 42.2761 7.77614 42.5 7.5 42.5C7.22386 42.5 7 42.2761 7 42C7 41.7239 7.22386 41.5 7.5 41.5C7.77614 41.5 8 41.7239 8 42Z" fill="#333333"/>
<path d="M23.1768 70.1572C22.0602 70.1572 21.1852 69.7015 20.5518 68.79C19.9183 67.874 19.6016 66.6322 19.6016 65.0645C19.6016 63.5059 19.9206 62.2686 20.5586 61.3525C21.1966 60.4365 22.0693 59.9785 23.1768 59.9785C24.2887 59.9785 25.1615 60.4365 25.7949 61.3525C26.4284 62.264 26.7451 63.499 26.7451 65.0576C26.7451 66.6253 26.4284 67.8672 25.7949 68.7832C25.1615 69.6992 24.2887 70.1572 23.1768 70.1572ZM21.2422 68.1885C21.707 68.9541 22.3519 69.3369 23.1768 69.3369C24.0016 69.3369 24.6465 68.9541 25.1113 68.1885C25.5762 67.4229 25.8086 66.3815 25.8086 65.0645C25.8086 63.7565 25.5739 62.7197 25.1045 61.9541C24.6396 61.1885 23.9971 60.8057 23.1768 60.8057C22.361 60.8057 21.7184 61.1908 21.249 61.9609C20.7796 62.7311 20.5449 63.7633 20.5449 65.0576C20.5449 66.3792 20.7773 67.4229 21.2422 68.1885ZM30.0811 65.3037V64.5107H31.2295C31.8721 64.5107 32.3962 64.333 32.8018 63.9775C33.2074 63.6221 33.4102 63.1686 33.4102 62.6172C33.4102 62.0749 33.2165 61.6374 32.8291 61.3047C32.4463 60.9674 31.9268 60.7988 31.2705 60.7988C30.6598 60.7988 30.154 60.9674 29.7529 61.3047C29.3519 61.6419 29.1263 62.084 29.0762 62.6309H28.1738C28.2331 61.8379 28.5475 61.1976 29.1172 60.71C29.6914 60.2223 30.4229 59.9785 31.3115 59.9785C32.182 59.9785 32.9066 60.2178 33.4854 60.6963C34.0641 61.1702 34.3535 61.7718 34.3535 62.501C34.3535 63.1162 34.1689 63.6335 33.7998 64.0527C33.4307 64.472 32.9294 64.7386 32.2959 64.8525V64.8799C33.0524 64.9255 33.654 65.167 34.1006 65.6045C34.5518 66.0374 34.7773 66.6025 34.7773 67.2998C34.7773 67.8467 34.627 68.3389 34.3262 68.7764C34.0254 69.2139 33.6152 69.5534 33.0957 69.7949C32.5762 70.0365 31.9997 70.1572 31.3662 70.1572C30.3818 70.1572 29.5775 69.9043 28.9531 69.3984C28.3288 68.8926 28.0007 68.2409 27.9688 67.4434H28.8711C28.9076 67.9993 29.1536 68.4551 29.6094 68.8105C30.0697 69.1615 30.653 69.3369 31.3594 69.3369C32.0749 69.3369 32.665 69.1478 33.1299 68.7695C33.5947 68.3913 33.8271 67.9105 33.8271 67.3271C33.8271 66.6982 33.5993 66.2038 33.1436 65.8438C32.6878 65.4837 32.0635 65.3037 31.2705 65.3037H30.0811ZM38.7217 70V61.1406H38.6943C38.6305 61.1816 38.1999 61.4801 37.4023 62.0361C36.6048 62.5876 36.1536 62.8952 36.0488 62.959V61.9609C36.1309 61.9108 36.5684 61.61 37.3613 61.0586C38.1543 60.5072 38.6032 60.1995 38.708 60.1357H39.624V70H38.7217ZM42.0166 62.8975C42.0212 62.0589 42.3219 61.3639 42.9189 60.8125C43.5205 60.2565 44.2725 59.9785 45.1748 59.9785C46.0361 59.9785 46.763 60.2383 47.3555 60.7578C47.9479 61.2773 48.2441 61.9154 48.2441 62.6719C48.2441 63.2096 48.0938 63.7314 47.793 64.2373C47.4967 64.7386 46.9385 65.4154 46.1182 66.2676L43.3701 69.1387V69.166H48.4971V70H42.0645V69.3438L45.5508 65.6592C46.2572 64.9163 46.7266 64.349 46.959 63.957C47.196 63.5651 47.3145 63.1549 47.3145 62.7266C47.3145 62.1888 47.1048 61.7331 46.6855 61.3594C46.2663 60.9857 45.7536 60.7988 45.1475 60.7988C44.514 60.7988 43.9854 60.9993 43.5615 61.4004C43.1423 61.7969 42.9281 62.2959 42.9189 62.8975V62.9043H42.0166V62.8975ZM55.8594 70.1572C55.0299 70.1572 54.3258 69.9294 53.7471 69.4736C53.1683 69.0133 52.8105 68.4072 52.6738 67.6553H53.624C53.7471 68.1566 54.0114 68.5622 54.417 68.8721C54.8226 69.182 55.3057 69.3369 55.8662 69.3369C56.7458 69.3369 57.4316 68.9518 57.9238 68.1816C58.416 67.4069 58.6735 66.3245 58.6963 64.9346C58.6963 64.9163 58.694 64.8822 58.6895 64.832C58.6895 64.7773 58.6895 64.7363 58.6895 64.709H58.6826H58.6758C58.4889 65.265 58.1266 65.7184 57.5889 66.0693C57.0511 66.4202 56.445 66.5957 55.7705 66.5957C54.8317 66.5957 54.0501 66.2881 53.4258 65.6729C52.806 65.0531 52.4961 64.2806 52.4961 63.3555C52.4961 62.3802 52.8197 61.5736 53.4668 60.9355C54.1139 60.2975 54.932 59.9785 55.9209 59.9785C56.5863 59.9785 57.1787 60.1403 57.6982 60.4639C58.2223 60.7874 58.6348 61.2477 58.9355 61.8447C59.3776 62.6149 59.5986 63.6198 59.5986 64.8594C59.5986 66.5137 59.2682 67.8102 58.6074 68.749C57.9466 69.6878 57.0306 70.1572 55.8594 70.1572ZM55.9209 65.7686C56.6273 65.7686 57.222 65.5361 57.7051 65.0713C58.1927 64.6064 58.4365 64.0413 58.4365 63.376C58.4365 62.6605 58.195 62.0566 57.7119 61.5645C57.2288 61.0677 56.6341 60.8193 55.9277 60.8193C55.2259 60.8193 54.6357 61.0609 54.1572 61.5439C53.6787 62.027 53.4395 62.6217 53.4395 63.3281C53.4395 64.0208 53.6742 64.6019 54.1436 65.0713C54.613 65.5361 55.2054 65.7686 55.9209 65.7686ZM64.3975 70.1572C63.2809 70.1572 62.4059 69.7015 61.7725 68.79C61.139 67.874 60.8223 66.6322 60.8223 65.0645C60.8223 63.5059 61.1413 62.2686 61.7793 61.3525C62.4173 60.4365 63.29 59.9785 64.3975 59.9785C65.5094 59.9785 66.3822 60.4365 67.0156 61.3525C67.6491 62.264 67.9658 63.499 67.9658 65.0576C67.9658 66.6253 67.6491 67.8672 67.0156 68.7832C66.3822 69.6992 65.5094 70.1572 64.3975 70.1572ZM62.4629 68.1885C62.9277 68.9541 63.5726 69.3369 64.3975 69.3369C65.2223 69.3369 65.8672 68.9541 66.332 68.1885C66.7969 67.4229 67.0293 66.3815 67.0293 65.0645C67.0293 63.7565 66.7946 62.7197 66.3252 61.9541C65.8604 61.1885 65.2178 60.8057 64.3975 60.8057C63.5817 60.8057 62.9391 61.1908 62.4697 61.9609C62.0003 62.7311 61.7656 63.7633 61.7656 65.0576C61.7656 66.3792 61.998 67.4229 62.4629 68.1885ZM72.2314 62.8975C72.236 62.0589 72.5368 61.3639 73.1338 60.8125C73.7354 60.2565 74.4873 59.9785 75.3896 59.9785C76.251 59.9785 76.9779 60.2383 77.5703 60.7578C78.1628 61.2773 78.459 61.9154 78.459 62.6719C78.459 63.2096 78.3086 63.7314 78.0078 64.2373C77.7116 64.7386 77.1533 65.4154 76.333 66.2676L73.585 69.1387V69.166H78.7119V70H72.2793V69.3438L75.7656 65.6592C76.472 64.9163 76.9414 64.349 77.1738 63.957C77.4108 63.5651 77.5293 63.1549 77.5293 62.7266C77.5293 62.1888 77.3197 61.7331 76.9004 61.3594C76.4811 60.9857 75.9684 60.7988 75.3623 60.7988C74.7288 60.7988 74.2002 60.9993 73.7764 61.4004C73.3571 61.7969 73.1429 62.2959 73.1338 62.8975V62.9043H72.2314V62.8975ZM80.1064 62.8975C80.111 62.0589 80.4118 61.3639 81.0088 60.8125C81.6104 60.2565 82.3623 59.9785 83.2646 59.9785C84.126 59.9785 84.8529 60.2383 85.4453 60.7578C86.0378 61.2773 86.334 61.9154 86.334 62.6719C86.334 63.2096 86.1836 63.7314 85.8828 64.2373C85.5866 64.7386 85.0283 65.4154 84.208 66.2676L81.46 69.1387V69.166H86.5869V70H80.1543V69.3438L83.6406 65.6592C84.347 64.9163 84.8164 64.349 85.0488 63.957C85.2858 63.5651 85.4043 63.1549 85.4043 62.7266C85.4043 62.1888 85.1947 61.7331 84.7754 61.3594C84.3561 60.9857 83.8434 60.7988 83.2373 60.7988C82.6038 60.7988 82.0752 60.9993 81.6514 61.4004C81.2321 61.7969 81.0179 62.2959 81.0088 62.8975V62.9043H80.1064V62.8975ZM92.7939 65.3037V64.5107H93.9424C94.585 64.5107 95.109 64.333 95.5146 63.9775C95.9202 63.6221 96.123 63.1686 96.123 62.6172C96.123 62.0749 95.9294 61.6374 95.542 61.3047C95.1592 60.9674 94.6396 60.7988 93.9834 60.7988C93.3727 60.7988 92.8669 60.9674 92.4658 61.3047C92.0648 61.6419 91.8392 62.084 91.7891 62.6309H90.8867C90.946 61.8379 91.2604 61.1976 91.8301 60.71C92.4043 60.2223 93.1357 59.9785 94.0244 59.9785C94.8949 59.9785 95.6195 60.2178 96.1982 60.6963C96.777 61.1702 97.0664 61.7718 97.0664 62.501C97.0664 63.1162 96.8818 63.6335 96.5127 64.0527C96.1436 64.472 95.6423 64.7386 95.0088 64.8525V64.8799C95.7653 64.9255 96.3669 65.167 96.8135 65.6045C97.2646 66.0374 97.4902 66.6025 97.4902 67.2998C97.4902 67.8467 97.3398 68.3389 97.0391 68.7764C96.7383 69.2139 96.3281 69.5534 95.8086 69.7949C95.2891 70.0365 94.7126 70.1572 94.0791 70.1572C93.0947 70.1572 92.2904 69.9043 91.666 69.3984C91.0417 68.8926 90.7135 68.2409 90.6816 67.4434H91.584C91.6204 67.9993 91.8665 68.4551 92.3223 68.8105C92.7826 69.1615 93.3659 69.3369 94.0723 69.3369C94.7878 69.3369 95.3779 69.1478 95.8428 68.7695C96.3076 68.3913 96.54 67.9105 96.54 67.3271C96.54 66.6982 96.3122 66.2038 95.8564 65.8438C95.4007 65.4837 94.7764 65.3037 93.9834 65.3037H92.7939ZM102.46 70.1572C101.799 70.1572 101.207 69.9954 100.683 69.6719C100.163 69.3483 99.7507 68.888 99.4453 68.291C99.0033 67.5208 98.7822 66.516 98.7822 65.2764C98.7822 63.6221 99.1126 62.3255 99.7734 61.3867C100.439 60.4479 101.357 59.9785 102.528 59.9785C103.349 59.9785 104.048 60.2064 104.627 60.6621C105.206 61.1178 105.566 61.724 105.707 62.4805H104.764C104.641 61.9792 104.374 61.5758 103.964 61.2705C103.554 60.9606 103.073 60.8057 102.521 60.8057C101.619 60.8057 100.92 61.209 100.423 62.0156C99.9307 62.8177 99.6846 63.9502 99.6846 65.4131H99.7051C99.9056 64.8571 100.272 64.4059 100.806 64.0596C101.343 63.7132 101.945 63.54 102.61 63.54C103.549 63.54 104.328 63.8499 104.948 64.4697C105.573 65.0895 105.885 65.8665 105.885 66.8008C105.885 67.7669 105.561 68.569 104.914 69.207C104.267 69.8405 103.449 70.1572 102.46 70.1572ZM102.453 69.3232C103.146 69.3232 103.731 69.0817 104.21 68.5986C104.693 68.1156 104.935 67.5254 104.935 66.8281C104.935 66.1217 104.7 65.5361 104.23 65.0713C103.766 64.6019 103.175 64.3672 102.46 64.3672C101.758 64.3672 101.163 64.5996 100.676 65.0645C100.193 65.5247 99.9512 66.0898 99.9512 66.7598C99.9512 67.4798 100.19 68.0882 100.669 68.585C101.152 69.0771 101.747 69.3232 102.453 69.3232Z" fill="#333333"/>
<path d="M6.26089 65.3742C6.85135 66.1722 7.60801 66.8295 8.47774 67.2999L9.85485 66.4727C9.89514 66.4521 9.94062 66.4444 9.98527 66.4505C10.0299 66.4566 10.0717 66.4763 10.1049 66.5069L12.2029 68.3216C12.2831 68.3867 12.3471 68.4697 12.39 68.5642C12.4328 68.6587 12.4533 68.762 12.4498 68.8659C12.4462 68.9699 12.4188 69.0717 12.3697 69.1632C12.3206 69.2548 12.2511 69.3336 12.1667 69.3935C12.0823 69.4534 11.0122 70.2852 10.9399 70.3226C10.8676 70.36 10.8676 70.36 10.688 70.4472C10.4711 70.4807 10.2925 70.4388 10.086 70.3647C8.025 69.6315 6.21146 68.3269 4.85263 66.6001C3.53062 64.863 2.73723 62.7745 2.5687 60.5879C2.55229 60.3702 2.53139 60.2442 2.5545 60.078C2.57672 59.9118 2.59997 59.7456 2.70301 59.6074C2.80606 59.4692 3.97113 58.6704 3.97113 58.6704C4.05021 58.608 4.14219 58.5645 4.24018 58.543C4.33818 58.5216 4.43965 58.5228 4.537 58.5465C4.63435 58.5703 4.72506 58.616 4.80233 58.6802C4.8796 58.7445 4.94143 58.8255 4.98319 58.9174L6.20192 61.4244C6.22342 61.4641 6.23171 61.5097 6.22556 61.5546C6.21942 61.5995 6.19915 61.6412 6.16776 61.6737L4.98956 62.7618C5.21584 63.7176 5.65012 64.61 6.26089 65.3742Z" fill="#333333"/>
</svg>
